<?xml version="1.0" encoding="utf-8"?>
<!-- Generator: Adobe Illustrator 18.0.0, SVG Export Plug-In . SVG Version: 6.00 Build 0)  -->
<!DOCTYPE svg PUBLIC "-//W3C//DTD SVG 1.1//EN" "http://www.w3.org/Graphics/SVG/1.1/DTD/svg11.dtd">
<svg version="1.1" id="Layer_1" xmlns="http://www.w3.org/2000/svg" xmlns:xlink="http://www.w3.org/1999/xlink" x="0px" y="0px"
	 viewBox="0 0 767 60" enable-background="new 0 0 767 60" xml:space="preserve" width="767" height="60">
<g>
	<g>
		<line fill="none" x1="584.6" y1="5.4" x2="569.6" y2="51.8"/>
		<polygon points="570.5,52.2 568.6,52.2 583.6,5.4 585.6,5.4 		"/>
	</g>
	<g enable-background="new    ">
		<path d="M308.9,26.9c1,0,1.8,0.3,2.3,0.8s0.8,1.2,0.8,2.2s-0.3,1.7-0.8,2.2c-0.5,0.5-1.3,0.8-2.3,0.8h-3.1V37h-1.3V27L308.9,26.9
			L308.9,26.9z M308.5,31.7c0.8,0,1.3-0.1,1.7-0.5s0.5-0.8,0.5-1.4s-0.2-1.1-0.5-1.4c-0.4-0.3-0.9-0.5-1.7-0.5h-2.6v3.7L308.5,31.7
			L308.5,31.7z"/>
		<path d="M314.5,29.6v1.5l0,0c0.3-0.6,0.6-1,1.1-1.3c0.4-0.3,1-0.4,1.6-0.4v1.3c-0.5,0-0.9,0.1-1.2,0.2s-0.6,0.3-0.8,0.6
			c-0.2,0.3-0.4,0.6-0.4,0.9s-0.1,0.8-0.1,1.2v3.2h-1.2v-7.2C313.5,29.6,314.5,29.6,314.5,29.6z"/>
		<path d="M317.7,31.8c0.1-0.5,0.4-0.9,0.7-1.2s0.7-0.6,1.1-0.8c0.4-0.2,0.9-0.3,1.5-0.3s1.1,0.1,1.5,0.3c0.4,0.2,0.8,0.5,1.1,0.8
			c0.3,0.3,0.5,0.7,0.7,1.2c0.1,0.5,0.2,1,0.2,1.5s-0.1,1-0.2,1.5s-0.4,0.9-0.7,1.2c-0.3,0.3-0.7,0.6-1.1,0.8s-0.9,0.3-1.5,0.3
			s-1.1-0.1-1.5-0.3s-0.8-0.5-1.1-0.8s-0.5-0.7-0.7-1.2c-0.1-0.5-0.2-1-0.2-1.5C317.5,32.7,317.5,32.2,317.7,31.8z M318.9,34.4
			c0.1,0.3,0.3,0.6,0.5,0.9s0.4,0.4,0.7,0.5c0.3,0.1,0.6,0.2,0.9,0.2s0.6-0.1,0.9-0.2c0.3-0.1,0.5-0.3,0.7-0.5s0.4-0.5,0.5-0.9
			c0.1-0.3,0.2-0.7,0.2-1.2c0-0.4-0.1-0.8-0.2-1.2c-0.1-0.3-0.3-0.6-0.5-0.9c-0.2-0.2-0.4-0.4-0.7-0.5c-0.3-0.1-0.6-0.2-0.9-0.2
			s-0.6,0.1-0.9,0.2s-0.5,0.3-0.7,0.5s-0.4,0.5-0.5,0.9c-0.1,0.4-0.2,0.7-0.2,1.2S318.8,34.1,318.9,34.4z"/>
		<path d="M327.9,36.9l-2.7-7.2h1.3l2,6l0,0l2-6h1.2l-2.6,7.2H327.9z"/>
		<path d="M333,28.3v-1.5h1.2v1.5H333z M334.1,29.6v7.2h-1.2v-7.2C332.9,29.6,334.1,29.6,334.1,29.6z"/>
		<path d="M341.3,36.9v-1l0,0c-0.2,0.4-0.5,0.7-0.9,0.9s-0.9,0.3-1.4,0.3c-0.6,0-1-0.1-1.5-0.3c-0.4-0.2-0.8-0.5-1-0.8
			c-0.3-0.3-0.5-0.7-0.6-1.2s-0.2-0.9-0.2-1.5c0-0.5,0.1-1,0.2-1.5s0.3-0.9,0.6-1.2c0.3-0.3,0.6-0.6,1-0.8c0.4-0.2,0.9-0.3,1.4-0.3
			c0.2,0,0.4,0,0.6,0.1c0.2,0,0.4,0.1,0.6,0.2s0.4,0.2,0.6,0.4c0.2,0.1,0.4,0.3,0.5,0.5l0,0V27h1.2v10L341.3,36.9L341.3,36.9
			L341.3,36.9z M337,34.3c0.1,0.3,0.2,0.6,0.4,0.9c0.2,0.3,0.4,0.5,0.7,0.6c0.3,0.1,0.6,0.2,1,0.2s0.7-0.1,1-0.2
			c0.3-0.2,0.5-0.4,0.7-0.6s0.3-0.5,0.4-0.9c0.1-0.3,0.1-0.7,0.1-1c0-0.4,0-0.7-0.1-1s-0.2-0.6-0.4-0.9s-0.4-0.5-0.7-0.6
			s-0.6-0.2-1-0.2s-0.7,0.1-1,0.2c-0.3,0.2-0.5,0.4-0.7,0.6c-0.2,0.3-0.3,0.6-0.4,0.9s-0.1,0.7-0.1,1C336.9,33.7,336.9,34,337,34.3z
			"/>
		<path d="M344.4,28.3v-1.5h1.2v1.5H344.4z M345.6,29.6v7.2h-1.2v-7.2C344.4,29.6,345.6,29.6,345.6,29.6z"/>
		<path d="M348.5,29.6v1.1l0,0c0.5-0.9,1.3-1.3,2.4-1.3c0.5,0,0.9,0.1,1.2,0.2s0.6,0.3,0.8,0.5s0.3,0.5,0.4,0.8s0.1,0.7,0.1,1.1v4.8
			h-1.2V32c0-0.4-0.1-0.8-0.4-1.1c-0.3-0.3-0.6-0.4-1.1-0.4c-0.4,0-0.7,0.1-0.9,0.2c-0.3,0.1-0.5,0.3-0.7,0.5s-0.3,0.4-0.4,0.7
			c-0.1,0.3-0.1,0.6-0.1,0.9v4.1h-1.2v-7.2h1.1L348.5,29.6L348.5,29.6z"/>
		<path d="M360.6,38.9c-0.5,0.6-1.4,0.9-2.5,0.9c-0.3,0-0.7,0-1-0.1c-0.4-0.1-0.7-0.2-1-0.4s-0.5-0.4-0.7-0.7s-0.3-0.6-0.3-1h1.2
			c0,0.2,0.1,0.4,0.2,0.5s0.3,0.3,0.5,0.4c0.2,0.1,0.4,0.2,0.6,0.2s0.4,0.1,0.6,0.1c0.4,0,0.7-0.1,1-0.2c0.3-0.1,0.5-0.3,0.7-0.6
			c0.2-0.2,0.3-0.5,0.4-0.9s0.1-0.7,0.1-1.1v-0.5l0,0c-0.2,0.4-0.5,0.8-0.9,1s-0.9,0.3-1.3,0.3c-0.5,0-1-0.1-1.4-0.3s-0.7-0.5-1-0.8
			s-0.5-0.7-0.6-1.2s-0.2-0.9-0.2-1.4c0-0.4,0.1-0.9,0.2-1.3c0.1-0.5,0.3-0.9,0.6-1.2c0.3-0.4,0.6-0.7,1-0.9c0.4-0.2,1-0.4,1.6-0.4
			c0.5,0,0.9,0.1,1.3,0.3c0.4,0.2,0.7,0.5,0.9,0.9l0,0v-1h1.1v6.6C361.4,37.4,361.2,38.3,360.6,38.9z M359.1,35.7
			c0.3-0.2,0.5-0.4,0.7-0.6c0.2-0.3,0.3-0.6,0.4-0.9c0.1-0.3,0.1-0.7,0.1-1s0-0.6-0.1-0.9s-0.2-0.6-0.4-0.8
			c-0.2-0.2-0.4-0.4-0.6-0.6s-0.6-0.2-1-0.2s-0.7,0.1-1,0.2s-0.5,0.3-0.7,0.6c-0.2,0.2-0.3,0.5-0.4,0.8s-0.1,0.6-0.1,1
			c0,0.3,0,0.7,0.1,1s0.2,0.6,0.3,0.9c0.2,0.3,0.4,0.5,0.6,0.6c0.3,0.2,0.6,0.2,1,0.2S358.8,35.8,359.1,35.7z"/>
		<path d="M368.7,26.9L374,35l0,0v-8.1h1.3v10h-1.5l-5.2-8l0,0v8h-1.3v-10C367.3,26.9,368.7,26.9,368.7,26.9z"/>
		<path d="M383.6,36.8c-0.2,0.1-0.5,0.2-0.9,0.2c-0.3,0-0.6-0.1-0.7-0.3c-0.2-0.2-0.3-0.5-0.3-0.8c-0.3,0.4-0.7,0.7-1.1,0.8
			c-0.4,0.2-0.9,0.3-1.4,0.3c-0.3,0-0.6,0-0.9-0.1s-0.5-0.2-0.8-0.3c-0.2-0.2-0.4-0.4-0.5-0.6s-0.2-0.6-0.2-0.9c0-0.4,0.1-0.7,0.2-1
			s0.3-0.5,0.6-0.6c0.2-0.2,0.5-0.3,0.8-0.4c0.3-0.1,0.6-0.2,0.9-0.2c0.3-0.1,0.6-0.1,0.9-0.1s0.6-0.1,0.8-0.1s0.4-0.1,0.5-0.3
			c0.1-0.1,0.2-0.3,0.2-0.5c0-0.3,0-0.5-0.1-0.6c-0.1-0.2-0.2-0.3-0.4-0.4c-0.2-0.1-0.3-0.1-0.5-0.2c-0.2,0-0.4,0-0.6,0
			c-0.5,0-0.9,0.1-1.3,0.3c-0.3,0.2-0.5,0.6-0.5,1.1h-1.2c0-0.4,0.1-0.8,0.3-1.1c0.2-0.3,0.4-0.6,0.7-0.7c0.3-0.2,0.6-0.3,1-0.4
			s0.7-0.1,1.2-0.1c0.3,0,0.7,0,1,0.1c0.3,0,0.6,0.1,0.9,0.3c0.3,0.1,0.5,0.3,0.6,0.6c0.2,0.3,0.2,0.6,0.2,1v3.7c0,0.3,0,0.5,0,0.6
			s0.1,0.2,0.3,0.2c0.1,0,0.2,0,0.4-0.1v0.6H383.6z M381.7,33.1c-0.1,0.1-0.3,0.2-0.6,0.2s-0.5,0.1-0.8,0.1s-0.5,0.1-0.8,0.1
			s-0.5,0.1-0.7,0.2c-0.2,0.1-0.4,0.2-0.5,0.4s-0.2,0.4-0.2,0.7c0,0.2,0,0.4,0.1,0.5s0.2,0.2,0.3,0.3c0.1,0.1,0.3,0.1,0.4,0.2
			s0.3,0.1,0.5,0.1c0.4,0,0.7-0.1,1-0.2c0.3-0.1,0.5-0.2,0.7-0.4s0.3-0.3,0.4-0.5s0.1-0.4,0.1-0.5v-1.2
			C381.6,33.1,381.7,33.1,381.7,33.1z"/>
		<path d="M387.8,29.6v1h-1.4v4.5c0,0.1,0,0.3,0,0.3c0,0.1,0.1,0.1,0.1,0.2s0.2,0.1,0.3,0.1c0.1,0,0.3,0,0.5,0h0.5v1h-0.9
			c-0.3,0-0.6,0-0.8-0.1s-0.4-0.1-0.5-0.2s-0.2-0.3-0.3-0.5c-0.1-0.2-0.1-0.5-0.1-0.8v-4.6H384v-1h1.2v-2.2h1.2v2.2h1.4L387.8,29.6
			L387.8,29.6z"/>
		<path d="M389.2,28.3v-1.5h1.2v1.5H389.2z M390.4,29.6v7.2h-1.2v-7.2C389.2,29.6,390.4,29.6,390.4,29.6z"/>
		<path d="M392.1,31.8c0.1-0.5,0.4-0.9,0.7-1.2s0.7-0.6,1.1-0.8c0.4-0.2,0.9-0.3,1.5-0.3s1.1,0.1,1.5,0.3c0.4,0.2,0.8,0.5,1.1,0.8
			c0.3,0.3,0.5,0.7,0.7,1.2c0.1,0.5,0.2,1,0.2,1.5s-0.1,1-0.2,1.5s-0.4,0.9-0.7,1.2c-0.3,0.3-0.7,0.6-1.1,0.8s-0.9,0.3-1.5,0.3
			s-1.1-0.1-1.5-0.3s-0.8-0.5-1.1-0.8s-0.5-0.7-0.7-1.2c-0.1-0.5-0.2-1-0.2-1.5C391.9,32.7,391.9,32.2,392.1,31.8z M393.3,34.4
			c0.1,0.3,0.3,0.6,0.5,0.9s0.4,0.4,0.7,0.5c0.3,0.1,0.6,0.2,0.9,0.2s0.6-0.1,0.9-0.2c0.3-0.1,0.5-0.3,0.7-0.5s0.4-0.5,0.5-0.9
			c0.1-0.3,0.2-0.7,0.2-1.2c0-0.4-0.1-0.8-0.2-1.2c-0.1-0.3-0.3-0.6-0.5-0.9c-0.2-0.2-0.4-0.4-0.7-0.5c-0.3-0.1-0.6-0.2-0.9-0.2
			s-0.6,0.1-0.9,0.2s-0.5,0.3-0.7,0.5s-0.4,0.5-0.5,0.9c-0.1,0.4-0.2,0.7-0.2,1.2S393.2,34.1,393.3,34.4z"/>
		<path d="M401.4,29.6v1.1l0,0c0.5-0.9,1.3-1.3,2.4-1.3c0.5,0,0.9,0.1,1.2,0.2s0.6,0.3,0.8,0.5s0.3,0.5,0.4,0.8s0.1,0.7,0.1,1.1v4.8
			h-1.2V32c0-0.4-0.1-0.8-0.4-1.1c-0.3-0.3-0.6-0.4-1.1-0.4c-0.4,0-0.7,0.1-0.9,0.2c-0.3,0.1-0.5,0.3-0.7,0.5s-0.3,0.4-0.4,0.7
			c-0.1,0.3-0.1,0.6-0.1,0.9v4.1h-1.2v-7.2h1.1L401.4,29.6L401.4,29.6z"/>
		<path d="M414.5,36.8c-0.2,0.1-0.5,0.2-0.9,0.2c-0.3,0-0.6-0.1-0.7-0.3c-0.2-0.2-0.3-0.5-0.3-0.8c-0.3,0.4-0.7,0.7-1.1,0.8
			c-0.4,0.2-0.9,0.3-1.4,0.3c-0.3,0-0.6,0-0.9-0.1s-0.5-0.2-0.8-0.3c-0.2-0.2-0.4-0.4-0.5-0.6s-0.2-0.6-0.2-1s0.1-0.7,0.2-1
			s0.3-0.5,0.6-0.6c0.2-0.2,0.5-0.3,0.8-0.4c0.3-0.1,0.6-0.2,0.9-0.2c0.3-0.1,0.6-0.1,0.9-0.1s0.6-0.1,0.8-0.1
			c0.2-0.1,0.4-0.1,0.5-0.3c0.1-0.1,0.2-0.3,0.2-0.5c0-0.3,0-0.5-0.1-0.6c-0.1-0.2-0.2-0.3-0.4-0.4c-0.2-0.1-0.3-0.1-0.5-0.2
			c-0.2,0-0.4,0-0.6,0c-0.5,0-0.9,0.1-1.3,0.3c-0.3,0.2-0.5,0.6-0.5,1.1H408c0-0.4,0.1-0.8,0.3-1.1c0.2-0.3,0.4-0.6,0.7-0.7
			c0.3-0.2,0.6-0.3,1-0.4s0.7-0.1,1.2-0.1c0.3,0,0.7,0,1,0.1s0.6,0.1,0.9,0.3c0.3,0.1,0.5,0.3,0.6,0.6s0.2,0.6,0.2,1v3.7
			c0,0.3,0,0.5,0,0.6s0.1,0.2,0.3,0.2c0.1,0,0.2,0,0.4-0.1v0.7C414.6,36.8,414.5,36.8,414.5,36.8z M412.6,33.1
			c-0.1,0.1-0.3,0.2-0.6,0.2c-0.2,0.1-0.5,0.1-0.8,0.1s-0.5,0.1-0.8,0.1s-0.5,0.1-0.7,0.2c-0.2,0.1-0.4,0.2-0.5,0.4
			s-0.2,0.4-0.2,0.7c0,0.2,0,0.4,0.1,0.5s0.2,0.2,0.3,0.3c0.1,0.1,0.3,0.1,0.4,0.2s0.3,0.1,0.5,0.1c0.4,0,0.7-0.1,1-0.2
			c0.3-0.1,0.5-0.2,0.7-0.4s0.3-0.3,0.4-0.5s0.1-0.4,0.1-0.5v-1.2C412.5,33.1,412.6,33.1,412.6,33.1z"/>
		<path d="M416.9,26.9v10h-1.2v-10C415.7,26.9,416.9,26.9,416.9,26.9z"/>
		<path d="M429,36.8c-0.2,0.1-0.5,0.2-0.9,0.2c-0.3,0-0.6-0.1-0.7-0.3c-0.2-0.2-0.3-0.5-0.3-0.8c-0.3,0.4-0.7,0.7-1.1,0.8
			c-0.4,0.2-0.9,0.3-1.4,0.3c-0.3,0-0.6,0-0.9-0.1s-0.5-0.2-0.8-0.3c-0.2-0.2-0.4-0.4-0.5-0.6s-0.2-0.6-0.2-0.9c0-0.4,0.1-0.7,0.2-1
			s0.3-0.5,0.6-0.6c0.2-0.2,0.5-0.3,0.8-0.4c0.3-0.1,0.6-0.2,0.9-0.2c0.3-0.1,0.6-0.1,0.9-0.1s0.6-0.1,0.8-0.1
			c0.2-0.1,0.4-0.1,0.5-0.3c0.1-0.1,0.2-0.3,0.2-0.5c0-0.3,0-0.5-0.1-0.6c-0.1-0.2-0.2-0.3-0.4-0.4c-0.2-0.1-0.3-0.1-0.5-0.2
			c-0.2,0-0.4,0-0.6,0c-0.5,0-0.9,0.1-1.3,0.3c-0.3,0.2-0.5,0.6-0.5,1.1h-1.2c0-0.4,0.1-0.8,0.3-1.1c0.2-0.3,0.4-0.6,0.7-0.7
			s0.6-0.3,1-0.4s0.7-0.1,1.2-0.1c0.3,0,0.7,0,1,0.1s0.6,0.1,0.9,0.3c0.3,0.1,0.5,0.3,0.6,0.6s0.2,0.6,0.2,1v3.7c0,0.3,0,0.5,0,0.6
			s0.1,0.2,0.3,0.2c0.1,0,0.2,0,0.4-0.1v0.6H429z M427.1,33.1c-0.1,0.1-0.3,0.2-0.6,0.2c-0.2,0.1-0.5,0.1-0.8,0.1s-0.5,0.1-0.8,0.1
			s-0.5,0.1-0.7,0.2s-0.4,0.2-0.5,0.4s-0.2,0.4-0.2,0.7c0,0.2,0,0.4,0.1,0.5s0.2,0.2,0.3,0.3c0.1,0.1,0.3,0.1,0.4,0.2
			s0.3,0.1,0.5,0.1c0.4,0,0.7-0.1,1-0.2c0.3-0.1,0.5-0.2,0.7-0.4s0.3-0.3,0.4-0.5s0.1-0.4,0.1-0.5v-1.2
			C427,33.1,427.1,33.1,427.1,33.1z"/>
		<path d="M431.2,29.6v1.1l0,0c0.5-0.9,1.3-1.3,2.4-1.3c0.5,0,0.9,0.1,1.2,0.2s0.6,0.3,0.8,0.5c0.2,0.2,0.3,0.5,0.4,0.8
			s0.1,0.7,0.1,1.1v4.8h-1.2V32c0-0.4-0.1-0.8-0.4-1.1s-0.6-0.4-1.1-0.4c-0.4,0-0.7,0.1-0.9,0.2c-0.3,0.1-0.5,0.3-0.7,0.5
			s-0.3,0.4-0.4,0.7c-0.1,0.3-0.1,0.6-0.1,0.9v4.1h-1.2v-7.2h1.1L431.2,29.6L431.2,29.6z"/>
		<path d="M443.2,36.9v-1l0,0c-0.2,0.4-0.5,0.7-0.9,0.9s-0.9,0.3-1.4,0.3c-0.6,0-1-0.1-1.5-0.3c-0.4-0.2-0.8-0.5-1-0.8
			c-0.3-0.3-0.5-0.7-0.6-1.2s-0.2-0.9-0.2-1.5c0-0.5,0.1-1,0.2-1.5s0.3-0.9,0.6-1.2c0.3-0.3,0.6-0.6,1-0.8c0.4-0.2,0.9-0.3,1.4-0.3
			c0.2,0,0.4,0,0.6,0.1c0.2,0,0.4,0.1,0.6,0.2s0.4,0.2,0.6,0.4c0.2,0.1,0.4,0.3,0.5,0.5l0,0V27h1.2v10L443.2,36.9L443.2,36.9
			L443.2,36.9z M438.9,34.3c0.1,0.3,0.2,0.6,0.4,0.9s0.4,0.5,0.7,0.6c0.3,0.1,0.6,0.2,1,0.2s0.7-0.1,1-0.2c0.3-0.2,0.5-0.4,0.7-0.6
			c0.2-0.3,0.3-0.5,0.4-0.9c0.1-0.3,0.1-0.7,0.1-1c0-0.4,0-0.7-0.1-1s-0.2-0.6-0.4-0.9c-0.2-0.3-0.4-0.5-0.7-0.6s-0.6-0.2-1-0.2
			s-0.7,0.1-1,0.2c-0.3,0.2-0.5,0.4-0.7,0.6c-0.2,0.3-0.3,0.6-0.4,0.9s-0.1,0.7-0.1,1C438.8,33.7,438.8,34,438.9,34.3z"/>
		<path d="M457.9,36.9l-2.3-8.4l0,0l-2.3,8.4h-1.4l-2.6-10h1.4l2,8.3l0,0l2.2-8.3h1.4l2.2,8.3l0,0l2-8.3h1.3l-2.7,10H457.9z"/>
		<path d="M462.1,31.8c0.1-0.5,0.4-0.9,0.7-1.2s0.7-0.6,1.1-0.8c0.4-0.2,0.9-0.3,1.5-0.3s1.1,0.1,1.5,0.3c0.4,0.2,0.8,0.5,1.1,0.8
			c0.3,0.3,0.5,0.7,0.7,1.2c0.1,0.5,0.2,1,0.2,1.5s-0.1,1-0.2,1.5s-0.4,0.9-0.7,1.2c-0.3,0.3-0.7,0.6-1.1,0.8s-0.9,0.3-1.5,0.3
			s-1.1-0.1-1.5-0.3s-0.8-0.5-1.1-0.8s-0.5-0.7-0.7-1.2c-0.1-0.5-0.2-1-0.2-1.5C461.9,32.7,461.9,32.2,462.1,31.8z M463.3,34.4
			c0.1,0.3,0.3,0.6,0.5,0.9s0.4,0.4,0.7,0.5c0.3,0.1,0.6,0.2,0.9,0.2s0.6-0.1,0.9-0.2c0.3-0.1,0.5-0.3,0.7-0.5s0.4-0.5,0.5-0.9
			c0.1-0.3,0.2-0.7,0.2-1.2c0-0.4-0.1-0.8-0.2-1.2c-0.1-0.3-0.3-0.6-0.5-0.9s-0.4-0.4-0.7-0.5c-0.3-0.1-0.6-0.2-0.9-0.2
			s-0.6,0.1-0.9,0.2s-0.5,0.3-0.7,0.5s-0.4,0.5-0.5,0.9c-0.1,0.3-0.2,0.7-0.2,1.2S463.2,34.1,463.3,34.4z"/>
		<path d="M471.4,29.6v1.5l0,0c0.3-0.6,0.6-1,1.1-1.3c0.4-0.3,1-0.4,1.6-0.4v1.3c-0.5,0-0.9,0.1-1.2,0.2s-0.6,0.3-0.8,0.6
			s-0.4,0.6-0.4,0.9c-0.1,0.4-0.1,0.8-0.1,1.2v3.2h-1.2v-7.2C470.4,29.6,471.4,29.6,471.4,29.6z"/>
		<path d="M476.2,26.9v10H475v-10C475,26.9,476.2,26.9,476.2,26.9z"/>
		<path d="M483.3,36.9v-1l0,0c-0.2,0.4-0.5,0.7-0.9,0.9s-0.9,0.3-1.4,0.3c-0.6,0-1-0.1-1.5-0.3c-0.4-0.2-0.8-0.5-1-0.8
			c-0.3-0.3-0.5-0.7-0.6-1.2s-0.2-0.9-0.2-1.5c0-0.5,0.1-1,0.2-1.5s0.3-0.9,0.6-1.2c0.3-0.3,0.6-0.6,1-0.8c0.4-0.2,0.9-0.3,1.4-0.3
			c0.2,0,0.4,0,0.6,0.1c0.2,0,0.4,0.1,0.6,0.2s0.4,0.2,0.6,0.4c0.2,0.1,0.4,0.3,0.5,0.5l0,0V27h1.2v10L483.3,36.9L483.3,36.9
			L483.3,36.9z M479.1,34.3c0.1,0.3,0.2,0.6,0.4,0.9s0.4,0.5,0.7,0.6c0.3,0.1,0.6,0.2,1,0.2s0.7-0.1,1-0.2c0.3-0.2,0.5-0.4,0.7-0.6
			c0.2-0.3,0.3-0.5,0.4-0.9c0.1-0.3,0.1-0.7,0.1-1c0-0.4,0-0.7-0.1-1s-0.2-0.6-0.4-0.9c-0.2-0.3-0.4-0.5-0.7-0.6s-0.6-0.2-1-0.2
			s-0.7,0.1-1,0.2c-0.3,0.2-0.5,0.4-0.7,0.6c-0.2,0.3-0.3,0.6-0.4,0.9s-0.1,0.7-0.1,1C478.9,33.7,479,34,479.1,34.3z"/>
		<path d="M491.8,26.9v8.9h5.3v1.1h-6.6v-10C490.5,26.9,491.8,26.9,491.8,26.9z"/>
		<path d="M503.2,36.4c-0.5,0.4-1.2,0.6-2,0.6c-0.6,0-1.1-0.1-1.5-0.3s-0.8-0.4-1.1-0.8c-0.3-0.3-0.5-0.7-0.7-1.2s-0.2-1-0.2-1.5
			c0-0.6,0.1-1.1,0.3-1.5c0.2-0.5,0.4-0.9,0.7-1.2c0.3-0.3,0.7-0.6,1.1-0.8s0.9-0.3,1.4-0.3c0.6,0,1.2,0.1,1.6,0.4s0.8,0.6,1,1
			c0.3,0.4,0.4,0.9,0.5,1.3c0.1,0.5,0.1,0.9,0.1,1.4H499c0,0.3,0,0.6,0.1,0.9c0.1,0.3,0.2,0.5,0.4,0.8c0.2,0.2,0.4,0.4,0.7,0.5
			s0.6,0.2,1,0.2c0.5,0,0.9-0.1,1.2-0.4c0.3-0.2,0.5-0.6,0.6-1.1h1.2C504.1,35.4,503.7,36,503.2,36.4z M502.9,31.8
			c-0.1-0.3-0.3-0.5-0.4-0.7c-0.2-0.2-0.4-0.3-0.6-0.4s-0.5-0.2-0.8-0.2s-0.6,0.1-0.8,0.2c-0.2,0.1-0.5,0.3-0.6,0.4
			c-0.2,0.2-0.3,0.4-0.4,0.7c-0.1,0.2-0.2,0.5-0.2,0.8h4.2C503.1,32.3,503,32,502.9,31.8z"/>
		<path d="M512,36.8c-0.2,0.1-0.5,0.2-0.9,0.2c-0.3,0-0.6-0.1-0.7-0.3c-0.2-0.2-0.3-0.5-0.3-0.8c-0.3,0.4-0.7,0.7-1.1,0.8
			c-0.4,0.2-0.9,0.3-1.4,0.3c-0.3,0-0.6,0-0.9-0.1s-0.5-0.2-0.8-0.3c-0.2-0.2-0.4-0.4-0.5-0.6s-0.2-0.6-0.2-0.9c0-0.4,0.1-0.7,0.2-1
			s0.3-0.5,0.6-0.6c0.2-0.2,0.5-0.3,0.8-0.4c0.3-0.1,0.6-0.2,0.9-0.2c0.3-0.1,0.6-0.1,0.9-0.1s0.6-0.1,0.8-0.1
			c0.2-0.1,0.4-0.1,0.5-0.3c0.1-0.1,0.2-0.3,0.2-0.5c0-0.3,0-0.5-0.1-0.6c-0.1-0.2-0.2-0.3-0.4-0.4s-0.3-0.1-0.5-0.2
			c-0.2,0-0.4,0-0.6,0c-0.5,0-0.9,0.1-1.3,0.3c-0.3,0.2-0.5,0.6-0.5,1.1h-1.2c0-0.4,0.1-0.8,0.3-1.1c0.2-0.3,0.4-0.6,0.7-0.7
			s0.6-0.3,1-0.4s0.7-0.1,1.2-0.1c0.3,0,0.7,0,1,0.1s0.6,0.1,0.9,0.3c0.3,0.1,0.5,0.3,0.6,0.6s0.2,0.6,0.2,1v3.7c0,0.3,0,0.5,0,0.6
			s0.1,0.2,0.3,0.2c0.1,0,0.2,0,0.4-0.1v0.6H512z M510,33.1c-0.1,0.1-0.3,0.2-0.6,0.2c-0.2,0.1-0.5,0.1-0.8,0.1s-0.5,0.1-0.8,0.1
			s-0.5,0.1-0.7,0.2s-0.4,0.2-0.5,0.4s-0.2,0.4-0.2,0.7c0,0.2,0,0.4,0.1,0.5s0.2,0.2,0.3,0.3s0.3,0.1,0.4,0.2s0.3,0.1,0.5,0.1
			c0.4,0,0.7-0.1,1-0.2c0.3-0.1,0.5-0.2,0.7-0.4s0.3-0.3,0.4-0.5s0.1-0.4,0.1-0.5L510,33.1L510,33.1z"/>
		<path d="M518.4,36.9v-1l0,0c-0.2,0.4-0.5,0.7-0.9,0.9s-0.9,0.3-1.4,0.3c-0.6,0-1-0.1-1.5-0.3c-0.4-0.2-0.8-0.5-1-0.8
			c-0.3-0.3-0.5-0.7-0.6-1.2s-0.2-0.9-0.2-1.5c0-0.5,0.1-1,0.2-1.5c0.1-0.5,0.3-0.9,0.6-1.2c0.3-0.3,0.6-0.6,1-0.8
			c0.4-0.2,0.9-0.3,1.4-0.3c0.2,0,0.4,0,0.6,0.1c0.2,0,0.4,0.1,0.6,0.2s0.4,0.2,0.6,0.4c0.2,0.1,0.4,0.3,0.5,0.5l0,0V27h1.2v10
			L518.4,36.9L518.4,36.9L518.4,36.9z M514.1,34.3c0.1,0.3,0.2,0.6,0.4,0.9s0.4,0.5,0.7,0.6s0.6,0.2,1,0.2s0.7-0.1,1-0.2
			c0.3-0.2,0.5-0.4,0.7-0.6c0.2-0.3,0.3-0.5,0.4-0.9c0.1-0.3,0.1-0.7,0.1-1c0-0.4,0-0.7-0.1-1s-0.2-0.6-0.4-0.9s-0.4-0.5-0.7-0.6
			s-0.6-0.2-1-0.2s-0.7,0.1-1,0.2c-0.3,0.2-0.5,0.4-0.7,0.6c-0.2,0.3-0.3,0.6-0.4,0.9c-0.1,0.3-0.1,0.7-0.1,1
			C513.9,33.7,514,34,514.1,34.3z"/>
		<path d="M526.5,36.4c-0.5,0.4-1.2,0.6-2,0.6c-0.6,0-1.1-0.1-1.5-0.3s-0.8-0.4-1.1-0.8s-0.5-0.7-0.7-1.2c-0.1-0.5-0.2-1-0.2-1.5
			c0-0.6,0.1-1.1,0.3-1.5c0.2-0.5,0.4-0.9,0.7-1.2c0.3-0.3,0.7-0.6,1.1-0.8c0.4-0.2,0.9-0.3,1.4-0.3c0.6,0,1.2,0.1,1.6,0.4
			c0.4,0.3,0.8,0.6,1,1c0.3,0.4,0.4,0.9,0.5,1.3c0.1,0.5,0.1,0.9,0.1,1.4h-5.4c0,0.3,0,0.6,0.1,0.9c0.1,0.3,0.2,0.5,0.4,0.8
			c0.2,0.2,0.4,0.4,0.7,0.5s0.6,0.2,1,0.2c0.5,0,0.9-0.1,1.2-0.4c0.3-0.2,0.5-0.6,0.6-1.1h1.2C527.4,35.4,527,36,526.5,36.4z
			 M526.2,31.8c-0.1-0.3-0.3-0.5-0.4-0.7c-0.2-0.2-0.4-0.3-0.6-0.4c-0.2-0.1-0.5-0.2-0.8-0.2s-0.6,0.1-0.8,0.2s-0.5,0.3-0.6,0.4
			c-0.2,0.2-0.3,0.4-0.4,0.7c-0.1,0.2-0.2,0.5-0.2,0.8h4.2C526.4,32.3,526.3,32,526.2,31.8z"/>
		<path d="M530,29.6v1.5l0,0c0.3-0.6,0.6-1,1.1-1.3c0.4-0.3,1-0.4,1.6-0.4v1.3c-0.5,0-0.9,0.1-1.2,0.2s-0.6,0.3-0.8,0.6
			c-0.2,0.3-0.4,0.6-0.4,0.9c-0.1,0.4-0.1,0.8-0.1,1.2v3.2H529v-7.2C529,29.6,530,29.6,530,29.6z"/>
		<path d="M534.5,35.3c0.1,0.2,0.3,0.3,0.4,0.4c0.2,0.1,0.4,0.2,0.6,0.2c0.2,0,0.5,0.1,0.7,0.1s0.4,0,0.6,0c0.2,0,0.4-0.1,0.6-0.2
			c0.2-0.1,0.3-0.2,0.4-0.3c0.1-0.1,0.2-0.3,0.2-0.6s-0.1-0.5-0.3-0.7s-0.5-0.3-0.9-0.4s-0.7-0.2-1.1-0.3c-0.4-0.1-0.8-0.2-1.1-0.3
			s-0.6-0.3-0.9-0.6s-0.3-0.6-0.3-1.1c0-0.4,0.1-0.7,0.2-0.9c0.2-0.3,0.4-0.5,0.6-0.6s0.5-0.3,0.9-0.4c0.3-0.1,0.6-0.1,1-0.1
			s0.8,0,1.1,0.1s0.7,0.2,0.9,0.4c0.3,0.2,0.5,0.4,0.6,0.7c0.2,0.3,0.3,0.7,0.3,1.1h-1.3c0-0.2-0.1-0.4-0.2-0.6
			c-0.1-0.2-0.2-0.3-0.4-0.4s-0.3-0.2-0.5-0.2s-0.4-0.1-0.6-0.1c-0.2,0-0.4,0-0.5,0c-0.2,0-0.3,0.1-0.5,0.1s-0.3,0.3-0.3,0.4
			c-0.1,0.1-0.1,0.3-0.1,0.5s0.1,0.4,0.2,0.5c0.1,0.1,0.3,0.2,0.6,0.3c0.2,0.1,0.5,0.2,0.8,0.2c0.3,0.1,0.6,0.1,0.8,0.2
			c0.3,0.1,0.6,0.1,0.9,0.2c0.3,0.1,0.5,0.2,0.8,0.4c0.2,0.2,0.4,0.3,0.5,0.6c0.1,0.2,0.2,0.5,0.2,0.9s-0.1,0.8-0.3,1.1
			s-0.4,0.5-0.7,0.7s-0.6,0.3-1,0.4s-0.7,0.1-1.1,0.1c-0.4,0-0.8,0-1.1-0.1s-0.7-0.2-1-0.4s-0.5-0.4-0.7-0.8s-0.3-0.7-0.3-1.1h1.2
			C534.3,34.9,534.4,35.1,534.5,35.3z"/>
		<path d="M541.8,26.9v3.8l0,0c0.1-0.2,0.2-0.4,0.4-0.6s0.4-0.3,0.6-0.4c0.2-0.1,0.4-0.2,0.7-0.2s0.5-0.1,0.7-0.1
			c0.5,0,0.9,0.1,1.2,0.2s0.6,0.3,0.8,0.5s0.3,0.5,0.4,0.8s0.1,0.7,0.1,1.1v4.8h-1.2V32c0-0.4-0.1-0.8-0.4-1.1s-0.6-0.4-1.1-0.4
			c-0.4,0-0.7,0.1-0.9,0.2c-0.3,0.1-0.5,0.3-0.7,0.5s-0.3,0.4-0.4,0.7c-0.1,0.3-0.1,0.6-0.1,0.9v4.1h-1.2v-10
			C540.7,26.9,541.8,26.9,541.8,26.9z"/>
		<path d="M548.4,28.3v-1.5h1.2v1.5H548.4z M549.6,29.6v7.2h-1.2v-7.2C548.4,29.6,549.6,29.6,549.6,29.6z"/>
		<path d="M552.7,29.6v1l0,0c0.2-0.4,0.5-0.7,0.9-0.9c0.4-0.2,0.9-0.3,1.4-0.3c0.6,0,1,0.1,1.5,0.3s0.8,0.5,1,0.8
			c0.3,0.3,0.5,0.8,0.6,1.2s0.2,0.9,0.2,1.5c0,0.5-0.1,1-0.2,1.5c-0.1,0.5-0.3,0.9-0.6,1.2s-0.6,0.6-1,0.8s-0.9,0.3-1.4,0.3
			c-0.2,0-0.4,0-0.6-0.1c-0.2,0-0.4-0.1-0.7-0.2c-0.2-0.1-0.4-0.2-0.6-0.3s-0.4-0.3-0.5-0.5l0,0v3.7h-1.2v-10
			C551.5,29.6,552.7,29.6,552.7,29.6z M557,32.2c-0.1-0.3-0.2-0.6-0.4-0.9s-0.4-0.5-0.7-0.6s-0.6-0.2-1-0.2s-0.7,0.1-1,0.2
			c-0.3,0.2-0.5,0.4-0.7,0.6c-0.2,0.3-0.3,0.5-0.4,0.9c-0.1,0.3-0.1,0.7-0.1,1c0,0.4,0,0.7,0.1,1s0.2,0.6,0.4,0.9
			c0.2,0.3,0.4,0.5,0.7,0.6c0.3,0.2,0.6,0.2,1.1,0.2c0.4,0,0.8-0.1,1-0.2c0.3-0.2,0.5-0.4,0.7-0.6c0.2-0.3,0.3-0.6,0.4-0.9
			c0.1-0.3,0.1-0.7,0.1-1C557.1,32.9,557.1,32.5,557,32.2z"/>
	</g>
	<g enable-background="new    ">
		<path d="M295.3,44.6v1h-1.4v4.5c0,0.1,0,0.3,0,0.3c0,0.1,0.1,0.1,0.1,0.2s0.2,0.1,0.3,0.1c0.1,0,0.3,0,0.5,0h0.5v1h-0.9
			c-0.3,0-0.6,0-0.8-0.1s-0.4-0.1-0.5-0.2s-0.2-0.3-0.3-0.5c-0.1-0.2-0.1-0.5-0.1-0.8v-4.6h-1.2v-1h1.2v-2.2h1.2v2.2L295.3,44.6
			L295.3,44.6z"/>
		<path d="M296.4,46.8c0.1-0.5,0.4-0.9,0.7-1.2s0.7-0.6,1.1-0.8s0.9-0.3,1.5-0.3s1.1,0.1,1.5,0.3s0.8,0.5,1.1,0.8
			c0.3,0.3,0.5,0.7,0.7,1.2c0.1,0.5,0.2,1,0.2,1.5s-0.1,1-0.2,1.5s-0.4,0.9-0.7,1.2c-0.3,0.3-0.7,0.6-1.1,0.8s-0.9,0.2-1.5,0.2
			s-1.1-0.1-1.5-0.3s-0.8-0.5-1.1-0.8s-0.5-0.7-0.7-1.2c-0.1-0.5-0.2-1-0.2-1.5C296.2,47.7,296.3,47.2,296.4,46.8z M297.6,49.4
			c0.1,0.3,0.3,0.6,0.5,0.9s0.4,0.4,0.7,0.5c0.3,0.1,0.6,0.2,0.9,0.2s0.6-0.1,0.9-0.2c0.3-0.1,0.5-0.3,0.7-0.5s0.4-0.5,0.5-0.9
			c0.1-0.3,0.2-0.7,0.2-1.2c0-0.4-0.1-0.8-0.2-1.2c-0.1-0.3-0.3-0.6-0.5-0.9c-0.2-0.2-0.4-0.4-0.7-0.5c-0.3-0.1-0.6-0.2-0.9-0.2
			s-0.6,0.1-0.9,0.2c-0.3,0.1-0.5,0.3-0.7,0.5s-0.4,0.5-0.5,0.9s-0.2,0.7-0.2,1.2S297.5,49.1,297.6,49.4z"/>
		<path d="M313.1,41.9c1,0,1.8,0.3,2.3,0.8s0.8,1.2,0.8,2.2s-0.3,1.7-0.8,2.2s-1.3,0.8-2.3,0.8H310V52h-1.3V42L313.1,41.9
			L313.1,41.9z M312.6,46.7c0.8,0,1.3-0.1,1.7-0.5s0.5-0.8,0.5-1.4s-0.2-1.1-0.5-1.4c-0.4-0.3-0.9-0.5-1.7-0.5H310v3.7h2.6V46.7z"/>
		<path d="M318.7,44.6v1.5l0,0c0.3-0.6,0.6-1,1.1-1.3c0.4-0.3,1-0.4,1.6-0.4v1.3c-0.5,0-0.9,0.1-1.2,0.2s-0.6,0.3-0.8,0.6
			c-0.2,0.3-0.4,0.6-0.4,0.9s-0.1,0.8-0.1,1.2v3.2h-1.2v-7.2H318.7z"/>
		<path d="M327.1,51.4c-0.5,0.4-1.2,0.6-2,0.6c-0.6,0-1.1-0.1-1.5-0.3s-0.8-0.4-1.1-0.8c-0.3-0.3-0.5-0.7-0.7-1.2
			c-0.1-0.5-0.2-1-0.2-1.5c0-0.6,0.1-1.1,0.3-1.5c0.2-0.5,0.4-0.9,0.7-1.2s0.7-0.6,1.1-0.8s0.9-0.3,1.4-0.3c0.6,0,1.2,0.1,1.6,0.4
			c0.4,0.3,0.8,0.6,1,1c0.3,0.4,0.4,0.9,0.5,1.3c0.1,0.5,0.1,0.9,0.1,1.4h-5.4c0,0.3,0,0.6,0.1,0.9c0.1,0.3,0.2,0.5,0.4,0.8
			c0.2,0.2,0.4,0.4,0.7,0.5c0.3,0.1,0.6,0.2,1,0.2c0.5,0,0.9-0.1,1.2-0.4c0.3-0.2,0.5-0.6,0.6-1.1h1.2C328,50.4,327.7,51,327.1,51.4
			z M326.8,46.8c-0.1-0.3-0.3-0.5-0.4-0.7c-0.2-0.2-0.4-0.3-0.6-0.4c-0.2-0.1-0.5-0.2-0.8-0.2s-0.6,0.1-0.8,0.2
			c-0.2,0.1-0.5,0.3-0.6,0.4c-0.2,0.2-0.3,0.4-0.4,0.7c-0.1,0.2-0.2,0.5-0.2,0.8h4.2C327,47.3,326.9,47,326.8,46.8z"/>
		<path d="M331.5,51.9l-2.7-7.2h1.3l2,6l0,0l2-6h1.2l-2.6,7.2H331.5z"/>
		<path d="M341.6,51.4c-0.5,0.4-1.2,0.6-2,0.6c-0.6,0-1.1-0.1-1.5-0.3s-0.8-0.4-1.1-0.8c-0.3-0.3-0.5-0.7-0.7-1.2
			c-0.1-0.5-0.2-1-0.2-1.5c0-0.6,0.1-1.1,0.3-1.5c0.2-0.5,0.4-0.9,0.7-1.2s0.7-0.6,1.1-0.8s0.9-0.3,1.4-0.3c0.6,0,1.2,0.1,1.6,0.4
			c0.4,0.3,0.8,0.6,1,1c0.3,0.4,0.4,0.9,0.5,1.3c0.1,0.5,0.1,0.9,0.1,1.4h-5.4c0,0.3,0,0.6,0.1,0.9c0.1,0.3,0.2,0.5,0.4,0.8
			c0.2,0.2,0.4,0.4,0.7,0.5c0.3,0.1,0.6,0.2,1,0.2c0.5,0,0.9-0.1,1.2-0.4c0.3-0.2,0.5-0.6,0.6-1.1h1.2
			C342.5,50.4,342.2,51,341.6,51.4z M341.3,46.8c-0.1-0.3-0.3-0.5-0.4-0.7c-0.2-0.2-0.4-0.3-0.6-0.4c-0.2-0.1-0.5-0.2-0.8-0.2
			s-0.6,0.1-0.8,0.2c-0.2,0.1-0.5,0.3-0.6,0.4c-0.2,0.2-0.3,0.4-0.4,0.7c-0.1,0.2-0.2,0.5-0.2,0.8h4.2
			C341.5,47.3,341.5,47,341.3,46.8z"/>
		<path d="M345.1,44.6v1.1l0,0c0.5-0.9,1.3-1.3,2.4-1.3c0.5,0,0.9,0.1,1.2,0.2s0.6,0.3,0.8,0.5s0.3,0.5,0.4,0.8s0.1,0.7,0.1,1.1v4.8
			h-1.2V47c0-0.4-0.1-0.8-0.4-1.1s-0.6-0.4-1.1-0.4c-0.4,0-0.7,0.1-0.9,0.2c-0.3,0.1-0.5,0.3-0.7,0.5s-0.3,0.4-0.4,0.7
			s-0.1,0.6-0.1,0.9v4.1H344v-7.2h1.1V44.6z"/>
		<path d="M354.9,44.6v1h-1.4v4.5c0,0.1,0,0.3,0,0.3c0,0.1,0.1,0.1,0.1,0.2s0.2,0.1,0.3,0.1c0.1,0,0.3,0,0.5,0h0.5v1H354
			c-0.3,0-0.6,0-0.8-0.1s-0.4-0.1-0.5-0.2s-0.2-0.3-0.3-0.5c-0.1-0.2-0.1-0.5-0.1-0.8v-4.6h-1.2v-1h1.2v-2.2h1.2v2.2L354.9,44.6
			L354.9,44.6z"/>
		<path d="M368,51.9l-2.3-8.4l0,0l-2.3,8.4H362l-2.6-10h1.4l2,8.3l0,0l2.2-8.3h1.4l2.2,8.3l0,0l2-8.3h1.3l-2.7,10H368z"/>
		<path d="M372.1,46.8c0.1-0.5,0.4-0.9,0.7-1.2s0.7-0.6,1.1-0.8s0.9-0.3,1.5-0.3s1.1,0.1,1.5,0.3s0.8,0.5,1.1,0.8
			c0.3,0.3,0.5,0.7,0.7,1.2c0.1,0.5,0.2,1,0.2,1.5s-0.1,1-0.2,1.5s-0.4,0.9-0.7,1.2c-0.3,0.3-0.7,0.6-1.1,0.8s-0.9,0.3-1.5,0.3
			s-1.1-0.1-1.5-0.3s-0.8-0.5-1.1-0.8s-0.5-0.7-0.7-1.2c-0.1-0.5-0.2-1-0.2-1.5C371.9,47.7,372,47.2,372.1,46.8z M373.3,49.4
			c0.1,0.3,0.3,0.6,0.5,0.9s0.4,0.4,0.7,0.5c0.3,0.1,0.6,0.2,0.9,0.2s0.6-0.1,0.9-0.2c0.3-0.1,0.5-0.3,0.7-0.5s0.4-0.5,0.5-0.9
			c0.1-0.3,0.2-0.7,0.2-1.2c0-0.4-0.1-0.8-0.2-1.2c-0.1-0.3-0.3-0.6-0.5-0.9c-0.2-0.2-0.4-0.4-0.7-0.5c-0.3-0.1-0.6-0.2-0.9-0.2
			s-0.6,0.1-0.9,0.2c-0.3,0.1-0.5,0.3-0.7,0.5s-0.4,0.5-0.5,0.9s-0.2,0.7-0.2,1.2S373.2,49.1,373.3,49.4z"/>
		<path d="M381.4,44.6v1.5l0,0c0.3-0.6,0.6-1,1.1-1.3c0.4-0.3,1-0.4,1.6-0.4v1.3c-0.5,0-0.9,0.1-1.2,0.2s-0.6,0.3-0.8,0.6
			c-0.2,0.3-0.4,0.6-0.4,0.9s-0.1,0.8-0.1,1.2v3.2h-1.2v-7.2H381.4z"/>
		<path d="M386.2,41.9v5.9l3.3-3.2h1.6l-2.9,2.6l3.1,4.6h-1.5l-2.5-3.8l-1.1,1v2.7H385v-10h1.2V41.9z"/>
		<path d="M393.5,44.6v1l0,0c0.2-0.4,0.5-0.7,0.9-0.9s0.9-0.3,1.4-0.3c0.6,0,1,0.1,1.5,0.3c0.4,0.2,0.8,0.5,1,0.8
			c0.3,0.3,0.5,0.8,0.6,1.2c0.1,0.5,0.2,0.9,0.2,1.5c0,0.5-0.1,1-0.2,1.5s-0.3,0.9-0.6,1.2c-0.3,0.3-0.6,0.6-1,0.8s-0.9,0.3-1.4,0.3
			c-0.2,0-0.4,0-0.6-0.1s-0.4-0.1-0.7-0.2c-0.2-0.1-0.4-0.2-0.6-0.3s-0.4-0.3-0.5-0.5l0,0v3.7h-1.2v-10H393.5z M397.8,47.2
			c-0.1-0.3-0.2-0.6-0.4-0.9s-0.4-0.5-0.7-0.6s-0.6-0.2-1-0.2s-0.7,0.1-1,0.2c-0.3,0.2-0.5,0.4-0.7,0.6s-0.3,0.5-0.4,0.9
			c-0.1,0.3-0.1,0.7-0.1,1c0,0.4,0,0.7,0.1,1s0.2,0.6,0.4,0.9c0.2,0.3,0.4,0.5,0.7,0.6c0.3,0.2,0.6,0.2,1.1,0.2c0.4,0,0.8-0.1,1-0.2
			c0.3-0.2,0.5-0.4,0.7-0.6c0.2-0.3,0.3-0.6,0.4-0.9c0.1-0.3,0.1-0.7,0.1-1C397.9,47.9,397.8,47.5,397.8,47.2z"/>
		<path d="M401.8,41.9v10h-1.2v-10H401.8z"/>
		<path d="M410.1,51.8c-0.2,0.1-0.5,0.2-0.9,0.2c-0.3,0-0.6-0.1-0.7-0.3c-0.2-0.2-0.3-0.5-0.3-0.8c-0.3,0.4-0.7,0.7-1.1,0.8
			c-0.4,0.2-0.9,0.3-1.4,0.3c-0.3,0-0.6,0-0.9-0.1s-0.5-0.2-0.8-0.3c-0.2-0.2-0.4-0.4-0.5-0.6s-0.2-0.6-0.2-0.9c0-0.4,0.1-0.7,0.2-1
			s0.3-0.5,0.6-0.6c0.2-0.2,0.5-0.3,0.8-0.4c0.3-0.1,0.6-0.2,0.9-0.2c0.3-0.1,0.6-0.1,0.9-0.1s0.6-0.1,0.8-0.1s0.4-0.1,0.5-0.3
			c0.1-0.1,0.2-0.3,0.2-0.5c0-0.3,0-0.5-0.1-0.6c-0.1-0.2-0.2-0.3-0.4-0.4c-0.2-0.1-0.3-0.1-0.5-0.2c-0.2,0-0.4,0-0.6,0
			c-0.5,0-0.9,0.1-1.3,0.3c-0.3,0.2-0.5,0.6-0.5,1.1h-1.2c0-0.4,0.1-0.8,0.3-1.1c0.2-0.3,0.4-0.6,0.7-0.7c0.3-0.2,0.6-0.3,1-0.4
			s0.7-0.1,1.2-0.1c0.3,0,0.7,0,1,0.1c0.3,0,0.6,0.1,0.9,0.3c0.3,0.1,0.5,0.3,0.6,0.6c0.2,0.3,0.2,0.6,0.2,1v3.7c0,0.3,0,0.5,0,0.6
			s0.1,0.2,0.3,0.2c0.1,0,0.2,0,0.4-0.1v0.6H410.1z M408.1,48.1c-0.1,0.1-0.3,0.2-0.6,0.2s-0.5,0.1-0.8,0.1s-0.5,0.1-0.8,0.1
			s-0.5,0.1-0.7,0.2c-0.2,0.1-0.4,0.2-0.5,0.4s-0.2,0.4-0.2,0.7c0,0.2,0,0.4,0.1,0.5s0.2,0.2,0.3,0.3c0.1,0.1,0.3,0.1,0.4,0.2
			s0.3,0.1,0.5,0.1c0.4,0,0.7-0.1,1-0.2c0.3-0.1,0.5-0.2,0.7-0.4s0.3-0.3,0.4-0.5s0.1-0.4,0.1-0.5v-1.2
			C408,48.1,408.1,48.1,408.1,48.1z"/>
		<path d="M415.5,45.9c-0.3-0.3-0.7-0.4-1.2-0.4c-0.4,0-0.8,0.1-1.1,0.2c-0.3,0.2-0.5,0.4-0.7,0.6c-0.2,0.3-0.3,0.6-0.4,0.9
			c-0.1,0.3-0.1,0.7-0.1,1.1c0,0.3,0,0.7,0.1,1s0.2,0.6,0.4,0.8c0.2,0.2,0.4,0.4,0.7,0.6c0.3,0.1,0.6,0.2,1,0.2c0.6,0,1-0.2,1.4-0.5
			c0.3-0.3,0.5-0.7,0.6-1.3h1.2c-0.1,0.9-0.5,1.6-1,2.1s-1.3,0.7-2.2,0.7c-0.6,0-1-0.1-1.5-0.3c-0.4-0.2-0.8-0.4-1.1-0.8
			c-0.3-0.3-0.5-0.7-0.6-1.2s-0.2-0.9-0.2-1.5c0-0.5,0.1-1,0.2-1.5s0.4-0.9,0.6-1.2c0.3-0.3,0.6-0.6,1.1-0.8
			c0.4-0.2,0.9-0.3,1.5-0.3c0.4,0,0.8,0,1.2,0.1c0.4,0.1,0.7,0.2,1,0.5s0.5,0.5,0.7,0.8s0.3,0.7,0.3,1.1h-1.2
			C416,46.5,415.8,46.1,415.5,45.9z"/>
		<path d="M423.8,51.4c-0.5,0.4-1.2,0.6-2,0.6c-0.6,0-1.1-0.1-1.5-0.3s-0.8-0.4-1.1-0.8c-0.3-0.3-0.5-0.7-0.7-1.2s-0.2-1-0.2-1.5
			c0-0.6,0.1-1.1,0.3-1.5c0.2-0.5,0.4-0.9,0.7-1.2c0.3-0.3,0.7-0.6,1.1-0.8s0.9-0.3,1.4-0.3c0.6,0,1.2,0.1,1.6,0.4
			c0.4,0.3,0.8,0.6,1,1c0.3,0.4,0.4,0.9,0.5,1.3c0.1,0.5,0.1,0.9,0.1,1.4h-5.4c0,0.3,0,0.6,0.1,0.9c0.1,0.3,0.2,0.5,0.4,0.8
			c0.2,0.2,0.4,0.4,0.7,0.5s0.6,0.2,1,0.2c0.5,0,0.9-0.1,1.2-0.4c0.3-0.2,0.5-0.6,0.6-1.1h1.2C424.7,50.4,424.4,51,423.8,51.4z
			 M423.5,46.8c-0.1-0.3-0.3-0.5-0.4-0.7c-0.2-0.2-0.4-0.3-0.6-0.4c-0.2-0.1-0.5-0.2-0.8-0.2s-0.6,0.1-0.8,0.2
			c-0.2,0.1-0.5,0.3-0.6,0.4c-0.2,0.2-0.3,0.4-0.4,0.7c-0.1,0.2-0.2,0.5-0.2,0.8h4.2C423.7,47.3,423.6,47,423.5,46.8z"/>
		<path d="M431.7,41.9v10h-1.3v-10H431.7z"/>
		<path d="M435,41.9v10h-1.2v-10H435z"/>
		<path d="M438.1,41.9v10h-1.2v-10H438.1z"/>
		<path d="M441.1,44.6v1.1l0,0c0.5-0.9,1.3-1.3,2.4-1.3c0.5,0,0.9,0.1,1.2,0.2s0.6,0.3,0.8,0.5c0.2,0.2,0.3,0.5,0.4,0.8
			s0.1,0.7,0.1,1.1v4.8h-1.3V47c0-0.4-0.1-0.8-0.4-1.1s-0.6-0.4-1.1-0.4c-0.4,0-0.7,0.1-0.9,0.2c-0.3,0.1-0.5,0.3-0.7,0.5
			s-0.3,0.4-0.4,0.7s-0.1,0.6-0.1,0.9v4.1h-1.2v-7.2h1.2V44.6z"/>
		<path d="M452.8,51.4c-0.5,0.4-1.2,0.6-2,0.6c-0.6,0-1.1-0.1-1.5-0.3s-0.8-0.4-1.1-0.8c-0.3-0.3-0.5-0.7-0.7-1.2s-0.2-1-0.2-1.5
			c0-0.6,0.1-1.1,0.3-1.5c0.2-0.5,0.4-0.9,0.7-1.2c0.3-0.3,0.7-0.6,1.1-0.8s0.9-0.3,1.4-0.3c0.6,0,1.2,0.1,1.6,0.4
			c0.4,0.3,0.8,0.6,1,1c0.3,0.4,0.4,0.9,0.5,1.3c0.1,0.5,0.1,0.9,0.1,1.4h-5.4c0,0.3,0,0.6,0.1,0.9c0.1,0.3,0.2,0.5,0.4,0.8
			c0.2,0.2,0.4,0.4,0.7,0.5s0.6,0.2,1,0.2c0.5,0,0.9-0.1,1.2-0.4c0.3-0.2,0.5-0.6,0.6-1.1h1.2C453.7,50.4,453.4,51,452.8,51.4z
			 M452.6,46.8c-0.1-0.3-0.3-0.5-0.4-0.7c-0.2-0.2-0.4-0.3-0.6-0.4c-0.2-0.1-0.5-0.2-0.8-0.2s-0.6,0.1-0.8,0.2
			c-0.2,0.1-0.5,0.3-0.6,0.4c-0.2,0.2-0.3,0.4-0.4,0.7c-0.1,0.2-0.2,0.5-0.2,0.8h4.2C452.7,47.3,452.7,47,452.6,46.8z"/>
		<path d="M456.2,50.3c0.1,0.2,0.3,0.3,0.4,0.4c0.2,0.1,0.4,0.2,0.6,0.2s0.5,0.1,0.7,0.1s0.4,0,0.6,0s0.4-0.1,0.6-0.2
			c0.2-0.1,0.3-0.2,0.4-0.3s0.2-0.3,0.2-0.6s-0.1-0.5-0.3-0.7c-0.2-0.2-0.5-0.3-0.9-0.4s-0.7-0.2-1.1-0.3s-0.8-0.2-1.1-0.3
			c-0.3-0.1-0.6-0.3-0.9-0.6s-0.3-0.6-0.3-1.1c0-0.4,0.1-0.7,0.2-0.9c0.2-0.3,0.4-0.5,0.6-0.6s0.5-0.3,0.9-0.4
			c0.3-0.1,0.6-0.1,1-0.1s0.8,0,1.1,0.1c0.3,0.1,0.7,0.2,0.9,0.4c0.3,0.2,0.5,0.4,0.6,0.7c0.2,0.3,0.3,0.7,0.3,1.1h-1.2
			c0-0.2-0.1-0.4-0.2-0.6c-0.1-0.2-0.2-0.3-0.4-0.4c-0.2-0.1-0.3-0.2-0.5-0.2s-0.4-0.1-0.6-0.1s-0.4,0-0.5,0c-0.2,0-0.3,0.1-0.5,0.1
			s-0.3,0.2-0.4,0.3s-0.1,0.3-0.1,0.5s0.1,0.4,0.2,0.5s0.3,0.2,0.6,0.3c0.2,0.1,0.5,0.2,0.8,0.2c0.3,0.1,0.6,0.1,0.8,0.2
			c0.3,0.1,0.6,0.1,0.9,0.2c0.3,0.1,0.5,0.2,0.8,0.4c0.2,0.2,0.4,0.3,0.5,0.6c0.1,0.2,0.2,0.5,0.2,0.9s-0.1,0.8-0.3,1.1
			c-0.2,0.3-0.4,0.5-0.7,0.7c-0.3,0.2-0.6,0.3-1,0.4S458.4,52,458,52s-0.8,0-1.1-0.1s-0.7-0.2-1-0.4s-0.5-0.4-0.7-0.8
			s-0.3-0.7-0.3-1.1h1.2C456,49.9,456,50.1,456.2,50.3z"/>
		<path d="M463.2,50.3c0.1,0.2,0.3,0.3,0.4,0.4c0.2,0.1,0.4,0.2,0.6,0.2s0.5,0.1,0.7,0.1s0.4,0,0.6,0s0.4-0.1,0.6-0.2
			c0.2-0.1,0.3-0.2,0.4-0.3s0.2-0.3,0.2-0.6s-0.1-0.5-0.3-0.7c-0.2-0.2-0.5-0.3-0.9-0.4s-0.7-0.2-1.1-0.3s-0.8-0.2-1.1-0.3
			c-0.3-0.1-0.6-0.3-0.9-0.6s-0.3-0.6-0.3-1.1c0-0.4,0.1-0.7,0.2-0.9c0.2-0.3,0.4-0.5,0.6-0.6s0.5-0.3,0.9-0.4
			c0.3-0.1,0.6-0.1,1-0.1s0.8,0,1.1,0.1c0.3,0.1,0.7,0.2,0.9,0.4c0.3,0.2,0.5,0.4,0.6,0.7c0.2,0.3,0.3,0.7,0.3,1.1h-1.2
			c0-0.2-0.1-0.4-0.2-0.6c-0.1-0.2-0.2-0.3-0.4-0.4c-0.2-0.1-0.3-0.2-0.5-0.2s-0.4-0.1-0.6-0.1s-0.4,0-0.5,0c-0.2,0-0.3,0.1-0.5,0.1
			s-0.3,0.2-0.4,0.3s-0.1,0.3-0.1,0.5s0.1,0.4,0.2,0.5s0.3,0.2,0.6,0.3c0.2,0.1,0.5,0.2,0.8,0.2c0.3,0.1,0.6,0.1,0.8,0.2
			c0.3,0.1,0.6,0.1,0.9,0.2c0.3,0.1,0.5,0.2,0.8,0.4c0.2,0.2,0.4,0.3,0.5,0.6c0.1,0.2,0.2,0.5,0.2,0.9s-0.1,0.8-0.3,1.1
			c-0.2,0.3-0.4,0.5-0.7,0.7c-0.3,0.2-0.6,0.3-1,0.4S465.4,52,465,52s-0.8,0-1.1-0.1s-0.7-0.2-1-0.4s-0.5-0.4-0.7-0.8
			s-0.3-0.7-0.3-1.1h1.2C463,49.9,463,50.1,463.2,50.3z"/>
		<path d="M474.4,51.4c-0.5,0.4-1.2,0.6-2,0.6c-0.6,0-1.1-0.1-1.5-0.3s-0.8-0.4-1.1-0.8s-0.5-0.7-0.7-1.2c-0.1-0.5-0.2-1-0.2-1.5
			c0-0.6,0.1-1.1,0.3-1.5c0.2-0.5,0.4-0.9,0.7-1.2c0.3-0.3,0.7-0.6,1.1-0.8s0.9-0.3,1.4-0.3c0.6,0,1.2,0.1,1.6,0.4
			c0.4,0.3,0.8,0.6,1,1c0.3,0.4,0.4,0.9,0.5,1.3c0.1,0.5,0.1,0.9,0.1,1.4h-5.4c0,0.3,0,0.6,0.1,0.9c0.1,0.3,0.2,0.5,0.4,0.8
			c0.2,0.2,0.4,0.4,0.7,0.5c0.3,0.1,0.6,0.2,1,0.2c0.5,0,0.9-0.1,1.2-0.4c0.3-0.2,0.5-0.6,0.6-1.1h1.2
			C475.3,50.4,474.9,51,474.4,51.4z M474.1,46.8c-0.1-0.3-0.3-0.5-0.4-0.7c-0.2-0.2-0.4-0.3-0.6-0.4c-0.2-0.1-0.5-0.2-0.8-0.2
			s-0.6,0.1-0.8,0.2c-0.2,0.1-0.5,0.3-0.6,0.4c-0.2,0.2-0.3,0.4-0.4,0.7c-0.1,0.2-0.2,0.5-0.2,0.8h4.2
			C474.2,47.3,474.2,47,474.1,46.8z"/>
		<path d="M477.7,50.3c0.1,0.2,0.3,0.3,0.4,0.4c0.2,0.1,0.4,0.2,0.6,0.2s0.5,0.1,0.7,0.1s0.4,0,0.6,0s0.4-0.1,0.6-0.2
			c0.2-0.1,0.3-0.2,0.4-0.3s0.2-0.3,0.2-0.6s-0.1-0.5-0.3-0.7c-0.2-0.2-0.5-0.3-0.9-0.4s-0.7-0.2-1.1-0.3s-0.8-0.2-1.1-0.3
			c-0.3-0.1-0.6-0.3-0.9-0.6s-0.3-0.6-0.3-1.1c0-0.4,0.1-0.7,0.2-0.9c0.2-0.3,0.4-0.5,0.6-0.6s0.5-0.3,0.9-0.4
			c0.3-0.1,0.6-0.1,1-0.1s0.8,0,1.1,0.1c0.3,0.1,0.7,0.2,0.9,0.4c0.3,0.2,0.5,0.4,0.6,0.7c0.2,0.3,0.3,0.7,0.3,1.1H481
			c0-0.2-0.1-0.4-0.2-0.6c-0.1-0.2-0.2-0.3-0.4-0.4c-0.2-0.1-0.3-0.2-0.5-0.2s-0.4-0.1-0.6-0.1s-0.4,0-0.5,0c-0.2,0-0.3,0.1-0.5,0.1
			s-0.3,0.2-0.4,0.3s-0.1,0.3-0.1,0.5s0.1,0.4,0.2,0.5s0.3,0.2,0.6,0.3c0.2,0.1,0.5,0.2,0.8,0.2c0.3,0.1,0.6,0.1,0.8,0.2
			c0.3,0.1,0.6,0.1,0.9,0.2c0.3,0.1,0.5,0.2,0.8,0.4c0.2,0.2,0.4,0.3,0.5,0.6c0.1,0.2,0.2,0.5,0.2,0.9s-0.1,0.8-0.3,1.1
			c-0.2,0.3-0.4,0.5-0.7,0.7c-0.3,0.2-0.6,0.3-1,0.4s-0.9,0.1-1.2,0.1c-0.4,0-0.8,0-1.1-0.1s-0.7-0.2-1-0.4s-0.5-0.4-0.7-0.8
			s-0.3-0.7-0.3-1.1h1.2C477.5,49.9,477.6,50.1,477.7,50.3z"/>
		<path d="M494.1,51.8c-0.2,0.1-0.5,0.2-0.9,0.2c-0.3,0-0.6-0.1-0.7-0.3c-0.2-0.2-0.3-0.5-0.3-0.8c-0.3,0.4-0.7,0.7-1.1,0.8
			c-0.4,0.2-0.9,0.3-1.4,0.3c-0.3,0-0.6,0-0.9-0.1s-0.5-0.2-0.8-0.3c-0.2-0.2-0.4-0.4-0.5-0.6s-0.2-0.6-0.2-0.9c0-0.4,0.1-0.7,0.2-1
			s0.3-0.5,0.6-0.6c0.2-0.2,0.5-0.3,0.8-0.4c0.3-0.1,0.6-0.2,0.9-0.2c0.3-0.1,0.6-0.1,0.9-0.1s0.6-0.1,0.8-0.1
			c0.2-0.1,0.4-0.1,0.5-0.3c0.1-0.1,0.2-0.3,0.2-0.5c0-0.3,0-0.5-0.1-0.6c-0.1-0.2-0.2-0.3-0.4-0.4c-0.2-0.1-0.3-0.1-0.5-0.2
			c-0.2,0-0.4,0-0.6,0c-0.5,0-0.9,0.1-1.3,0.3c-0.3,0.2-0.5,0.6-0.5,1.1h-1.2c0-0.4,0.1-0.8,0.3-1.1c0.2-0.3,0.4-0.6,0.7-0.7
			s0.6-0.3,1-0.4s0.7-0.1,1.2-0.1c0.3,0,0.7,0,1,0.1s0.6,0.1,0.9,0.3c0.3,0.1,0.5,0.3,0.6,0.6s0.2,0.6,0.2,1v3.7c0,0.3,0,0.5,0,0.6
			s0.1,0.2,0.3,0.2c0.1,0,0.2,0,0.4-0.1v0.6H494.1z M492.1,48.1c-0.1,0.1-0.3,0.2-0.6,0.2c-0.2,0.1-0.5,0.1-0.8,0.1
			s-0.5,0.1-0.8,0.1s-0.5,0.1-0.7,0.2s-0.4,0.2-0.5,0.4s-0.2,0.4-0.2,0.7c0,0.2,0,0.4,0.1,0.5s0.2,0.2,0.3,0.3
			c0.1,0.1,0.3,0.1,0.4,0.2s0.3,0.1,0.5,0.1c0.4,0,0.7-0.1,1-0.2c0.3-0.1,0.5-0.2,0.7-0.4s0.3-0.3,0.4-0.5s0.1-0.4,0.1-0.5v-1.2
			C492,48.1,492.1,48.1,492.1,48.1z"/>
		<path d="M496.3,44.6v1.1l0,0c0.5-0.9,1.3-1.3,2.4-1.3c0.5,0,0.9,0.1,1.2,0.2s0.6,0.3,0.8,0.5c0.2,0.2,0.3,0.5,0.4,0.8
			s0.1,0.7,0.1,1.1v4.8H500V47c0-0.4-0.1-0.8-0.4-1.1s-0.6-0.4-1.1-0.4c-0.4,0-0.7,0.1-0.9,0.2c-0.3,0.1-0.5,0.3-0.7,0.5
			s-0.3,0.4-0.4,0.7s-0.1,0.6-0.1,0.9v4.1h-1.2v-7.2h1.1V44.6z"/>
		<path d="M508.2,51.9v-1l0,0c-0.2,0.4-0.5,0.7-0.9,0.9s-0.9,0.3-1.4,0.3c-0.6,0-1-0.1-1.5-0.3s-0.8-0.5-1-0.8
			c-0.3-0.3-0.5-0.7-0.6-1.2s-0.2-0.9-0.2-1.5c0-0.5,0.1-1,0.2-1.5s0.3-0.9,0.6-1.2s0.6-0.6,1-0.8s0.9-0.3,1.4-0.3
			c0.2,0,0.4,0,0.6,0.1s0.4,0.1,0.6,0.2c0.2,0.1,0.4,0.2,0.6,0.4c0.2,0.1,0.4,0.3,0.5,0.5l0,0V42h1.2v10L508.2,51.9L508.2,51.9
			L508.2,51.9z M504,49.3c0.1,0.3,0.2,0.6,0.4,0.9c0.2,0.3,0.4,0.5,0.7,0.6s0.6,0.2,1,0.2s0.7-0.1,1-0.2c0.3-0.2,0.5-0.4,0.7-0.6
			c0.2-0.3,0.3-0.5,0.4-0.9c0.1-0.3,0.1-0.7,0.1-1c0-0.4,0-0.7-0.1-1s-0.2-0.6-0.4-0.9c-0.2-0.3-0.4-0.5-0.7-0.6s-0.6-0.2-1-0.2
			s-0.7,0.1-1,0.2c-0.3,0.2-0.5,0.4-0.7,0.6c-0.2,0.3-0.3,0.6-0.4,0.9c-0.1,0.3-0.1,0.7-0.1,1C503.8,48.7,503.9,49,504,49.3z"/>
		<path d="M516.7,41.9v10h-1.3v-10H516.7z"/>
		<path d="M519.9,44.6v1.1l0,0c0.5-0.9,1.3-1.3,2.4-1.3c0.5,0,0.9,0.1,1.2,0.2s0.6,0.3,0.8,0.5s0.3,0.5,0.4,0.8s0.1,0.7,0.1,1.1v4.8
			h-1.2V47c0-0.4-0.1-0.8-0.4-1.1s-0.6-0.4-1.1-0.4c-0.4,0-0.7,0.1-0.9,0.2c-0.3,0.1-0.5,0.3-0.7,0.5s-0.3,0.4-0.4,0.7
			s-0.1,0.6-0.1,0.9v4.1h-1.2v-7.2h1.1L519.9,44.6L519.9,44.6z"/>
		<path d="M527.3,54.2c-0.3,0.3-0.7,0.4-1.3,0.4c-0.2,0-0.4,0-0.6-0.1v-1h0.1h0.1h0.3c0.3,0,0.4-0.1,0.5-0.2
			c0.1-0.1,0.1-0.4,0.1-0.8v-8h1.2v8.1C527.8,53.4,527.7,53.9,527.3,54.2z M526.6,43.3v-1.5h1.2v1.5H526.6z"/>
		<path d="M534.5,51.9v-1.1l0,0c-0.3,0.4-0.6,0.8-1,1s-0.9,0.3-1.4,0.3s-0.9-0.1-1.2-0.2c-0.3-0.1-0.6-0.3-0.8-0.5s-0.3-0.5-0.4-0.8
			c-0.1-0.3-0.1-0.7-0.1-1.1v-4.8h1.2v4.9c0,0.4,0.1,0.8,0.4,1.1c0.3,0.3,0.6,0.4,1.1,0.4c0.4,0,0.7-0.1,0.9-0.2
			c0.3-0.1,0.5-0.3,0.7-0.5s0.3-0.4,0.4-0.7s0.1-0.6,0.1-0.9v-4.1h1.2v7.2C535.6,51.9,534.5,51.9,534.5,51.9z"/>
		<path d="M538.5,44.6v1.5l0,0c0.3-0.6,0.6-1,1.1-1.3c0.4-0.3,1-0.4,1.6-0.4v1.3c-0.5,0-0.9,0.1-1.2,0.2s-0.6,0.3-0.8,0.6
			s-0.4,0.6-0.4,0.9c-0.1,0.4-0.1,0.8-0.1,1.2v3.2h-1.2v-7.2H538.5z"/>
		<path d="M542.2,43.3v-1.5h1.2v1.5H542.2z M543.4,44.6v7.2h-1.2v-7.2H543.4z"/>
		<path d="M550.3,51.4c-0.5,0.4-1.2,0.6-2,0.6c-0.6,0-1.1-0.1-1.5-0.3s-0.8-0.4-1.1-0.8s-0.5-0.7-0.7-1.2c-0.1-0.5-0.2-1-0.2-1.5
			c0-0.6,0.1-1.1,0.3-1.5c0.2-0.5,0.4-0.9,0.7-1.2s0.7-0.6,1.1-0.8c0.4-0.2,0.9-0.3,1.4-0.3c0.6,0,1.2,0.1,1.6,0.4
			c0.4,0.3,0.8,0.6,1,1c0.3,0.4,0.4,0.9,0.5,1.3c0.1,0.5,0.1,0.9,0.1,1.4h-5.4c0,0.3,0,0.6,0.1,0.9c0.1,0.3,0.2,0.5,0.4,0.8
			c0.2,0.2,0.4,0.4,0.7,0.5s0.6,0.2,1,0.2c0.5,0,0.9-0.1,1.2-0.4c0.3-0.2,0.5-0.6,0.6-1.1h1.2C551.2,50.4,550.9,51,550.3,51.4z
			 M550.1,46.8c-0.1-0.3-0.3-0.5-0.4-0.7c-0.2-0.2-0.4-0.3-0.6-0.4c-0.2-0.1-0.5-0.2-0.8-0.2s-0.6,0.1-0.8,0.2
			c-0.2,0.1-0.5,0.3-0.6,0.4c-0.2,0.2-0.3,0.4-0.4,0.7c-0.1,0.2-0.2,0.5-0.2,0.8h4.2C550.2,47.3,550.2,47,550.1,46.8z"/>
		<path d="M553.6,50.3c0.1,0.2,0.3,0.3,0.4,0.4c0.2,0.1,0.4,0.2,0.6,0.2c0.2,0,0.5,0.1,0.7,0.1s0.4,0,0.6,0c0.2,0,0.4-0.1,0.6-0.2
			c0.2-0.1,0.3-0.2,0.4-0.3c0.1-0.1,0.2-0.3,0.2-0.6s-0.1-0.5-0.3-0.7s-0.5-0.3-0.9-0.4s-0.7-0.2-1.1-0.3c-0.4-0.1-0.8-0.2-1.1-0.3
			s-0.6-0.3-0.9-0.6s-0.3-0.6-0.3-1.1c0-0.4,0.1-0.7,0.2-0.9c0.2-0.3,0.4-0.5,0.6-0.6s0.5-0.3,0.9-0.4c0.3-0.1,0.6-0.1,1-0.1
			s0.8,0,1.1,0.1s0.7,0.2,0.9,0.4c0.3,0.2,0.5,0.4,0.6,0.7c0.2,0.3,0.3,0.7,0.3,1.1h-1.2c0-0.2-0.1-0.4-0.2-0.6
			c-0.1-0.2-0.2-0.3-0.4-0.4c-0.2-0.1-0.3-0.2-0.5-0.2s-0.4-0.1-0.6-0.1c-0.2,0-0.4,0-0.5,0c-0.2,0-0.3,0.1-0.5,0.1
			s-0.3,0.2-0.4,0.3c-0.1,0.1-0.1,0.3-0.1,0.5s0.1,0.4,0.2,0.5s0.3,0.2,0.6,0.3c0.2,0.1,0.5,0.2,0.8,0.2c0.3,0.1,0.6,0.1,0.8,0.2
			c0.3,0.1,0.6,0.1,0.9,0.2c0.3,0.1,0.5,0.2,0.8,0.4c0.2,0.2,0.4,0.3,0.5,0.6c0.1,0.2,0.2,0.5,0.2,0.9s-0.1,0.8-0.3,1.1
			s-0.4,0.5-0.7,0.7s-0.6,0.3-1,0.4s-0.8,0.1-1.2,0.1s-0.8,0-1.1-0.1s-0.7-0.2-1-0.4s-0.5-0.4-0.7-0.8s-0.3-0.7-0.3-1.1h1.2
			C553.5,49.9,553.5,50.1,553.6,50.3z"/>
	</g>
	<path d="M596.6,6.1h39.9l-15.3,47.1h-39.9L596.6,6.1L596.6,6.1z M583.8,51.4h10.8l5.7-17.4l6.8,17.4H620l9.7-29.6h-11.1L613,38.9
		l-5.9-17.1h-13.6L583.8,51.4z"/>
	<g>
		<path d="M678.9,25c-2.5-2.6-7-3.9-13.6-3.9s-12,1.3-16.2,3.9c-4.2,2.7-7.1,6.6-8.8,11.7s-1.3,9,1.2,11.6c2.5,2.6,7,3.9,13.6,3.9
			s12-1.3,16.2-3.9c4.2-2.6,7.1-6.5,8.8-11.6C681.8,31.5,681.4,27.7,678.9,25z M667.8,36.9c-0.9,2.6-2.2,4.5-3.9,5.9
			c-1.7,1.3-3.8,2-6.3,2s-4.1-0.6-5-2c-0.8-1.3-0.8-3.3,0-5.9c0.9-2.6,2.2-4.5,3.9-6c1.7-1.4,3.8-2.1,6.3-2.1s4.1,0.7,5,2.1
			C668.6,32.3,668.6,34.3,667.8,36.9z"/>
		<polygon points="633.1,22.4 623.4,52 634.9,52 644.6,22.4 		"/>
		<path d="M715.1,36.2c-1.1-1.5-3.3-2.4-6.4-2.9l-10-1.5c-1.7-0.2-2.8-0.5-3.3-0.8c-0.4-0.3-0.6-0.7-0.4-1.3c0.2-0.6,0.8-1,1.6-1.4
			c0.8-0.3,1.9-0.5,3.2-0.5c1.8,0,3.1,0.2,3.9,0.7s1.2,1.2,1,2.1H718c0.8-3.2-0.1-5.6-2.6-7.1s-6.8-2.3-13-2.3
			c-5.9,0-10.5,0.8-13.7,2.3c-3.2,1.6-5.3,4-6.4,7.3c-0.8,2.5-0.5,4.5,0.8,6s3.7,2.5,7.1,2.9l8.2,1.1c1.3,0.1,2.3,0.4,2.8,0.8
			c0.5,0.4,0.7,0.9,0.5,1.5c-0.3,0.7-0.8,1.2-1.7,1.6c-0.8,0.3-2.1,0.5-3.6,0.5c-1.6,0-2.7-0.3-3.5-0.7c-0.8-0.5-1.1-1.1-0.9-1.9
			h-13.9c-1,3.2-0.3,5.7,2,7.3c2.4,1.7,6.4,2.6,11.9,2.6c6.9,0,12.3-0.8,16.1-2.5s6.3-4.4,7.5-8C716.4,39.5,716.2,37.5,715.1,36.2z"
			/>
		<polygon points="747.2,21.9 743.9,32.2 730.8,32.2 734.1,21.9 722.6,21.9 712.9,51.5 724.4,51.5 728.3,39.5 741.4,39.5
			737.5,51.5 749,51.5 758.7,21.9 		"/>
	</g>
	<g>
		<g id="zqH2mD.tif">
			<g>
				<g>
					<path d="M763,25.4c0.1,0,0.1,0,0.2,0.1c0.1,0.1,0.2,0.1,0.2,0.2c0.1,0.1,0.1,0.2,0.2,0.3c0.2,0.3,0.3,0.6,0.5,1c0,0,0,0,0,0
						c0,0,0,0,0,0c-0.3,0-0.6,0-0.9,0c0,0,0,0,0,0c-0.1-0.3-0.3-0.6-0.4-0.9c0-0.1-0.1-0.2-0.2-0.3c-0.1-0.1-0.2-0.2-0.3-0.2
						c-0.1,0-0.2,0-0.4,0c0,0,0,0,0,0c0,0.4,0,0.9,0,1.3c-0.3,0-0.6,0-0.9,0c0-1.1,0-2.3,0-3.4c0,0,0,0,0,0c0.4,0,0.9,0,1.3,0
						c0.2,0,0.3,0,0.5,0c0.1,0,0.3,0.1,0.4,0.1c0.2,0.1,0.3,0.3,0.4,0.5c0.1,0.2,0.1,0.4,0,0.6c-0.1,0.2-0.2,0.4-0.4,0.5
						C763.1,25.3,763.1,25.4,763,25.4C763,25.4,763,25.4,763,25.4z M761.8,25.1C761.8,25.1,761.8,25.1,761.8,25.1c0.1,0,0.3,0,0.4,0
						c0.1,0,0.2,0,0.3,0c0.1,0,0.2-0.1,0.2-0.2c0-0.1,0-0.2,0-0.3c0-0.1-0.1-0.2-0.2-0.2c-0.1,0-0.2,0-0.2,0c-0.1,0-0.3,0-0.4,0
						c0,0,0,0,0,0C761.8,24.5,761.8,24.8,761.8,25.1z"/>
				</g>
			</g>
		</g>
		<g>
			<path d="M762.5,28.5c-1.8,0-3.2-1.4-3.2-3.2s1.4-3.2,3.2-3.2s3.2,1.4,3.2,3.2S764.3,28.5,762.5,28.5z M762.5,22.6
				c-1.5,0-2.7,1.2-2.7,2.7c0,1.5,1.2,2.7,2.7,2.7s2.7-1.2,2.7-2.7C765.2,23.8,764,22.6,762.5,22.6z"/>
		</g>
	</g>
</g>
</svg>
