<?xml version="1.0" encoding="utf-8"?>
<!-- Generator: Adobe Illustrator 18.0.0, SVG Export Plug-In . SVG Version: 6.00 Build 0)  -->
<!DOCTYPE svg PUBLIC "-//W3C//DTD SVG 1.1//EN" "http://www.w3.org/Graphics/SVG/1.1/DTD/svg11.dtd">
<svg version="1.1" id="Layer_1" xmlns="http://www.w3.org/2000/svg" xmlns:xlink="http://www.w3.org/1999/xlink" x="0px" y="0px"
	 viewBox="0 0 950 70" enable-background="new 0 0 950 70" xml:space="preserve" width="950" height="70">
<g enable-background="new    ">
	<path d="M489.5,31.9c1,0,1.8,0.3,2.3,0.8s0.8,1.2,0.8,2.2s-0.3,1.7-0.8,2.2s-1.3,0.8-2.3,0.8h-3.1V42h-1.3V32h4.4V31.9z
		 M489.1,36.7c0.8,0,1.3-0.1,1.7-0.5s0.5-0.8,0.5-1.4s-0.2-1.1-0.5-1.4c-0.4-0.3-0.9-0.5-1.7-0.5h-2.6v3.7h2.6V36.7z"/>
	<path d="M495.1,34.6v1.5l0,0c0.3-0.6,0.6-1,1.1-1.3c0.4-0.3,1-0.4,1.6-0.4v1.3c-0.5,0-0.9,0.1-1.2,0.2s-0.6,0.3-0.8,0.6
		c-0.2,0.3-0.4,0.6-0.4,0.9s-0.1,0.8-0.1,1.2v3.2H494v-7.2H495.1z"/>
	<path d="M498.3,36.8c0.1-0.5,0.4-0.9,0.7-1.2s0.7-0.6,1.1-0.8s0.9-0.3,1.5-0.3s1.1,0.1,1.5,0.3s0.8,0.5,1.1,0.8
		c0.3,0.3,0.5,0.7,0.7,1.2c0.1,0.5,0.2,1,0.2,1.5s-0.1,1-0.2,1.5s-0.4,0.9-0.7,1.2c-0.3,0.3-0.7,0.6-1.1,0.8s-0.9,0.3-1.5,0.3
		s-1.1-0.1-1.5-0.3s-0.8-0.5-1.1-0.8s-0.5-0.7-0.7-1.2c-0.1-0.5-0.2-1-0.2-1.5C498.1,37.7,498.1,37.2,498.3,36.8z M499.5,39.4
		c0.1,0.3,0.3,0.6,0.5,0.9s0.4,0.4,0.7,0.5c0.3,0.1,0.6,0.2,0.9,0.2s0.6-0.1,0.9-0.2c0.3-0.1,0.5-0.3,0.7-0.5s0.4-0.5,0.5-0.9
		c0.1-0.3,0.2-0.7,0.2-1.2c0-0.4-0.1-0.8-0.2-1.2c-0.1-0.3-0.3-0.6-0.5-0.9c-0.2-0.2-0.4-0.4-0.7-0.5c-0.3-0.1-0.6-0.2-0.9-0.2
		s-0.6,0.1-0.9,0.2c-0.3,0.1-0.5,0.3-0.7,0.5s-0.4,0.5-0.5,0.9s-0.2,0.7-0.2,1.2S499.4,39.1,499.5,39.4z"/>
	<path d="M508.5,41.9l-2.7-7.2h1.3l2,6l0,0l2-6h1.2l-2.6,7.2H508.5z"/>
	<path d="M513.6,33.3v-1.5h1.2v1.5H513.6z M514.7,34.6v7.2h-1.2v-7.2H514.7z"/>
	<path d="M521.9,41.9v-1l0,0c-0.2,0.4-0.5,0.7-0.9,0.9s-0.9,0.3-1.4,0.3c-0.6,0-1-0.1-1.5-0.3c-0.4-0.2-0.8-0.5-1-0.8
		c-0.3-0.3-0.5-0.7-0.6-1.2s-0.2-0.9-0.2-1.5c0-0.5,0.1-1,0.2-1.5s0.3-0.9,0.6-1.2s0.6-0.6,1-0.8s0.9-0.3,1.4-0.3
		c0.2,0,0.4,0,0.6,0.1c0.2,0,0.4,0.1,0.6,0.2c0.2,0.1,0.4,0.2,0.6,0.4c0.2,0.1,0.4,0.3,0.5,0.5l0,0V32h1.2v10L521.9,41.9L521.9,41.9
		L521.9,41.9z M517.6,39.3c0.1,0.3,0.2,0.6,0.4,0.9c0.2,0.3,0.4,0.5,0.7,0.6s0.6,0.2,1,0.2s0.7-0.1,1-0.2c0.3-0.2,0.5-0.4,0.7-0.6
		s0.3-0.5,0.4-0.9c0.1-0.3,0.1-0.7,0.1-1c0-0.4,0-0.7-0.1-1s-0.2-0.6-0.4-0.9s-0.4-0.5-0.7-0.6s-0.6-0.2-1-0.2s-0.7,0.1-1,0.2
		c-0.3,0.2-0.5,0.4-0.7,0.6c-0.2,0.3-0.3,0.6-0.4,0.9s-0.1,0.7-0.1,1C517.5,38.7,517.5,39,517.6,39.3z"/>
	<path d="M525,33.3v-1.5h1.2v1.5H525z M526.2,34.6v7.2H525v-7.2H526.2z"/>
	<path d="M529.1,34.6v1.1l0,0c0.5-0.9,1.3-1.3,2.4-1.3c0.5,0,0.9,0.1,1.2,0.2s0.6,0.3,0.8,0.5s0.3,0.5,0.4,0.8
		c0.1,0.3,0.1,0.7,0.1,1.1v4.8h-1.2V37c0-0.4-0.1-0.8-0.4-1.1c-0.3-0.3-0.6-0.4-1.1-0.4c-0.4,0-0.7,0.1-0.9,0.2
		c-0.3,0.1-0.5,0.3-0.7,0.5s-0.3,0.4-0.4,0.7c-0.1,0.3-0.1,0.6-0.1,0.9v4.1H528v-7.2h1.1V34.6z"/>
	<path d="M541.2,43.9c-0.5,0.6-1.4,0.9-2.5,0.9c-0.3,0-0.7,0-1-0.1c-0.4-0.1-0.7-0.2-1-0.4s-0.5-0.4-0.7-0.7s-0.3-0.6-0.3-1h1.2
		c0,0.2,0.1,0.4,0.2,0.5c0.1,0.1,0.3,0.3,0.5,0.4c0.2,0.1,0.4,0.2,0.6,0.2s0.4,0.1,0.6,0.1c0.4,0,0.7-0.1,1-0.2
		c0.3-0.1,0.5-0.3,0.7-0.6c0.2-0.2,0.3-0.5,0.4-0.9s0.1-0.7,0.1-1.1v-0.5l0,0c-0.2,0.4-0.5,0.8-0.9,1s-0.9,0.3-1.3,0.3
		c-0.5,0-1-0.1-1.4-0.3s-0.7-0.5-1-0.8s-0.5-0.7-0.6-1.2s-0.2-0.9-0.2-1.4c0-0.4,0.1-0.9,0.2-1.3c0.1-0.5,0.3-0.9,0.6-1.2
		c0.3-0.4,0.6-0.7,1-0.9s1-0.4,1.6-0.4c0.5,0,0.9,0.1,1.3,0.3c0.4,0.2,0.7,0.5,0.9,0.9l0,0v-1h1.1v6.6
		C542,42.4,541.8,43.3,541.2,43.9z M539.7,40.7c0.3-0.2,0.5-0.4,0.7-0.6c0.2-0.3,0.3-0.6,0.4-0.9c0.1-0.3,0.1-0.7,0.1-1
		s0-0.6-0.1-0.9s-0.2-0.6-0.4-0.8s-0.4-0.4-0.6-0.6s-0.6-0.2-1-0.2s-0.7,0.1-1,0.2c-0.3,0.1-0.5,0.3-0.7,0.6
		c-0.2,0.2-0.3,0.5-0.4,0.8c-0.1,0.3-0.1,0.6-0.1,1c0,0.3,0,0.7,0.1,1s0.2,0.6,0.3,0.9c0.2,0.3,0.4,0.5,0.6,0.6
		c0.3,0.2,0.6,0.2,1,0.2S539.4,40.8,539.7,40.7z"/>
	<path d="M549.3,31.9l5.3,8.1l0,0v-8.1h1.3v10h-1.5l-5.2-8l0,0v8h-1.3v-10C547.9,31.9,549.3,31.9,549.3,31.9z"/>
	<path d="M564.2,41.8c-0.2,0.1-0.5,0.2-0.9,0.2c-0.3,0-0.6-0.1-0.7-0.3c-0.2-0.2-0.3-0.5-0.3-0.8c-0.3,0.4-0.7,0.7-1.1,0.8
		c-0.4,0.2-0.9,0.3-1.4,0.3c-0.3,0-0.6,0-0.9-0.1c-0.3-0.1-0.5-0.2-0.8-0.3c-0.2-0.2-0.4-0.4-0.5-0.6s-0.2-0.6-0.2-0.9
		c0-0.4,0.1-0.7,0.2-1c0.1-0.3,0.3-0.5,0.6-0.6c0.2-0.2,0.5-0.3,0.8-0.4c0.3-0.1,0.6-0.2,0.9-0.2c0.3-0.1,0.6-0.1,0.9-0.1
		c0.3,0,0.6-0.1,0.8-0.1s0.4-0.1,0.5-0.3c0.1-0.1,0.2-0.3,0.2-0.5c0-0.3,0-0.5-0.1-0.6c-0.1-0.2-0.2-0.3-0.4-0.4
		c-0.2-0.1-0.3-0.1-0.5-0.2c-0.2,0-0.4,0-0.6,0c-0.5,0-0.9,0.1-1.3,0.3c-0.3,0.2-0.5,0.6-0.5,1.1h-1.2c0-0.4,0.1-0.8,0.3-1.1
		s0.4-0.6,0.7-0.7c0.3-0.2,0.6-0.3,1-0.4s0.7-0.1,1.2-0.1c0.3,0,0.7,0,1,0.1c0.3,0,0.6,0.1,0.9,0.3c0.3,0.1,0.5,0.3,0.6,0.6
		c0.2,0.3,0.2,0.6,0.2,1v3.7c0,0.3,0,0.5,0,0.6s0.1,0.2,0.3,0.2c0.1,0,0.2,0,0.4-0.1v0.6H564.2z M562.3,38.1
		c-0.1,0.1-0.3,0.2-0.6,0.2s-0.5,0.1-0.8,0.1s-0.5,0.1-0.8,0.1s-0.5,0.1-0.7,0.2c-0.2,0.1-0.4,0.2-0.5,0.4s-0.2,0.4-0.2,0.7
		c0,0.2,0,0.4,0.1,0.5s0.2,0.2,0.3,0.3s0.3,0.1,0.4,0.2s0.3,0.1,0.5,0.1c0.4,0,0.7-0.1,1-0.2c0.3-0.1,0.5-0.2,0.7-0.4
		s0.3-0.3,0.4-0.5s0.1-0.4,0.1-0.5L562.3,38.1L562.3,38.1z"/>
	<path d="M568.4,34.6v1H567v4.5c0,0.1,0,0.3,0,0.3c0,0.1,0.1,0.1,0.1,0.2s0.2,0.1,0.3,0.1s0.3,0,0.5,0h0.5v1h-0.9
		c-0.3,0-0.6,0-0.8-0.1s-0.4-0.1-0.5-0.2s-0.2-0.3-0.3-0.5s-0.1-0.5-0.1-0.8v-4.6h-1.2v-1h1.2v-2.2h1.2v2.2L568.4,34.6L568.4,34.6z"
		/>
	<path d="M569.8,33.3v-1.5h1.2v1.5H569.8z M571,34.6v7.2h-1.2v-7.2H571z"/>
	<path d="M572.7,36.8c0.1-0.5,0.4-0.9,0.7-1.2s0.7-0.6,1.1-0.8c0.4-0.2,0.9-0.3,1.5-0.3s1.1,0.1,1.5,0.3s0.8,0.5,1.1,0.8
		s0.5,0.7,0.7,1.2c0.1,0.5,0.2,1,0.2,1.5s-0.1,1-0.2,1.5c-0.1,0.5-0.4,0.9-0.7,1.2s-0.7,0.6-1.1,0.8S576.6,42,576,42
		s-1.1-0.1-1.5-0.3s-0.8-0.5-1.1-0.8s-0.5-0.7-0.7-1.2c-0.1-0.5-0.2-1-0.2-1.5S572.5,37.2,572.7,36.8z M573.9,39.4
		c0.1,0.3,0.3,0.6,0.5,0.9s0.4,0.4,0.7,0.5s0.6,0.2,0.9,0.2s0.6-0.1,0.9-0.2c0.3-0.1,0.5-0.3,0.7-0.5s0.4-0.5,0.5-0.9
		c0.1-0.3,0.2-0.7,0.2-1.2c0-0.4-0.1-0.8-0.2-1.2c-0.1-0.3-0.3-0.6-0.5-0.9c-0.2-0.2-0.4-0.4-0.7-0.5s-0.6-0.2-0.9-0.2
		s-0.6,0.1-0.9,0.2c-0.3,0.1-0.5,0.3-0.7,0.5s-0.4,0.5-0.5,0.9s-0.2,0.7-0.2,1.2S573.8,39.1,573.9,39.4z"/>
	<path d="M582,34.6v1.1l0,0c0.5-0.9,1.3-1.3,2.4-1.3c0.5,0,0.9,0.1,1.2,0.2s0.6,0.3,0.8,0.5s0.3,0.5,0.4,0.8
		c0.1,0.3,0.1,0.7,0.1,1.1v4.8h-1.2V37c0-0.4-0.1-0.8-0.4-1.1c-0.3-0.3-0.6-0.4-1.1-0.4c-0.4,0-0.7,0.1-0.9,0.2
		c-0.3,0.1-0.5,0.3-0.7,0.5s-0.3,0.4-0.4,0.7c-0.1,0.3-0.1,0.6-0.1,0.9v4.1h-1.2v-7.2h1.1L582,34.6L582,34.6z"/>
	<path d="M595.1,41.8c-0.2,0.1-0.5,0.2-0.9,0.2c-0.3,0-0.6-0.1-0.7-0.3c-0.2-0.2-0.3-0.5-0.3-0.8c-0.3,0.4-0.7,0.7-1.1,0.8
		c-0.4,0.2-0.9,0.3-1.4,0.3c-0.3,0-0.6,0-0.9-0.1c-0.3-0.1-0.5-0.2-0.8-0.3c-0.2-0.2-0.4-0.4-0.5-0.6s-0.2-0.6-0.2-0.9
		c0-0.4,0.1-0.7,0.2-1c0.1-0.3,0.3-0.5,0.6-0.6c0.2-0.2,0.5-0.3,0.8-0.4c0.3-0.1,0.6-0.2,0.9-0.2c0.3-0.1,0.6-0.1,0.9-0.1
		c0.3,0,0.6-0.1,0.8-0.1c0.2-0.1,0.4-0.1,0.5-0.3c0.1-0.1,0.2-0.3,0.2-0.5c0-0.3,0-0.5-0.1-0.6c-0.1-0.2-0.2-0.3-0.4-0.4
		c-0.2-0.1-0.3-0.1-0.5-0.2c-0.2,0-0.4,0-0.6,0c-0.5,0-0.9,0.1-1.3,0.3c-0.3,0.2-0.5,0.6-0.5,1.1h-1.2c0-0.4,0.1-0.8,0.3-1.1
		s0.4-0.6,0.7-0.7c0.3-0.2,0.6-0.3,1-0.4s0.7-0.1,1.2-0.1c0.3,0,0.7,0,1,0.1s0.6,0.1,0.9,0.3c0.3,0.1,0.5,0.3,0.6,0.6s0.2,0.6,0.2,1
		v3.7c0,0.3,0,0.5,0,0.6s0.1,0.2,0.3,0.2c0.1,0,0.2,0,0.4-0.1v0.6H595.1z M593.2,38.1c-0.1,0.1-0.3,0.2-0.6,0.2
		c-0.2,0.1-0.5,0.1-0.8,0.1s-0.5,0.1-0.8,0.1s-0.5,0.1-0.7,0.2c-0.2,0.1-0.4,0.2-0.5,0.4s-0.2,0.4-0.2,0.7c0,0.2,0,0.4,0.1,0.5
		s0.2,0.2,0.3,0.3s0.3,0.1,0.4,0.2s0.3,0.1,0.5,0.1c0.4,0,0.7-0.1,1-0.2c0.3-0.1,0.5-0.2,0.7-0.4s0.3-0.3,0.4-0.5s0.1-0.4,0.1-0.5
		L593.2,38.1L593.2,38.1z"/>
	<path d="M597.5,31.9v10h-1.2v-10C596.3,31.9,597.5,31.9,597.5,31.9z"/>
	<path d="M609.6,41.8c-0.2,0.1-0.5,0.2-0.9,0.2c-0.3,0-0.6-0.1-0.7-0.3c-0.2-0.2-0.3-0.5-0.3-0.8c-0.3,0.4-0.7,0.7-1.1,0.8
		c-0.4,0.2-0.9,0.3-1.4,0.3c-0.3,0-0.6,0-0.9-0.1c-0.3-0.1-0.5-0.2-0.8-0.3c-0.2-0.2-0.4-0.4-0.5-0.6s-0.2-0.6-0.2-0.9
		c0-0.4,0.1-0.7,0.2-1c0.1-0.3,0.3-0.5,0.6-0.6c0.2-0.2,0.5-0.3,0.8-0.4c0.3-0.1,0.6-0.2,0.9-0.2c0.3-0.1,0.6-0.1,0.9-0.1
		c0.3,0,0.6-0.1,0.8-0.1c0.2-0.1,0.4-0.1,0.5-0.3c0.1-0.1,0.2-0.3,0.2-0.5c0-0.3,0-0.5-0.1-0.6c-0.1-0.2-0.2-0.3-0.4-0.4
		c-0.2-0.1-0.3-0.1-0.5-0.2c-0.2,0-0.4,0-0.6,0c-0.5,0-0.9,0.1-1.3,0.3c-0.3,0.2-0.5,0.6-0.5,1.1h-1.2c0-0.4,0.1-0.8,0.3-1.1
		s0.4-0.6,0.7-0.7s0.6-0.3,1-0.4s0.7-0.1,1.2-0.1c0.3,0,0.7,0,1,0.1s0.6,0.1,0.9,0.3c0.3,0.1,0.5,0.3,0.6,0.6s0.2,0.6,0.2,1v3.7
		c0,0.3,0,0.5,0,0.6s0.1,0.2,0.3,0.2c0.1,0,0.2,0,0.4-0.1v0.6H609.6z M607.7,38.1c-0.1,0.1-0.3,0.2-0.6,0.2
		c-0.2,0.1-0.5,0.1-0.8,0.1s-0.5,0.1-0.8,0.1s-0.5,0.1-0.7,0.2s-0.4,0.2-0.5,0.4s-0.2,0.4-0.2,0.7c0,0.2,0,0.4,0.1,0.5
		s0.2,0.2,0.3,0.3s0.3,0.1,0.4,0.2s0.3,0.1,0.5,0.1c0.4,0,0.7-0.1,1-0.2c0.3-0.1,0.5-0.2,0.7-0.4s0.3-0.3,0.4-0.5s0.1-0.4,0.1-0.5
		L607.7,38.1L607.7,38.1z"/>
	<path d="M611.8,34.6v1.1l0,0c0.5-0.9,1.3-1.3,2.4-1.3c0.5,0,0.9,0.1,1.2,0.2s0.6,0.3,0.8,0.5s0.3,0.5,0.4,0.8s0.1,0.7,0.1,1.1v4.8
		h-1.2V37c0-0.4-0.1-0.8-0.4-1.1s-0.6-0.4-1.1-0.4c-0.4,0-0.7,0.1-0.9,0.2c-0.3,0.1-0.5,0.3-0.7,0.5s-0.3,0.4-0.4,0.7
		s-0.1,0.6-0.1,0.9v4.1h-1.2v-7.2h1.1L611.8,34.6L611.8,34.6z"/>
	<path d="M623.8,41.9v-1l0,0c-0.2,0.4-0.5,0.7-0.9,0.9s-0.9,0.3-1.4,0.3c-0.6,0-1-0.1-1.5-0.3c-0.4-0.2-0.8-0.5-1-0.8
		c-0.3-0.3-0.5-0.7-0.6-1.2s-0.2-0.9-0.2-1.5c0-0.5,0.1-1,0.2-1.5c0.1-0.5,0.3-0.9,0.6-1.2s0.6-0.6,1-0.8s0.9-0.3,1.4-0.3
		c0.2,0,0.4,0,0.6,0.1c0.2,0,0.4,0.1,0.6,0.2s0.4,0.2,0.6,0.4c0.2,0.1,0.4,0.3,0.5,0.5l0,0V32h1.2v10L623.8,41.9L623.8,41.9
		L623.8,41.9z M619.5,39.3c0.1,0.3,0.2,0.6,0.4,0.9s0.4,0.5,0.7,0.6s0.6,0.2,1,0.2s0.7-0.1,1-0.2c0.3-0.2,0.5-0.4,0.7-0.6
		c0.2-0.3,0.3-0.5,0.4-0.9c0.1-0.3,0.1-0.7,0.1-1c0-0.4,0-0.7-0.1-1s-0.2-0.6-0.4-0.9c-0.2-0.3-0.4-0.5-0.7-0.6s-0.6-0.2-1-0.2
		s-0.7,0.1-1,0.2c-0.3,0.2-0.5,0.4-0.7,0.6c-0.2,0.3-0.3,0.6-0.4,0.9c-0.1,0.3-0.1,0.7-0.1,1C619.4,38.7,619.4,39,619.5,39.3z"/>
	<path d="M638.5,41.9l-2.3-8.4l0,0l-2.3,8.4h-1.4l-2.6-10h1.4l2,8.3l0,0l2.2-8.3h1.4l2.2,8.3l0,0l2-8.3h1.3l-2.7,10H638.5z"/>
	<path d="M642.7,36.8c0.1-0.5,0.4-0.9,0.7-1.2s0.7-0.6,1.1-0.8c0.4-0.2,0.9-0.3,1.5-0.3s1.1,0.1,1.5,0.3s0.8,0.5,1.1,0.8
		s0.5,0.7,0.7,1.2c0.1,0.5,0.2,1,0.2,1.5s-0.1,1-0.2,1.5c-0.1,0.5-0.4,0.9-0.7,1.2s-0.7,0.6-1.1,0.8c-0.4,0.2-0.9,0.3-1.5,0.3
		s-1.1-0.1-1.5-0.3s-0.8-0.5-1.1-0.8s-0.5-0.7-0.7-1.2c-0.1-0.5-0.2-1-0.2-1.5C642.5,37.7,642.5,37.2,642.7,36.8z M643.9,39.4
		c0.1,0.3,0.3,0.6,0.5,0.9s0.4,0.4,0.7,0.5s0.6,0.2,0.9,0.2c0.3,0,0.6-0.1,0.9-0.2c0.3-0.1,0.5-0.3,0.7-0.5s0.4-0.5,0.5-0.9
		c0.1-0.3,0.2-0.7,0.2-1.2c0-0.4-0.1-0.8-0.2-1.2c-0.1-0.3-0.3-0.6-0.5-0.9s-0.4-0.4-0.7-0.5s-0.6-0.2-0.9-0.2
		c-0.3,0-0.6,0.1-0.9,0.2c-0.3,0.1-0.5,0.3-0.7,0.5s-0.4,0.5-0.5,0.9c-0.1,0.3-0.2,0.7-0.2,1.2S643.8,39.1,643.9,39.4z"/>
	<path d="M652,34.6v1.5l0,0c0.3-0.6,0.6-1,1.1-1.3c0.4-0.3,1-0.4,1.6-0.4v1.3c-0.5,0-0.9,0.1-1.2,0.2s-0.6,0.3-0.8,0.6
		s-0.4,0.6-0.4,0.9c-0.1,0.4-0.1,0.8-0.1,1.2v3.2H651v-7.2H652z"/>
	<path d="M656.8,31.9v10h-1.2v-10C655.6,31.9,656.8,31.9,656.8,31.9z"/>
	<path d="M663.9,41.9v-1l0,0c-0.2,0.4-0.5,0.7-0.9,0.9s-0.9,0.3-1.4,0.3c-0.6,0-1-0.1-1.5-0.3c-0.4-0.2-0.8-0.5-1-0.8
		c-0.3-0.3-0.5-0.7-0.6-1.2s-0.2-0.9-0.2-1.5c0-0.5,0.1-1,0.2-1.5c0.1-0.5,0.3-0.9,0.6-1.2s0.6-0.6,1-0.8s0.9-0.3,1.4-0.3
		c0.2,0,0.4,0,0.6,0.1c0.2,0,0.4,0.1,0.6,0.2s0.4,0.2,0.6,0.4c0.2,0.1,0.4,0.3,0.5,0.5l0,0V32h1.2v10L663.9,41.9L663.9,41.9
		L663.9,41.9z M659.7,39.3c0.1,0.3,0.2,0.6,0.4,0.9s0.4,0.5,0.7,0.6s0.6,0.2,1,0.2s0.7-0.1,1-0.2c0.3-0.2,0.5-0.4,0.7-0.6
		c0.2-0.3,0.3-0.5,0.4-0.9c0.1-0.3,0.1-0.7,0.1-1c0-0.4,0-0.7-0.1-1s-0.2-0.6-0.4-0.9c-0.2-0.3-0.4-0.5-0.7-0.6s-0.6-0.2-1-0.2
		s-0.7,0.1-1,0.2c-0.3,0.2-0.5,0.4-0.7,0.6c-0.2,0.3-0.3,0.6-0.4,0.9c-0.1,0.3-0.1,0.7-0.1,1C659.5,38.7,659.6,39,659.7,39.3z"/>
	<path d="M672.4,31.9v8.9h5.3v1.1h-6.6v-10C671.1,31.9,672.4,31.9,672.4,31.9z"/>
	<path d="M683.8,41.4c-0.5,0.4-1.2,0.6-2,0.6c-0.6,0-1.1-0.1-1.5-0.3s-0.8-0.4-1.1-0.8c-0.3-0.3-0.5-0.7-0.7-1.2s-0.2-1-0.2-1.5
		c0-0.6,0.1-1.1,0.3-1.5c0.2-0.5,0.4-0.9,0.7-1.2s0.7-0.6,1.1-0.8s0.9-0.3,1.4-0.3c0.6,0,1.2,0.1,1.6,0.4c0.4,0.3,0.8,0.6,1,1
		c0.3,0.4,0.4,0.9,0.5,1.3c0.1,0.5,0.1,0.9,0.1,1.4h-5.4c0,0.3,0,0.6,0.1,0.9c0.1,0.3,0.2,0.5,0.4,0.8c0.2,0.2,0.4,0.4,0.7,0.5
		s0.6,0.2,1,0.2c0.5,0,0.9-0.1,1.2-0.4c0.3-0.2,0.5-0.6,0.6-1.1h1.2C684.7,40.4,684.3,41,683.8,41.4z M683.5,36.8
		c-0.1-0.3-0.3-0.5-0.4-0.7c-0.2-0.2-0.4-0.3-0.6-0.4c-0.2-0.1-0.5-0.2-0.8-0.2s-0.6,0.1-0.8,0.2c-0.2,0.1-0.5,0.3-0.6,0.4
		c-0.2,0.2-0.3,0.4-0.4,0.7c-0.1,0.2-0.2,0.5-0.2,0.8h4.2C683.6,37.3,683.6,37,683.5,36.8z"/>
	<path d="M692.6,41.8c-0.2,0.1-0.5,0.2-0.9,0.2c-0.3,0-0.6-0.1-0.7-0.3c-0.2-0.2-0.3-0.5-0.3-0.8c-0.3,0.4-0.7,0.7-1.1,0.8
		c-0.4,0.2-0.9,0.3-1.4,0.3c-0.3,0-0.6,0-0.9-0.1c-0.3-0.1-0.5-0.2-0.8-0.3c-0.2-0.2-0.4-0.4-0.5-0.6s-0.2-0.6-0.2-0.9
		c0-0.4,0.1-0.7,0.2-1c0.1-0.3,0.3-0.5,0.6-0.6c0.2-0.2,0.5-0.3,0.8-0.4c0.3-0.1,0.6-0.2,0.9-0.2c0.3-0.1,0.6-0.1,0.9-0.1
		c0.3,0,0.6-0.1,0.8-0.1c0.2-0.1,0.4-0.1,0.5-0.3c0.1-0.1,0.2-0.3,0.2-0.5c0-0.3,0-0.5-0.1-0.6c-0.1-0.2-0.2-0.3-0.4-0.4
		c-0.2-0.1-0.3-0.1-0.5-0.2c-0.2,0-0.4,0-0.6,0c-0.5,0-0.9,0.1-1.3,0.3c-0.3,0.2-0.5,0.6-0.5,1.1H686c0-0.4,0.1-0.8,0.3-1.1
		s0.4-0.6,0.7-0.7s0.6-0.3,1-0.4s0.7-0.1,1.2-0.1c0.3,0,0.7,0,1,0.1s0.6,0.1,0.9,0.3c0.3,0.1,0.5,0.3,0.6,0.6s0.2,0.6,0.2,1v3.7
		c0,0.3,0,0.5,0,0.6s0.1,0.2,0.3,0.2c0.1,0,0.2,0,0.4-0.1L692.6,41.8L692.6,41.8z M690.6,38.1c-0.1,0.1-0.3,0.2-0.6,0.2
		c-0.2,0.1-0.5,0.1-0.8,0.1s-0.5,0.1-0.8,0.1s-0.5,0.1-0.7,0.2s-0.4,0.2-0.5,0.4s-0.2,0.4-0.2,0.7c0,0.2,0,0.4,0.1,0.5
		s0.2,0.2,0.3,0.3s0.3,0.1,0.4,0.2s0.3,0.1,0.5,0.1c0.4,0,0.7-0.1,1-0.2c0.3-0.1,0.5-0.2,0.7-0.4s0.3-0.3,0.4-0.5s0.1-0.4,0.1-0.5
		L690.6,38.1L690.6,38.1z"/>
	<path d="M699,41.9v-1l0,0c-0.2,0.4-0.5,0.7-0.9,0.9s-0.9,0.3-1.4,0.3c-0.6,0-1-0.1-1.5-0.3c-0.4-0.2-0.8-0.5-1-0.8
		c-0.3-0.3-0.5-0.7-0.6-1.2s-0.2-0.9-0.2-1.5c0-0.5,0.1-1,0.2-1.5c0.1-0.5,0.3-0.9,0.6-1.2s0.6-0.6,1-0.8s0.9-0.3,1.4-0.3
		c0.2,0,0.4,0,0.6,0.1c0.2,0,0.4,0.1,0.6,0.2s0.4,0.2,0.6,0.4c0.2,0.1,0.4,0.3,0.5,0.5l0,0V32h1.2v10L699,41.9L699,41.9z
		 M694.7,39.3c0.1,0.3,0.2,0.6,0.4,0.9s0.4,0.5,0.7,0.6s0.6,0.2,1,0.2s0.7-0.1,1-0.2c0.3-0.2,0.5-0.4,0.7-0.6
		c0.2-0.3,0.3-0.5,0.4-0.9c0.1-0.3,0.1-0.7,0.1-1c0-0.4,0-0.7-0.1-1s-0.2-0.6-0.4-0.9c-0.2-0.3-0.4-0.5-0.7-0.6s-0.6-0.2-1-0.2
		s-0.7,0.1-1,0.2c-0.3,0.2-0.5,0.4-0.7,0.6c-0.2,0.3-0.3,0.6-0.4,0.9c-0.1,0.3-0.1,0.7-0.1,1C694.5,38.7,694.6,39,694.7,39.3z"/>
	<path d="M707.1,41.4c-0.5,0.4-1.2,0.6-2,0.6c-0.6,0-1.1-0.1-1.5-0.3s-0.8-0.4-1.1-0.8s-0.5-0.7-0.7-1.2c-0.1-0.5-0.2-1-0.2-1.5
		c0-0.6,0.1-1.1,0.3-1.5c0.2-0.5,0.4-0.9,0.7-1.2s0.7-0.6,1.1-0.8c0.4-0.2,0.9-0.3,1.4-0.3c0.6,0,1.2,0.1,1.6,0.4
		c0.4,0.3,0.8,0.6,1,1c0.3,0.4,0.4,0.9,0.5,1.3c0.1,0.5,0.1,0.9,0.1,1.4h-5.4c0,0.3,0,0.6,0.1,0.9c0.1,0.3,0.2,0.5,0.4,0.8
		c0.2,0.2,0.4,0.4,0.7,0.5s0.6,0.2,1,0.2c0.5,0,0.9-0.1,1.2-0.4c0.3-0.2,0.5-0.6,0.6-1.1h1.2C708,40.4,707.6,41,707.1,41.4z
		 M706.8,36.8c-0.1-0.3-0.3-0.5-0.4-0.7c-0.2-0.2-0.4-0.3-0.6-0.4c-0.2-0.1-0.5-0.2-0.8-0.2s-0.6,0.1-0.8,0.2
		c-0.2,0.1-0.5,0.3-0.6,0.4c-0.2,0.2-0.3,0.4-0.4,0.7c-0.1,0.2-0.2,0.5-0.2,0.8h4.2C707,37.3,706.9,37,706.8,36.8z"/>
	<path d="M710.6,34.6v1.5l0,0c0.3-0.6,0.6-1,1.1-1.3c0.4-0.3,1-0.4,1.6-0.4v1.3c-0.5,0-0.9,0.1-1.2,0.2s-0.6,0.3-0.8,0.6
		s-0.4,0.6-0.4,0.9c-0.1,0.4-0.1,0.8-0.1,1.2v3.2h-1.2v-7.2H710.6z"/>
	<path d="M715.1,40.3c0.1,0.2,0.3,0.3,0.4,0.4c0.2,0.1,0.4,0.2,0.6,0.2c0.2,0,0.5,0.1,0.7,0.1s0.4,0,0.6,0c0.2,0,0.4-0.1,0.6-0.2
		c0.2-0.1,0.3-0.2,0.4-0.3c0.1-0.1,0.2-0.3,0.2-0.6s-0.1-0.5-0.3-0.7s-0.5-0.3-0.9-0.4s-0.7-0.2-1.1-0.3c-0.4-0.1-0.8-0.2-1.1-0.3
		s-0.6-0.3-0.9-0.6S714,37,714,36.5c0-0.4,0.1-0.7,0.2-0.9c0.2-0.3,0.4-0.5,0.6-0.6s0.5-0.3,0.9-0.4c0.3-0.1,0.6-0.1,1-0.1
		s0.8,0,1.1,0.1s0.7,0.2,0.9,0.4c0.3,0.2,0.5,0.4,0.6,0.7c0.2,0.3,0.3,0.7,0.3,1.1h-1.2c0-0.2-0.1-0.4-0.2-0.6
		c-0.1-0.2-0.2-0.3-0.4-0.4c-0.2-0.1-0.3-0.2-0.5-0.2s-0.4-0.1-0.6-0.1c-0.2,0-0.4,0-0.5,0c-0.2,0-0.3,0.1-0.5,0.1s-0.3,0.2-0.4,0.3
		c-0.1,0.1-0.1,0.3-0.1,0.5s0.1,0.4,0.2,0.5s0.3,0.2,0.6,0.3c0.2,0.1,0.5,0.2,0.8,0.2c0.3,0.1,0.6,0.1,0.8,0.2
		c0.3,0.1,0.6,0.1,0.9,0.2c0.3,0.1,0.5,0.2,0.8,0.4c0.2,0.2,0.4,0.3,0.5,0.6c0.1,0.2,0.2,0.5,0.2,0.9s-0.1,0.8-0.3,1.1
		s-0.4,0.5-0.7,0.7s-0.6,0.3-1,0.4s-0.7,0.1-1.1,0.1c-0.4,0-0.8,0-1.1-0.1s-0.7-0.2-1-0.4s-0.5-0.4-0.7-0.8s-0.3-0.7-0.3-1.1h1.2
		C714.9,39.9,715,40.1,715.1,40.3z"/>
	<path d="M722.4,31.9v3.8l0,0c0.1-0.2,0.2-0.4,0.4-0.6c0.2-0.2,0.4-0.3,0.6-0.4c0.2-0.1,0.4-0.2,0.7-0.2s0.5-0.1,0.7-0.1
		c0.5,0,0.9,0.1,1.2,0.2s0.6,0.3,0.8,0.5s0.3,0.5,0.4,0.8s0.1,0.7,0.1,1.1v4.8H726V37c0-0.4-0.1-0.8-0.4-1.1s-0.6-0.4-1.1-0.4
		c-0.4,0-0.7,0.1-0.9,0.2c-0.3,0.1-0.5,0.3-0.7,0.5s-0.3,0.4-0.4,0.7s-0.1,0.6-0.1,0.9v4.1h-1.2v-10
		C721.2,31.9,722.4,31.9,722.4,31.9z"/>
	<path d="M729,33.3v-1.5h1.2v1.5H729z M730.2,34.6v7.2H729v-7.2H730.2z"/>
	<path d="M733.3,34.6v1l0,0c0.2-0.4,0.5-0.7,0.9-0.9s0.9-0.3,1.4-0.3c0.6,0,1,0.1,1.5,0.3s0.8,0.5,1,0.8c0.3,0.3,0.5,0.8,0.6,1.2
		s0.2,0.9,0.2,1.5c0,0.5-0.1,1-0.2,1.5c-0.1,0.5-0.3,0.9-0.6,1.2s-0.6,0.6-1,0.8s-0.9,0.3-1.4,0.3c-0.2,0-0.4,0-0.6-0.1
		c-0.2,0-0.4-0.1-0.7-0.2c-0.2-0.1-0.4-0.2-0.6-0.3s-0.4-0.3-0.5-0.5l0,0v3.7h-1.2v-10H733.3z M737.6,37.2c-0.1-0.3-0.2-0.6-0.4-0.9
		c-0.2-0.3-0.4-0.5-0.7-0.6s-0.6-0.2-1-0.2s-0.7,0.1-1,0.2c-0.3,0.2-0.5,0.4-0.7,0.6c-0.2,0.3-0.3,0.5-0.4,0.9
		c-0.1,0.3-0.1,0.7-0.1,1c0,0.4,0,0.7,0.1,1s0.2,0.6,0.4,0.9c0.2,0.3,0.4,0.5,0.7,0.6c0.3,0.2,0.6,0.2,1.1,0.2c0.4,0,0.8-0.1,1-0.2
		c0.3-0.2,0.5-0.4,0.7-0.6c0.2-0.3,0.3-0.6,0.4-0.9c0.1-0.3,0.1-0.7,0.1-1C737.7,37.9,737.6,37.5,737.6,37.2z"/>
</g>
<g enable-background="new    ">
	<path d="M475.9,49.6v1h-1.4v4.5c0,0.1,0,0.3,0,0.3c0,0.1,0.1,0.1,0.1,0.2s0.2,0.1,0.3,0.1c0.1,0,0.3,0,0.5,0h0.5v1H475
		c-0.3,0-0.6,0-0.8-0.1s-0.4-0.1-0.5-0.2s-0.2-0.3-0.3-0.5c-0.1-0.2-0.1-0.5-0.1-0.8v-4.6H472v-1h1.2v-2.2h1.2v2.2L475.9,49.6
		L475.9,49.6z"/>
	<path d="M477,51.8c0.1-0.5,0.4-0.9,0.7-1.2s0.7-0.6,1.1-0.8s0.9-0.3,1.5-0.3s1.1,0.1,1.5,0.3s0.8,0.5,1.1,0.8
		c0.3,0.3,0.5,0.7,0.7,1.2c0.1,0.5,0.2,1,0.2,1.5s-0.1,1-0.2,1.5s-0.4,0.9-0.7,1.2c-0.3,0.3-0.7,0.6-1.1,0.8s-0.9,0.3-1.5,0.3
		s-1.1-0.1-1.5-0.3s-0.8-0.5-1.1-0.8s-0.5-0.7-0.7-1.2c-0.1-0.5-0.2-1-0.2-1.5C476.8,52.7,476.9,52.2,477,51.8z M478.2,54.4
		c0.1,0.3,0.3,0.6,0.5,0.9s0.4,0.4,0.7,0.5c0.3,0.1,0.6,0.2,0.9,0.2s0.6-0.1,0.9-0.2c0.3-0.1,0.5-0.3,0.7-0.5s0.4-0.5,0.5-0.9
		c0.1-0.3,0.2-0.7,0.2-1.2c0-0.4-0.1-0.8-0.2-1.2c-0.1-0.3-0.3-0.6-0.5-0.9c-0.2-0.2-0.4-0.4-0.7-0.5c-0.3-0.1-0.6-0.2-0.9-0.2
		s-0.6,0.1-0.9,0.2c-0.3,0.1-0.5,0.3-0.7,0.5s-0.4,0.5-0.5,0.9s-0.2,0.7-0.2,1.2S478.1,54.1,478.2,54.4z"/>
	<path d="M493.7,46.9c1,0,1.8,0.3,2.3,0.8s0.8,1.2,0.8,2.2s-0.3,1.7-0.8,2.2s-1.3,0.8-2.3,0.8h-3.1V57h-1.3V47L493.7,46.9
		L493.7,46.9z M493.2,51.7c0.8,0,1.3-0.1,1.7-0.5s0.5-0.8,0.5-1.4s-0.2-1.1-0.5-1.4c-0.4-0.3-0.9-0.5-1.7-0.5h-2.6v3.7h2.6V51.7z"/>
	<path d="M499.3,49.6v1.5l0,0c0.3-0.6,0.6-1,1.1-1.3c0.4-0.3,1-0.4,1.6-0.4v1.3c-0.5,0-0.9,0.1-1.2,0.2s-0.6,0.3-0.8,0.6
		c-0.2,0.3-0.4,0.6-0.4,0.9s-0.1,0.8-0.1,1.2v3.2h-1.2v-7.2H499.3z"/>
	<path d="M507.7,56.4c-0.5,0.4-1.2,0.6-2,0.6c-0.6,0-1.1-0.1-1.5-0.3s-0.8-0.4-1.1-0.8c-0.3-0.3-0.5-0.7-0.7-1.2
		c-0.1-0.5-0.2-1-0.2-1.5c0-0.6,0.1-1.1,0.3-1.5c0.2-0.5,0.4-0.9,0.7-1.2s0.7-0.6,1.1-0.8s0.9-0.3,1.4-0.3c0.6,0,1.2,0.1,1.6,0.4
		c0.4,0.3,0.8,0.6,1,1c0.3,0.4,0.4,0.9,0.5,1.3c0.1,0.5,0.1,0.9,0.1,1.4h-5.4c0,0.3,0,0.6,0.1,0.9c0.1,0.3,0.2,0.5,0.4,0.8
		c0.2,0.2,0.4,0.4,0.7,0.5c0.3,0.1,0.6,0.2,1,0.2c0.5,0,0.9-0.1,1.2-0.4c0.3-0.2,0.5-0.6,0.6-1.1h1.2
		C508.6,55.4,508.3,56,507.7,56.4z M507.4,51.8c-0.1-0.3-0.3-0.5-0.4-0.7c-0.2-0.2-0.4-0.3-0.6-0.4c-0.2-0.1-0.5-0.2-0.8-0.2
		s-0.6,0.1-0.8,0.2c-0.2,0.1-0.5,0.3-0.6,0.4c-0.2,0.2-0.3,0.4-0.4,0.7c-0.1,0.2-0.2,0.5-0.2,0.8h4.2
		C507.6,52.3,507.5,52,507.4,51.8z"/>
	<path d="M512.1,56.9l-2.7-7.2h1.3l2,6l0,0l2-6h1.2l-2.6,7.2H512.1z"/>
	<path d="M522.2,56.4c-0.5,0.4-1.2,0.6-2,0.6c-0.6,0-1.1-0.1-1.5-0.3s-0.8-0.4-1.1-0.8c-0.3-0.3-0.5-0.7-0.7-1.2
		c-0.1-0.5-0.2-1-0.2-1.5c0-0.6,0.1-1.1,0.3-1.5c0.2-0.5,0.4-0.9,0.7-1.2s0.7-0.6,1.1-0.8c0.4-0.2,0.9-0.3,1.4-0.3
		c0.6,0,1.2,0.1,1.6,0.4c0.4,0.3,0.8,0.6,1,1c0.3,0.4,0.4,0.9,0.5,1.3c0.1,0.5,0.1,0.9,0.1,1.4H518c0,0.3,0,0.6,0.1,0.9
		c0.1,0.3,0.2,0.5,0.4,0.8c0.2,0.2,0.4,0.4,0.7,0.5s0.6,0.2,1,0.2c0.5,0,0.9-0.1,1.2-0.4c0.3-0.2,0.5-0.6,0.6-1.1h1.2
		C523.1,55.4,522.8,56,522.2,56.4z M521.9,51.8c-0.1-0.3-0.3-0.5-0.4-0.7c-0.2-0.2-0.4-0.3-0.6-0.4c-0.2-0.1-0.5-0.2-0.8-0.2
		s-0.6,0.1-0.8,0.2c-0.2,0.1-0.5,0.3-0.6,0.4c-0.2,0.2-0.3,0.4-0.4,0.7c-0.1,0.2-0.2,0.5-0.2,0.8h4.2
		C522.1,52.3,522.1,52,521.9,51.8z"/>
	<path d="M525.7,49.6v1.1l0,0c0.5-0.9,1.3-1.3,2.4-1.3c0.5,0,0.9,0.1,1.2,0.2s0.6,0.3,0.8,0.5s0.3,0.5,0.4,0.8
		c0.1,0.3,0.1,0.7,0.1,1.1v4.8h-1.2V52c0-0.4-0.1-0.8-0.4-1.1c-0.3-0.3-0.6-0.4-1.1-0.4c-0.4,0-0.7,0.1-0.9,0.2
		c-0.3,0.1-0.5,0.3-0.7,0.5s-0.3,0.4-0.4,0.7c-0.1,0.3-0.1,0.6-0.1,0.9v4.1h-1.2v-7.2h1.1L525.7,49.6L525.7,49.6z"/>
	<path d="M535.5,49.6v1h-1.4v4.5c0,0.1,0,0.3,0,0.3c0,0.1,0.1,0.1,0.1,0.2s0.2,0.1,0.3,0.1s0.3,0,0.5,0h0.5v1h-0.9
		c-0.3,0-0.6,0-0.8-0.1s-0.4-0.1-0.5-0.2s-0.2-0.3-0.3-0.5s-0.1-0.5-0.1-0.8v-4.6h-1.2v-1h1.2v-2.2h1.2v2.2L535.5,49.6L535.5,49.6z"
		/>
	<path d="M548.6,56.9l-2.3-8.4l0,0l-2.3,8.4h-1.4l-2.6-10h1.4l2,8.3l0,0l2.2-8.3h1.4l2.2,8.3l0,0l2-8.3h1.3l-2.7,10H548.6z"/>
	<path d="M552.7,51.8c0.1-0.5,0.4-0.9,0.7-1.2s0.7-0.6,1.1-0.8c0.4-0.2,0.9-0.3,1.5-0.3s1.1,0.1,1.5,0.3s0.8,0.5,1.1,0.8
		s0.5,0.7,0.7,1.2c0.1,0.5,0.2,1,0.2,1.5s-0.1,1-0.2,1.5c-0.1,0.5-0.4,0.9-0.7,1.2s-0.7,0.6-1.1,0.8S556.6,57,556,57
		s-1.1-0.1-1.5-0.3s-0.8-0.5-1.1-0.8s-0.5-0.7-0.7-1.2c-0.1-0.5-0.2-1-0.2-1.5S552.6,52.2,552.7,51.8z M553.9,54.4
		c0.1,0.3,0.3,0.6,0.5,0.9s0.4,0.4,0.7,0.5s0.6,0.2,0.9,0.2s0.6-0.1,0.9-0.2c0.3-0.1,0.5-0.3,0.7-0.5s0.4-0.5,0.5-0.9
		c0.1-0.3,0.2-0.7,0.2-1.2c0-0.4-0.1-0.8-0.2-1.2c-0.1-0.3-0.3-0.6-0.5-0.9c-0.2-0.2-0.4-0.4-0.7-0.5s-0.6-0.2-0.9-0.2
		s-0.6,0.1-0.9,0.2c-0.3,0.1-0.5,0.3-0.7,0.5s-0.4,0.5-0.5,0.9s-0.2,0.7-0.2,1.2S553.8,54.1,553.9,54.4z"/>
	<path d="M562,49.6v1.5l0,0c0.3-0.6,0.6-1,1.1-1.3c0.4-0.3,1-0.4,1.6-0.4v1.3c-0.5,0-0.9,0.1-1.2,0.2s-0.6,0.3-0.8,0.6
		s-0.4,0.6-0.4,0.9s-0.1,0.8-0.1,1.2v3.2H561v-7.2H562z"/>
	<path d="M566.8,46.9v5.9l3.3-3.2h1.6l-2.9,2.6l3.1,4.6h-1.5l-2.5-3.8l-1.1,1v2.7h-1.2v-10h1.2L566.8,46.9L566.8,46.9z"/>
	<path d="M574.1,49.6v1l0,0c0.2-0.4,0.5-0.7,0.9-0.9s0.9-0.3,1.4-0.3c0.6,0,1,0.1,1.5,0.3c0.4,0.2,0.8,0.5,1,0.8
		c0.3,0.3,0.5,0.8,0.6,1.2c0.1,0.5,0.2,0.9,0.2,1.5c0,0.5-0.1,1-0.2,1.5c-0.1,0.5-0.3,0.9-0.6,1.2s-0.6,0.6-1,0.8S577,57,576.5,57
		c-0.2,0-0.4,0-0.6-0.1s-0.4-0.1-0.7-0.2c-0.2-0.1-0.4-0.2-0.6-0.3c-0.2-0.1-0.4-0.3-0.5-0.5l0,0v3.7h-1.2v-10
		C572.9,49.6,574.1,49.6,574.1,49.6z M578.3,52.2c-0.1-0.3-0.2-0.6-0.4-0.9s-0.4-0.5-0.7-0.6s-0.6-0.2-1-0.2s-0.7,0.1-1,0.2
		c-0.3,0.2-0.5,0.4-0.7,0.6s-0.3,0.5-0.4,0.9c-0.1,0.3-0.1,0.7-0.1,1c0,0.4,0,0.7,0.1,1s0.2,0.6,0.4,0.9c0.2,0.3,0.4,0.5,0.7,0.6
		c0.3,0.2,0.6,0.2,1.1,0.2c0.4,0,0.8-0.1,1-0.2c0.3-0.2,0.5-0.4,0.7-0.6c0.2-0.3,0.3-0.6,0.4-0.9c0.1-0.3,0.1-0.7,0.1-1
		C578.5,52.9,578.4,52.5,578.3,52.2z"/>
	<path d="M582.4,46.9v10h-1.2v-10H582.4z"/>
	<path d="M590.7,56.8c-0.2,0.1-0.5,0.2-0.9,0.2c-0.3,0-0.6-0.1-0.7-0.3c-0.2-0.2-0.3-0.5-0.3-0.8c-0.3,0.4-0.7,0.7-1.1,0.8
		c-0.4,0.2-0.9,0.3-1.4,0.3c-0.3,0-0.6,0-0.9-0.1c-0.3-0.1-0.5-0.2-0.8-0.3c-0.2-0.2-0.4-0.4-0.5-0.6s-0.2-0.6-0.2-0.9
		c0-0.4,0.1-0.7,0.2-1c0.1-0.3,0.3-0.5,0.6-0.6c0.2-0.2,0.5-0.3,0.8-0.4c0.3-0.1,0.6-0.2,0.9-0.2c0.3-0.1,0.6-0.1,0.9-0.1
		c0.3,0,0.6-0.1,0.8-0.1s0.4-0.1,0.5-0.3c0.1-0.1,0.2-0.3,0.2-0.5c0-0.3,0-0.5-0.1-0.6c-0.1-0.2-0.2-0.3-0.4-0.4
		c-0.2-0.1-0.3-0.1-0.5-0.2c-0.2,0-0.4,0-0.6,0c-0.5,0-0.9,0.1-1.3,0.3c-0.3,0.2-0.5,0.6-0.5,1.1h-1.2c0-0.4,0.1-0.8,0.3-1.1
		s0.4-0.6,0.7-0.7c0.3-0.2,0.6-0.3,1-0.4s0.7-0.1,1.2-0.1c0.3,0,0.7,0,1,0.1c0.3,0,0.6,0.1,0.9,0.3c0.3,0.1,0.5,0.3,0.6,0.6
		c0.2,0.3,0.2,0.6,0.2,1v3.7c0,0.3,0,0.5,0,0.6s0.1,0.2,0.3,0.2c0.1,0,0.2,0,0.4-0.1v0.6H590.7z M588.7,53.1
		c-0.1,0.1-0.3,0.2-0.6,0.2s-0.5,0.1-0.8,0.1s-0.5,0.1-0.8,0.1s-0.5,0.1-0.7,0.2c-0.2,0.1-0.4,0.2-0.5,0.4s-0.2,0.4-0.2,0.7
		c0,0.2,0,0.4,0.1,0.5s0.2,0.2,0.3,0.3s0.3,0.1,0.4,0.2s0.3,0.1,0.5,0.1c0.4,0,0.7-0.1,1-0.2c0.3-0.1,0.5-0.2,0.7-0.4
		s0.3-0.3,0.4-0.5s0.1-0.4,0.1-0.5L588.7,53.1L588.7,53.1z"/>
	<path d="M596.1,50.9c-0.3-0.3-0.7-0.4-1.2-0.4c-0.4,0-0.8,0.1-1.1,0.2c-0.3,0.2-0.5,0.4-0.7,0.6c-0.2,0.3-0.3,0.6-0.4,0.9
		c-0.1,0.3-0.1,0.7-0.1,1.1c0,0.3,0,0.7,0.1,1s0.2,0.6,0.4,0.8s0.4,0.4,0.7,0.6c0.3,0.1,0.6,0.2,1,0.2c0.6,0,1-0.2,1.4-0.5
		c0.3-0.3,0.5-0.7,0.6-1.3h1.2c-0.1,0.9-0.5,1.6-1,2.1s-1.3,0.7-2.2,0.7c-0.6,0-1-0.1-1.5-0.3c-0.4-0.2-0.8-0.4-1.1-0.8
		c-0.3-0.3-0.5-0.7-0.6-1.2s-0.2-0.9-0.2-1.5c0-0.5,0.1-1,0.2-1.5c0.1-0.5,0.4-0.9,0.6-1.2c0.3-0.3,0.6-0.6,1.1-0.8
		c0.4-0.2,0.9-0.3,1.5-0.3c0.4,0,0.8,0,1.2,0.1s0.7,0.2,1,0.5s0.5,0.5,0.7,0.8s0.3,0.7,0.3,1.1h-1.2
		C596.6,51.5,596.4,51.1,596.1,50.9z"/>
	<path d="M604.4,56.4c-0.5,0.4-1.2,0.6-2,0.6c-0.6,0-1.1-0.1-1.5-0.3s-0.8-0.4-1.1-0.8c-0.3-0.3-0.5-0.7-0.7-1.2s-0.2-1-0.2-1.5
		c0-0.6,0.1-1.1,0.3-1.5c0.2-0.5,0.4-0.9,0.7-1.2s0.7-0.6,1.1-0.8s0.9-0.3,1.4-0.3c0.6,0,1.2,0.1,1.6,0.4c0.4,0.3,0.8,0.6,1,1
		c0.3,0.4,0.4,0.9,0.5,1.3c0.1,0.5,0.1,0.9,0.1,1.4h-5.4c0,0.3,0,0.6,0.1,0.9c0.1,0.3,0.2,0.5,0.4,0.8c0.2,0.2,0.4,0.4,0.7,0.5
		s0.6,0.2,1,0.2c0.5,0,0.9-0.1,1.2-0.4c0.3-0.2,0.5-0.6,0.6-1.1h1.2C605.3,55.4,605,56,604.4,56.4z M604.1,51.8
		c-0.1-0.3-0.3-0.5-0.4-0.7c-0.2-0.2-0.4-0.3-0.6-0.4c-0.2-0.1-0.5-0.2-0.8-0.2s-0.6,0.1-0.8,0.2c-0.2,0.1-0.5,0.3-0.6,0.4
		c-0.2,0.2-0.3,0.4-0.4,0.7c-0.1,0.2-0.2,0.5-0.2,0.8h4.2C604.3,52.3,604.2,52,604.1,51.8z"/>
	<path d="M612.3,46.9v10H611v-10H612.3z"/>
	<path d="M615.6,46.9v10h-1.2v-10H615.6z"/>
	<path d="M618.7,46.9v10h-1.2v-10H618.7z"/>
	<path d="M621.7,49.6v1.1l0,0c0.5-0.9,1.3-1.3,2.4-1.3c0.5,0,0.9,0.1,1.2,0.2s0.6,0.3,0.8,0.5s0.3,0.5,0.4,0.8s0.1,0.7,0.1,1.1v4.8
		h-1.2V52c0-0.4-0.1-0.8-0.4-1.1s-0.6-0.4-1.1-0.4c-0.4,0-0.7,0.1-0.9,0.2c-0.3,0.1-0.5,0.3-0.7,0.5s-0.3,0.4-0.4,0.7
		s-0.1,0.6-0.1,0.9v4.1h-1.2v-7.2h1.1L621.7,49.6L621.7,49.6z"/>
	<path d="M633.4,56.4c-0.5,0.4-1.2,0.6-2,0.6c-0.6,0-1.1-0.1-1.5-0.3s-0.8-0.4-1.1-0.8c-0.3-0.3-0.5-0.7-0.7-1.2s-0.2-1-0.2-1.5
		c0-0.6,0.1-1.1,0.3-1.5c0.2-0.5,0.4-0.9,0.7-1.2s0.7-0.6,1.1-0.8s0.9-0.3,1.4-0.3c0.6,0,1.2,0.1,1.6,0.4c0.4,0.3,0.8,0.6,1,1
		c0.3,0.4,0.4,0.9,0.5,1.3c0.1,0.5,0.1,0.9,0.1,1.4h-5.4c0,0.3,0,0.6,0.1,0.9c0.1,0.3,0.2,0.5,0.4,0.8c0.2,0.2,0.4,0.4,0.7,0.5
		s0.6,0.2,1,0.2c0.5,0,0.9-0.1,1.2-0.4c0.3-0.2,0.5-0.6,0.6-1.1h1.2C634.3,55.4,634,56,633.4,56.4z M633.2,51.8
		c-0.1-0.3-0.3-0.5-0.4-0.7c-0.2-0.2-0.4-0.3-0.6-0.4c-0.2-0.1-0.5-0.2-0.8-0.2s-0.6,0.1-0.8,0.2c-0.2,0.1-0.5,0.3-0.6,0.4
		c-0.2,0.2-0.3,0.4-0.4,0.7c-0.1,0.2-0.2,0.5-0.2,0.8h4.2C633.3,52.3,633.3,52,633.2,51.8z"/>
	<path d="M636.7,55.3c0.1,0.2,0.3,0.3,0.4,0.4c0.2,0.1,0.4,0.2,0.6,0.2c0.2,0,0.5,0.1,0.7,0.1s0.4,0,0.6,0c0.2,0,0.4-0.1,0.6-0.2
		c0.2-0.1,0.3-0.2,0.4-0.3c0.1-0.1,0.2-0.3,0.2-0.6s-0.1-0.5-0.3-0.7s-0.5-0.3-0.9-0.4s-0.7-0.2-1.1-0.3c-0.4-0.1-0.8-0.2-1.1-0.3
		s-0.6-0.3-0.9-0.6s-0.3-0.6-0.3-1.1c0-0.4,0.1-0.7,0.2-0.9c0.2-0.3,0.4-0.5,0.6-0.6s0.5-0.3,0.9-0.4c0.3-0.1,0.6-0.1,1-0.1
		s0.8,0,1.1,0.1s0.7,0.2,0.9,0.4c0.3,0.2,0.5,0.4,0.6,0.7c0.2,0.3,0.3,0.7,0.3,1.1H640c0-0.2-0.1-0.4-0.2-0.6
		c-0.1-0.2-0.2-0.3-0.4-0.4c-0.2-0.1-0.3-0.2-0.5-0.2s-0.4-0.1-0.6-0.1c-0.2,0-0.4,0-0.5,0c-0.2,0-0.3,0.1-0.5,0.1s-0.3,0.2-0.4,0.3
		c-0.1,0.1-0.1,0.3-0.1,0.5s0.1,0.4,0.2,0.5s0.3,0.2,0.6,0.3c0.2,0.1,0.5,0.2,0.8,0.2c0.3,0.1,0.6,0.1,0.8,0.2
		c0.3,0.1,0.6,0.1,0.9,0.2c0.3,0.1,0.5,0.2,0.8,0.4c0.2,0.2,0.4,0.3,0.5,0.6c0.1,0.2,0.2,0.5,0.2,0.9s-0.1,0.8-0.3,1.1
		s-0.4,0.5-0.7,0.7s-0.6,0.3-1,0.4s-0.7,0.1-1.1,0.1c-0.4,0-0.8,0-1.1-0.1s-0.7-0.2-1-0.4s-0.5-0.4-0.7-0.8s-0.3-0.7-0.3-1.1h1.2
		C636.6,54.9,636.6,55.1,636.7,55.3z"/>
	<path d="M643.7,55.3c0.1,0.2,0.3,0.3,0.4,0.4c0.2,0.1,0.4,0.2,0.6,0.2c0.2,0,0.5,0.1,0.7,0.1s0.4,0,0.6,0c0.2,0,0.4-0.1,0.6-0.2
		c0.2-0.1,0.3-0.2,0.4-0.3c0.1-0.1,0.2-0.3,0.2-0.6s-0.1-0.5-0.3-0.7s-0.5-0.3-0.9-0.4s-0.7-0.2-1.1-0.3c-0.4-0.1-0.8-0.2-1.1-0.3
		s-0.6-0.3-0.9-0.6s-0.3-0.6-0.3-1.1c0-0.4,0.1-0.7,0.2-0.9c0.2-0.3,0.4-0.5,0.6-0.6s0.5-0.3,0.9-0.4c0.3-0.1,0.6-0.1,1-0.1
		s0.8,0,1.1,0.1s0.7,0.2,0.9,0.4c0.3,0.2,0.5,0.4,0.6,0.7c0.2,0.3,0.3,0.7,0.3,1.1H647c0-0.2-0.1-0.4-0.2-0.6
		c-0.1-0.2-0.2-0.3-0.4-0.4c-0.2-0.1-0.3-0.2-0.5-0.2s-0.4-0.1-0.6-0.1c-0.2,0-0.4,0-0.5,0c-0.2,0-0.3,0.1-0.5,0.1s-0.3,0.2-0.4,0.3
		c-0.1,0.1-0.1,0.3-0.1,0.5s0.1,0.4,0.2,0.5s0.3,0.2,0.6,0.3c0.2,0.1,0.5,0.2,0.8,0.2c0.3,0.1,0.6,0.1,0.8,0.2
		c0.3,0.1,0.6,0.1,0.9,0.2c0.3,0.1,0.5,0.2,0.8,0.4c0.2,0.2,0.4,0.3,0.5,0.6c0.1,0.2,0.2,0.5,0.2,0.9s-0.1,0.8-0.3,1.1
		s-0.4,0.5-0.7,0.7s-0.6,0.3-1,0.4s-0.7,0.1-1.1,0.1c-0.4,0-0.8,0-1.1-0.1s-0.7-0.2-1-0.4s-0.5-0.4-0.7-0.8s-0.3-0.7-0.3-1.1h1.2
		C643.6,54.9,643.6,55.1,643.7,55.3z"/>
	<path d="M655,56.4c-0.5,0.4-1.2,0.6-2,0.6c-0.6,0-1.1-0.1-1.5-0.3s-0.8-0.4-1.1-0.8s-0.5-0.7-0.7-1.2c-0.1-0.5-0.2-1-0.2-1.5
		c0-0.6,0.1-1.1,0.3-1.5c0.2-0.5,0.4-0.9,0.7-1.2s0.7-0.6,1.1-0.8c0.4-0.2,0.9-0.3,1.4-0.3c0.6,0,1.2,0.1,1.6,0.4
		c0.4,0.3,0.8,0.6,1,1c0.3,0.4,0.4,0.9,0.5,1.3c0.1,0.5,0.1,0.9,0.1,1.4h-5.4c0,0.3,0,0.6,0.1,0.9c0.1,0.3,0.2,0.5,0.4,0.8
		c0.2,0.2,0.4,0.4,0.7,0.5s0.6,0.2,1,0.2c0.5,0,0.9-0.1,1.2-0.4c0.3-0.2,0.5-0.6,0.6-1.1h1.2C655.9,55.4,655.5,56,655,56.4z
		 M654.7,51.8c-0.1-0.3-0.3-0.5-0.4-0.7c-0.2-0.2-0.4-0.3-0.6-0.4c-0.2-0.1-0.5-0.2-0.8-0.2s-0.6,0.1-0.8,0.2
		c-0.2,0.1-0.5,0.3-0.6,0.4c-0.2,0.2-0.3,0.4-0.4,0.7c-0.1,0.2-0.2,0.5-0.2,0.8h4.2C654.8,52.3,654.8,52,654.7,51.8z"/>
	<path d="M658.3,55.3c0.1,0.2,0.3,0.3,0.4,0.4c0.2,0.1,0.4,0.2,0.6,0.2c0.2,0,0.5,0.1,0.7,0.1s0.4,0,0.6,0c0.2,0,0.4-0.1,0.6-0.2
		c0.2-0.1,0.3-0.2,0.4-0.3c0.1-0.1,0.2-0.3,0.2-0.6s-0.1-0.5-0.3-0.7s-0.5-0.3-0.9-0.4s-0.7-0.2-1.1-0.3c-0.4-0.1-0.8-0.2-1.1-0.3
		s-0.6-0.3-0.9-0.6S657,52,657,51.5c0-0.4,0.1-0.7,0.2-0.9c0.2-0.3,0.4-0.5,0.6-0.6s0.5-0.3,0.9-0.4c0.3-0.1,0.6-0.1,1-0.1
		s0.8,0,1.1,0.1s0.7,0.2,0.9,0.4c0.3,0.2,0.5,0.4,0.6,0.7c0.2,0.3,0.3,0.7,0.3,1.1h-1.2c0-0.2-0.1-0.4-0.2-0.6
		c-0.1-0.2-0.2-0.3-0.4-0.4c-0.2-0.1-0.3-0.2-0.5-0.2s-0.4-0.1-0.6-0.1c-0.2,0-0.4,0-0.5,0c-0.2,0-0.3,0.1-0.5,0.1s-0.3,0.2-0.4,0.3
		c-0.1,0.1-0.1,0.3-0.1,0.5s0.1,0.4,0.2,0.5s0.3,0.2,0.6,0.3c0.2,0.1,0.5,0.2,0.8,0.2c0.3,0.1,0.6,0.1,0.8,0.2
		c0.3,0.1,0.6,0.1,0.9,0.2c0.3,0.1,0.5,0.2,0.8,0.4c0.2,0.2,0.4,0.3,0.5,0.6c0.1,0.2,0.2,0.5,0.2,0.9s-0.1,0.8-0.3,1.1
		s-0.4,0.5-0.7,0.7s-0.6,0.3-1,0.4s-0.7,0.1-1,0.1c-0.4,0-0.8,0-1.1-0.1s-0.7-0.2-1-0.4s-0.5-0.4-0.7-0.8s-0.3-0.7-0.3-1.1h1.2
		C658.1,54.9,658.2,55.1,658.3,55.3z"/>
	<path d="M674.7,56.8c-0.2,0.1-0.5,0.2-0.9,0.2c-0.3,0-0.6-0.1-0.7-0.3c-0.2-0.2-0.3-0.5-0.3-0.8c-0.3,0.4-0.7,0.7-1.1,0.8
		c-0.4,0.2-0.9,0.3-1.4,0.3c-0.3,0-0.6,0-0.9-0.1c-0.3-0.1-0.5-0.2-0.8-0.3c-0.2-0.2-0.4-0.4-0.5-0.6s-0.2-0.6-0.2-0.9
		c0-0.4,0.1-0.7,0.2-1c0.1-0.3,0.3-0.5,0.6-0.6c0.2-0.2,0.5-0.3,0.8-0.4c0.3-0.1,0.6-0.2,0.9-0.2c0.3-0.1,0.6-0.1,0.9-0.1
		c0.3,0,0.6-0.1,0.8-0.1c0.2-0.1,0.4-0.1,0.5-0.3c0.1-0.1,0.2-0.3,0.2-0.5c0-0.3,0-0.5-0.1-0.6c-0.1-0.2-0.2-0.3-0.4-0.4
		c-0.2-0.1-0.3-0.1-0.5-0.2c-0.2,0-0.4,0-0.6,0c-0.5,0-0.9,0.1-1.3,0.3c-0.3,0.2-0.5,0.6-0.5,1.1h-1.2c0-0.4,0.1-0.8,0.3-1.1
		s0.4-0.6,0.7-0.7s0.6-0.3,1-0.4s0.7-0.1,1.2-0.1c0.3,0,0.7,0,1,0.1s0.6,0.1,0.9,0.3c0.3,0.1,0.5,0.3,0.6,0.6s0.2,0.6,0.2,1v3.7
		c0,0.3,0,0.5,0,0.6s0.1,0.2,0.3,0.2c0.1,0,0.2,0,0.4-0.1v0.6H674.7z M672.7,53.1c-0.1,0.1-0.3,0.2-0.6,0.2
		c-0.2,0.1-0.5,0.1-0.8,0.1s-0.5,0.1-0.8,0.1s-0.5,0.1-0.7,0.2s-0.4,0.2-0.5,0.4s-0.2,0.4-0.2,0.7c0,0.2,0,0.4,0.1,0.5
		s0.2,0.2,0.3,0.3s0.3,0.1,0.4,0.2s0.3,0.1,0.5,0.1c0.4,0,0.7-0.1,1-0.2c0.3-0.1,0.5-0.2,0.7-0.4s0.3-0.3,0.4-0.5s0.1-0.4,0.1-0.5
		L672.7,53.1L672.7,53.1z"/>
	<path d="M676.9,49.6v1.1l0,0c0.5-0.9,1.3-1.3,2.4-1.3c0.5,0,0.9,0.1,1.2,0.2s0.6,0.3,0.8,0.5s0.3,0.5,0.4,0.8
		c0.1,0.3,0.1,0.7,0.1,1.1v4.8h-1.2V52c0-0.4-0.1-0.8-0.4-1.1c-0.3-0.3-0.6-0.4-1.1-0.4c-0.4,0-0.7,0.1-0.9,0.2
		c-0.3,0.1-0.5,0.3-0.7,0.5s-0.3,0.4-0.4,0.7c-0.1,0.3-0.1,0.6-0.1,0.9v4.1h-1.2v-7.2h1.1L676.9,49.6L676.9,49.6z"/>
	<path d="M688.8,56.9v-1l0,0c-0.2,0.4-0.5,0.7-0.9,0.9s-0.9,0.3-1.4,0.3c-0.6,0-1-0.1-1.5-0.3s-0.8-0.5-1-0.8
		c-0.3-0.3-0.5-0.7-0.6-1.2s-0.2-0.9-0.2-1.5c0-0.5,0.1-1,0.2-1.5c0.1-0.5,0.3-0.9,0.6-1.2s0.6-0.6,1-0.8s0.9-0.3,1.4-0.3
		c0.2,0,0.4,0,0.6,0.1s0.4,0.1,0.6,0.2c0.2,0.1,0.4,0.2,0.6,0.4c0.2,0.1,0.4,0.3,0.5,0.5l0,0V47h1.2v10L688.8,56.9L688.8,56.9
		L688.8,56.9z M684.6,54.3c0.1,0.3,0.2,0.6,0.4,0.9c0.2,0.3,0.4,0.5,0.7,0.6s0.6,0.2,1,0.2s0.7-0.1,1-0.2c0.3-0.2,0.5-0.4,0.7-0.6
		c0.2-0.3,0.3-0.5,0.4-0.9c0.1-0.3,0.1-0.7,0.1-1c0-0.4,0-0.7-0.1-1s-0.2-0.6-0.4-0.9c-0.2-0.3-0.4-0.5-0.7-0.6s-0.6-0.2-1-0.2
		s-0.7,0.1-1,0.2c-0.3,0.2-0.5,0.4-0.7,0.6c-0.2,0.3-0.3,0.6-0.4,0.9c-0.1,0.3-0.1,0.7-0.1,1C684.4,53.7,684.5,54,684.6,54.3z"/>
	<path d="M697.3,46.9v10H696v-10H697.3z"/>
	<path d="M700.5,49.6v1.1l0,0c0.5-0.9,1.3-1.3,2.4-1.3c0.5,0,0.9,0.1,1.2,0.2s0.6,0.3,0.8,0.5s0.3,0.5,0.4,0.8s0.1,0.7,0.1,1.1v4.8
		h-1.2V52c0-0.4-0.1-0.8-0.4-1.1s-0.6-0.4-1.1-0.4c-0.4,0-0.7,0.1-0.9,0.2c-0.3,0.1-0.5,0.3-0.7,0.5s-0.3,0.4-0.4,0.7
		s-0.1,0.6-0.1,0.9v4.1h-1.2v-7.2h1.1L700.5,49.6L700.5,49.6z"/>
	<path d="M707.9,59.2c-0.3,0.3-0.7,0.4-1.3,0.4c-0.2,0-0.4,0-0.6-0.1v-1h0.1h0.1h0.3c0.3,0,0.4-0.1,0.5-0.2c0.1-0.1,0.1-0.4,0.1-0.8
		v-8h1.2v8.1C708.4,58.4,708.3,58.9,707.9,59.2z M707.2,48.3v-1.5h1.2v1.5H707.2z"/>
	<path d="M715.1,56.9v-1.1l0,0c-0.3,0.4-0.6,0.8-1,1s-0.9,0.3-1.4,0.3s-0.9-0.1-1.2-0.2c-0.3-0.1-0.6-0.3-0.8-0.5s-0.3-0.5-0.4-0.8
		c-0.1-0.3-0.1-0.7-0.1-1.1v-4.8h1.2v4.9c0,0.4,0.1,0.8,0.4,1.1c0.3,0.3,0.6,0.4,1.1,0.4c0.4,0,0.7-0.1,0.9-0.2
		c0.3-0.1,0.5-0.3,0.7-0.5s0.3-0.4,0.4-0.7s0.1-0.6,0.1-0.9v-4.1h1.2v7.2C716.2,56.9,715.1,56.9,715.1,56.9z"/>
	<path d="M719.1,49.6v1.5l0,0c0.3-0.6,0.6-1,1.1-1.3c0.4-0.3,1-0.4,1.6-0.4v1.3c-0.5,0-0.9,0.1-1.2,0.2s-0.6,0.3-0.8,0.6
		s-0.4,0.6-0.4,0.9c-0.1,0.4-0.1,0.8-0.1,1.2v3.2H718v-7.2H719.1z"/>
	<path d="M722.8,48.3v-1.5h1.2v1.5H722.8z M724,49.6v7.2h-1.2v-7.2H724z"/>
	<path d="M730.9,56.4c-0.5,0.4-1.2,0.6-2,0.6c-0.6,0-1.1-0.1-1.5-0.3s-0.8-0.4-1.1-0.8s-0.5-0.7-0.7-1.2c-0.1-0.5-0.2-1-0.2-1.5
		c0-0.6,0.1-1.1,0.3-1.5c0.2-0.5,0.4-0.9,0.7-1.2s0.7-0.6,1.1-0.8c0.4-0.2,0.9-0.3,1.4-0.3c0.6,0,1.2,0.1,1.6,0.4
		c0.4,0.3,0.8,0.6,1,1c0.3,0.4,0.4,0.9,0.5,1.3c0.1,0.5,0.1,0.9,0.1,1.4h-5.4c0,0.3,0,0.6,0.1,0.9c0.1,0.3,0.2,0.5,0.4,0.8
		c0.2,0.2,0.4,0.4,0.7,0.5s0.6,0.2,1,0.2c0.5,0,0.9-0.1,1.2-0.4c0.3-0.2,0.5-0.6,0.6-1.1h1.2C731.8,55.4,731.5,56,730.9,56.4z
		 M730.7,51.8c-0.1-0.3-0.3-0.5-0.4-0.7c-0.2-0.2-0.4-0.3-0.6-0.4c-0.2-0.1-0.5-0.2-0.8-0.2s-0.6,0.1-0.8,0.2
		c-0.2,0.1-0.5,0.3-0.6,0.4c-0.2,0.2-0.3,0.4-0.4,0.7c-0.1,0.2-0.2,0.5-0.2,0.8h4.2C730.8,52.3,730.8,52,730.7,51.8z"/>
	<path d="M734.2,55.3c0.1,0.2,0.3,0.3,0.4,0.4c0.2,0.1,0.4,0.2,0.6,0.2c0.2,0,0.5,0.1,0.7,0.1s0.4,0,0.6,0c0.2,0,0.4-0.1,0.6-0.2
		c0.2-0.1,0.3-0.2,0.4-0.3c0.1-0.1,0.2-0.3,0.2-0.6s-0.1-0.5-0.3-0.7s-0.5-0.3-0.9-0.4s-0.7-0.2-1.1-0.3c-0.4-0.1-0.8-0.2-1.1-0.3
		s-0.6-0.3-0.9-0.6S733,52,733,51.5c0-0.4,0.1-0.7,0.2-0.9c0.2-0.3,0.4-0.5,0.6-0.6s0.5-0.3,0.9-0.4c0.3-0.1,0.6-0.1,1-0.1
		s0.8,0,1.1,0.1s0.7,0.2,0.9,0.4c0.3,0.2,0.5,0.4,0.6,0.7c0.2,0.3,0.3,0.7,0.3,1.1h-1.2c0-0.2-0.1-0.4-0.2-0.6
		c-0.1-0.2-0.2-0.3-0.4-0.4c-0.2-0.1-0.3-0.2-0.5-0.2s-0.4-0.1-0.6-0.1c-0.2,0-0.4,0-0.5,0c-0.2,0-0.3,0.1-0.5,0.1s-0.3,0.2-0.4,0.3
		c-0.1,0.1-0.1,0.3-0.1,0.5s0.1,0.4,0.2,0.5s0.3,0.2,0.6,0.3c0.2,0.1,0.5,0.2,0.8,0.2c0.3,0.1,0.6,0.1,0.8,0.2
		c0.3,0.1,0.6,0.1,0.9,0.2c0.3,0.1,0.5,0.2,0.8,0.4c0.2,0.2,0.4,0.3,0.5,0.6c0.1,0.2,0.2,0.5,0.2,0.9s-0.1,0.8-0.3,1.1
		s-0.4,0.5-0.7,0.7s-0.6,0.3-1,0.4s-0.7,0.1-1.1,0.1c-0.4,0-0.8,0-1.1-0.1s-0.7-0.2-1-0.4s-0.5-0.4-0.7-0.8s-0.3-0.7-0.3-1.1h1.2
		C734.1,54.9,734.1,55.1,734.2,55.3z"/>
</g>
<g>
	<line fill="none" x1="764.3" y1="9.6" x2="749.3" y2="56"/>
	<polygon points="750.2,56.4 748.4,56.4 763.3,9.6 765.3,9.6 	"/>
</g>
<path d="M777.2,10.7h39.9l-15.3,47.1h-39.9L777.2,10.7L777.2,10.7z M764.4,55.9h10.8l5.7-17.4l6.8,17.4h12.9l9.7-29.6h-11.1
	l-5.6,17.1l-5.9-17.1h-13.6L764.4,55.9z"/>
<g>
	<path d="M859.5,29.6c-2.5-2.6-7-3.9-13.6-3.9s-12,1.3-16.2,3.9c-4.2,2.7-7.1,6.6-8.8,11.7s-1.3,9,1.2,11.6c2.5,2.6,7,3.9,13.6,3.9
		s12-1.3,16.2-3.9c4.2-2.6,7.1-6.5,8.8-11.6C862.4,36.1,862,32.3,859.5,29.6z M848.4,41.5c-0.9,2.6-2.2,4.5-3.9,5.9
		c-1.7,1.3-3.8,2-6.3,2s-4.1-0.6-5-2c-0.8-1.3-0.8-3.3,0-5.9c0.9-2.6,2.2-4.5,3.9-6c1.7-1.4,3.8-2.1,6.3-2.1s4.1,0.7,5,2.1
		C849.2,36.8,849.2,38.8,848.4,41.5z"/>
	<polygon points="813.7,27 804,56.6 815.5,56.6 825.2,27 	"/>
	<path d="M895.7,40.7c-1.1-1.5-3.3-2.4-6.4-2.9l-10-1.5c-1.7-0.2-2.8-0.5-3.3-0.8c-0.4-0.3-0.6-0.7-0.4-1.3c0.2-0.6,0.8-1,1.6-1.4
		c0.8-0.3,1.9-0.5,3.2-0.5c1.8,0,3.1,0.2,3.9,0.7s1.2,1.2,1,2.1h13.3c0.8-3.2-0.1-5.6-2.6-7.1s-6.8-2.3-13-2.3
		c-5.9,0-10.5,0.8-13.7,2.3c-3.2,1.6-5.3,4-6.4,7.3c-0.8,2.5-0.5,4.5,0.8,6s3.7,2.5,7.1,2.9l8.2,1.1c1.3,0.1,2.3,0.4,2.8,0.8
		c0.5,0.4,0.7,0.9,0.5,1.5c-0.3,0.7-0.8,1.2-1.7,1.6c-0.8,0.3-2.1,0.5-3.6,0.5c-1.6,0-2.7-0.3-3.5-0.7c-0.8-0.5-1.1-1.1-0.9-1.9
		h-13.9c-1,3.2-0.3,5.7,2,7.3c2.4,1.7,6.4,2.6,11.9,2.6c6.9,0,12.3-0.8,16.1-2.5s6.3-4.4,7.5-8C897,44.1,896.8,42.1,895.7,40.7z"/>
	<polygon points="927.8,26.5 924.5,36.8 911.4,36.8 914.7,26.5 903.2,26.5 893.5,56.1 905,56.1 908.9,44.1 922,44.1 918.1,56.1
		929.6,56.1 939.3,26.5 	"/>
</g>
<g id="CQpz4f.tif">
	<g>
		<g>
			<path d="M943,26.5c0.1,0,0.1,0,0.2,0c0,0,0,0,0,0c0.1,0,0.2,0,0.4,0c0.2,0,0.4,0.1,0.6,0.2c0.5,0.2,0.9,0.5,1.3,1
				c0.3,0.3,0.4,0.7,0.5,1.2c0,0.1,0,0.3,0.1,0.4c0,0,0,0.1,0,0.1c0,0.1,0,0.1,0,0.2c0,0,0,0,0,0c0,0.1,0,0.3,0,0.4
				c0,0.2-0.1,0.5-0.2,0.7c-0.2,0.5-0.5,0.8-0.9,1.2c-0.3,0.2-0.7,0.4-1.1,0.5c-0.2,0-0.3,0.1-0.5,0.1c0,0-0.1,0-0.1,0
				c-0.1,0-0.1,0-0.2,0c0,0,0,0,0,0c-0.1,0-0.3,0-0.4,0c-0.2,0-0.5-0.1-0.7-0.2c-0.4-0.2-0.7-0.4-1-0.8c-0.3-0.3-0.4-0.6-0.6-1
				c-0.1-0.2-0.1-0.5-0.1-0.7c0,0,0-0.1,0-0.1c0-0.1,0-0.1,0-0.2c0,0,0,0,0,0c0-0.1,0-0.2,0-0.4c0-0.3,0.1-0.5,0.2-0.7
				c0.2-0.4,0.4-0.7,0.8-1c0.4-0.3,0.8-0.5,1.2-0.6C942.6,26.5,942.7,26.5,943,26.5C943,26.5,943,26.5,943,26.5z M940.8,29.4
				c0,1.3,1,2.3,2.3,2.3c1.3,0,2.3-1,2.3-2.3c0-1.3-1-2.3-2.3-2.3C941.8,27.1,940.8,28.1,940.8,29.4z"/>
			<path d="M943.6,29.5c0.1,0,0.1,0,0.2,0.1c0.1,0.1,0.2,0.1,0.2,0.2c0.1,0.1,0.1,0.2,0.2,0.3c0.1,0.3,0.3,0.6,0.4,0.9c0,0,0,0,0,0
				c0,0,0,0,0,0c-0.3,0-0.5,0-0.8,0c0,0,0,0,0,0c-0.1-0.3-0.3-0.5-0.4-0.8c0-0.1-0.1-0.2-0.1-0.2c-0.1-0.1-0.2-0.1-0.3-0.2
				c-0.1,0-0.2,0-0.3,0c0,0,0,0,0,0c0,0.4,0,0.8,0,1.2c-0.3,0-0.5,0-0.8,0c0-1,0-2,0-3.1c0,0,0,0,0,0c0.4,0,0.8,0,1.2,0
				c0.2,0,0.3,0,0.5,0c0.1,0,0.2,0.1,0.3,0.1c0.2,0.1,0.3,0.2,0.3,0.4c0,0.2,0.1,0.4,0,0.5c-0.1,0.2-0.2,0.3-0.3,0.4
				C943.8,29.4,943.7,29.4,943.6,29.5C943.6,29.5,943.6,29.5,943.6,29.5z M942.6,29.2C942.6,29.2,942.6,29.2,942.6,29.2
				c0.1,0,0.2,0,0.3,0c0.1,0,0.2,0,0.2,0c0.1,0,0.2-0.1,0.2-0.2c0-0.1,0-0.2,0-0.3c0-0.1-0.1-0.2-0.2-0.2c-0.1,0-0.1,0-0.2,0
				c-0.1,0-0.2,0-0.3,0c0,0,0,0,0,0C942.6,28.7,942.6,28.9,942.6,29.2z"/>
		</g>
	</g>
</g>
</svg>
