<?xml version="1.0" encoding="utf-8"?>
<!-- Generator: Adobe Illustrator 18.1.1, SVG Export Plug-In . SVG Version: 6.00 Build 0)  -->
<svg version="1.1" id="Layer_1" xmlns="http://www.w3.org/2000/svg" xmlns:xlink="http://www.w3.org/1999/xlink" x="0px" y="0px"
	 viewBox="0 0 86.996 90.226" enable-background="new 0 0 86.996 90.226" xml:space="preserve">
<image overflow="visible" width="1920" height="1080" xlink:href="BCC68DF9.jpg"  transform="matrix(1 0 0 1 -654.6378 -763.9277)">
</image>
<g>
	<g>
		<path fill="#0077C6" d="M43.498,70.933c14.261,0,25.822-11.561,25.822-25.821c0-14.26-11.561-25.819-25.822-25.819
			c-14.261,0-25.821,11.559-25.821,25.819C17.676,59.373,29.237,70.933,43.498,70.933"/>
	</g>
</g>
<g>
	<path fill="#FFFFFF" d="M37.1,44.621l-2.341-2.341l11.12-11.12l2.341,2.341L37.1,44.621z M45.366,37.526l3.732-3.732l0.121-0.293
		l-0.121-0.293l-2.927-2.927h-0.585L33.881,41.987v0.585l2.927,2.927L37.1,45.62l0.293-0.121l7.374-7.373
		c5.862,3.601,9.537,10.004,9.681,16.866H34.173c-0.228,0-0.414,0.184-0.414,0.414c0,0.228,0.186,0.414,0.414,0.414h20.691
		c0.23,0,0.414-0.186,0.414-0.414C55.279,48.166,51.49,41.371,45.366,37.526"/>
	<path fill="#FFFFFF" d="M34.174,51.681h8.278c0.228,0,0.414-0.186,0.414-0.414c0-0.23-0.186-0.414-0.414-0.414h-8.278
		c-0.228,0-0.414,0.184-0.414,0.414C33.76,51.495,33.946,51.681,34.174,51.681"/>
</g>
</svg>
