<?xml version="1.0" encoding="utf-8"?>
<!-- Generator: Adobe Illustrator 18.1.1, SVG Export Plug-In . SVG Version: 6.00 Build 0)  -->
<svg version="1.1" id="Layer_1" xmlns="http://www.w3.org/2000/svg" xmlns:xlink="http://www.w3.org/1999/xlink" x="0px" y="0px"
	 viewBox="0 0 86.996 90.226" enable-background="new 0 0 86.996 90.226" xml:space="preserve">
<image overflow="visible" width="1920" height="1080" xlink:href="BCD37AC3.jpg"  transform="matrix(1 0 0 1 -654.6378 -763.9277)">
</image>
<g>
	<g>
		<path fill="#0077C6" d="M43.498,70.933c14.261,0,25.822-11.561,25.822-25.821c0-14.26-11.561-25.819-25.822-25.819
			c-14.261,0-25.821,11.559-25.821,25.819C17.676,59.373,29.237,70.933,43.498,70.933"/>
	</g>
	<g>
		<path fill="#FFFFFF" d="M52.77,56.569c-0.751,0-1.362-0.61-1.362-1.361c0-0.751,0.611-1.361,1.362-1.361
			c0.75,0,1.361,0.61,1.361,1.361C54.131,55.959,53.52,56.569,52.77,56.569 M54.735,55.208c0-1.084-0.882-1.965-1.965-1.965
			c-1.084,0-1.966,0.881-1.966,1.965c0,0.923,0.643,1.695,1.503,1.904c-0.222,0.96-0.637,1.841-1.232,2.556
			c-0.895,1.073-2.066,1.663-3.298,1.663h-0.291c-1.233,0-2.405-0.59-3.299-1.663c-0.914-1.098-1.417-2.555-1.417-4.105l0.046-0.005
			c2.814-0.387,4.584-1.562,5.569-3.696c0.07-0.151,0.004-0.331-0.148-0.401c-0.152-0.069-0.33-0.003-0.401,0.148
			c-0.902,1.956-2.476,2.989-5.108,3.351c-0.503,0.078-0.949,0.004-0.965,0.001c-2.642-0.354-4.223-1.387-5.128-3.352
			c-0.07-0.151-0.25-0.218-0.401-0.148c-0.151,0.07-0.217,0.249-0.148,0.401c0.988,2.143,2.766,3.318,5.585,3.695
			c0.013,0.002,0.212,0.034,0.496,0.04c0.009,1.678,0.559,3.26,1.556,4.457c1.011,1.213,2.348,1.881,3.763,1.881h0.291
			c1.414,0,2.75-0.668,3.762-1.881c0.674-0.809,1.14-1.809,1.377-2.896C53.93,57.082,54.735,56.242,54.735,55.208"/>
		<path fill="#FFFFFF" d="M33.904,45.472c-0.151-0.06-0.314-0.306-0.314-0.704c0-0.849-0.182-1.454-0.582-2.782l-0.093-0.309
			c-0.084-0.279-0.066-0.49,0.055-0.645c0.211-0.27,0.704-0.363,1.049-0.387v0.651L34,41.374c-0.004,0.145-0.007,0.29-0.007,0.437
			c0,1.195,0.163,2.34,0.449,3.413C34.243,45.438,34.046,45.527,33.904,45.472 M34.622,32.403c2.078-1.186,4.869-1.864,7.692-1.864
			c2.854,0,5.664,0.678,7.742,1.864v8.704c-4.049,0.547-6.592-2.899-6.618-2.934c-0.071-0.1-0.199-0.142-0.318-0.113
			c-0.119,0.03-0.209,0.133-0.226,0.255c-0.004,0.025-0.442,2.487-8.293,3.598l-0.004-0.102c0-0.106,0.003-0.211,0.005-0.315
			l0.02-0.101V32.403z M51.708,41.032c0.121,0.154,0.139,0.365,0.055,0.645l-0.093,0.311c-0.399,1.326-0.582,1.932-0.582,2.78
			c0,0.398-0.162,0.644-0.314,0.704c-0.141,0.056-0.339-0.034-0.538-0.248l-0.042-0.03c0.269-1.013,0.424-2.092,0.438-3.214
			l0.028-0.124v-1.211C51.002,40.67,51.499,40.763,51.708,41.032 M42.314,51.831c-4.071,0-7.408-4.118-7.689-9.312
			c6.312-0.885,8.138-2.676,8.66-3.587c0.855,0.954,3.29,3.219,6.771,2.784v0.095l-0.026,0.118
			C49.982,47.389,46.52,51.831,42.314,51.831 M42.314,52.435c3.457,0,6.442-2.74,7.692-6.605c0.221,0.173,0.454,0.262,0.68,0.262
			c0.105,0,0.209-0.019,0.31-0.059c0.423-0.166,0.696-0.663,0.696-1.265c0-0.759,0.163-1.3,0.556-2.606l0.093-0.311
			c0.178-0.591,0.013-0.974-0.157-1.191c-0.38-0.487-1.107-0.597-1.524-0.619V32.23c0-0.107-0.057-0.206-0.148-0.26
			c-2.182-1.293-5.171-2.035-8.198-2.035c-2.996,0-5.965,0.742-8.147,2.035c-0.092,0.054-0.148,0.153-0.148,0.26v7.811
			c-0.417,0.022-1.144,0.132-1.525,0.619c-0.169,0.217-0.334,0.6-0.157,1.191l0.093,0.309c0.394,1.307,0.557,1.848,0.557,2.608
			c0,0.602,0.273,1.099,0.696,1.265c0.1,0.04,0.204,0.059,0.31,0.059c0.21,0,0.425-0.081,0.632-0.23
			C35.875,49.715,38.849,52.435,42.314,52.435"/>
		<path fill="#FFFFFF" d="M40.184,34.045h1.507c0.167,0,0.302-0.135,0.302-0.302v-1.507h0.64v1.507c0,0.167,0.135,0.302,0.302,0.302
			h1.507v0.64h-1.507c-0.167,0-0.302,0.135-0.302,0.302v1.507h-0.64v-1.507c0-0.167-0.135-0.302-0.302-0.302h-1.507V34.045z
			 M39.882,35.289h1.507v1.507c0,0.167,0.135,0.302,0.302,0.302h1.244c0.167,0,0.302-0.135,0.302-0.302v-1.507h1.507
			c0.167,0,0.302-0.135,0.302-0.302v-1.244c0-0.167-0.135-0.302-0.302-0.302h-1.507v-1.507c0-0.167-0.135-0.302-0.302-0.302h-1.244
			c-0.167,0-0.302,0.135-0.302,0.302v1.507h-1.507c-0.167,0-0.302,0.135-0.302,0.302v1.244
			C39.58,35.154,39.715,35.289,39.882,35.289"/>
	</g>
</g>
</svg>
