<?xml version="1.0" encoding="utf-8"?>
<!-- Generator: Adobe Illustrator 18.1.1, SVG Export Plug-In . SVG Version: 6.00 Build 0)  -->
<svg version="1.1" id="Layer_1" xmlns="http://www.w3.org/2000/svg" xmlns:xlink="http://www.w3.org/1999/xlink" x="0px" y="0px"
	 viewBox="0 0 86.996 90.226" enable-background="new 0 0 86.996 90.226" xml:space="preserve">
<image overflow="visible" width="1920" height="1080" xlink:href="8EB01951.jpg"  transform="matrix(1 0 0 1 -654.6378 -763.9277)">
</image>
<g>
	<g>
		<path fill="#0077C6" d="M43.498,70.933c14.261,0,25.822-11.561,25.822-25.821c0-14.26-11.561-25.819-25.822-25.819
			c-14.261,0-25.821,11.559-25.821,25.819C17.676,59.373,29.237,70.933,43.498,70.933"/>
	</g>
</g>
<path fill="#FFFFFF" stroke="#FFFFFF" stroke-width="0.25" stroke-miterlimit="10" d="M47.445,35.292"/>
<path fill="#FFFFFF" stroke="#FFFFFF" stroke-width="0.25" stroke-miterlimit="10" d="M50.479,37.278"/>
<path fill="#FFFFFF" stroke="#FFFFFF" stroke-width="0.25" stroke-miterlimit="10" d="M55.134,45.496
	c0,1.167-0.306,4.202-1.684,4.237c-0.007,0-0.171-0.015-0.284-0.166c-0.14-0.187-0.168-0.522-0.077-0.965
	c0.264-1.286,0.305-2.706,0.31-3.11c0.003-0.179-0.14-0.326-0.319-0.329h-0.005l-0.015,0.003c-2.73-0.817-7.016-4.88-7.058-4.921
	l-0.241-0.09L45.53,40.27c-0.031,0.037-3.198,3.703-11.331,4.295l-0.207,0.099l-0.003-0.002c-0.171-0.007-0.329,0.134-0.336,0.313
	c-0.005,0.173-0.008,0.346-0.008,0.52c0,0.657,0.052,1.298,0.129,1.928c0.016,0.404,0.055,0.81,0.132,1.177
	c0.091,0.443,0.064,0.778-0.077,0.965c-0.111,0.148-0.269,0.166-0.258,0.166c-1.402-0.036-1.71-3.071-1.71-4.237
	c0-5.293,3.531-12.664,11.635-12.664C51.284,32.832,55.134,39.9,55.134,45.496 M43.499,57.437c-4.569,0-8.359-4.344-9.073-10.014
	c-0.039-0.89,0.039-1.8,0.088-2.232c7.073-0.579,10.408-3.389,11.278-4.254c0.939,0.867,4.387,3.941,6.905,4.791
	C52.601,52.191,48.492,57.437,43.499,57.437 M43.456,32.141l-0.08,0.007l-0.116-0.007c-8.03,0-12.048,7.536-12.048,13.355
	c0,0.197,0.026,4.827,2.364,4.885c0.046-0.002,0.437-0.034,0.732-0.383c1.421,4.722,4.999,8.087,9.19,8.087
	c4.171,0,7.758-3.373,9.185-8.09c0.295,0.354,0.69,0.385,0.756,0.386c2.316-0.059,2.342-4.688,2.342-4.885
	C55.783,38.987,51.391,32.141,43.456,32.141"/>
<path fill="#FFFFFF" stroke="#FFFFFF" stroke-width="0.25" stroke-miterlimit="10" d="M39.577,54.723h7.956l0.58-5.513h-9.117
	L39.577,54.723z M47.826,55.372h-8.54c-0.166,0-0.305-0.126-0.323-0.29l-0.649-6.162l0.082-0.251l0.241-0.108h9.838l0.241,0.108
	l0.081,0.251l-0.649,6.162C48.13,55.247,47.992,55.372,47.826,55.372"/>
<rect x="50.109" y="47.766" transform="matrix(-0.1636 -0.9865 0.9865 -0.1636 9.6013 107.6423)" fill="#FFFFFF" stroke="#FFFFFF" stroke-width="0.25" stroke-miterlimit="10" width="0.648" height="3.97"/>
<rect x="34.39" y="49.41" transform="matrix(-0.989 -0.1477 0.1477 -0.989 65.43 104.3254)" fill="#FFFFFF" stroke="#FFFFFF" stroke-width="0.25" stroke-miterlimit="10" width="4.394" height="0.648"/>
<rect x="48.077" y="53.813" transform="matrix(-0.9495 -0.3136 0.3136 -0.9495 78.7662 120.9449)" fill="#FFFFFF" stroke="#FFFFFF" stroke-width="0.25" stroke-miterlimit="10" width="2.069" height="0.647"/>
<rect x="37.89" y="53.426" transform="matrix(-0.3147 -0.9492 0.9492 -0.3147 -1.4535 107.8713)" fill="#FFFFFF" stroke="#FFFFFF" stroke-width="0.25" stroke-miterlimit="10" width="0.647" height="2.069"/>
</svg>
