<?xml version="1.0" encoding="utf-8"?>
<!-- Generator: Adobe Illustrator 18.1.1, SVG Export Plug-In . SVG Version: 6.00 Build 0)  -->
<svg version="1.1" id="Layer_1" xmlns="http://www.w3.org/2000/svg" xmlns:xlink="http://www.w3.org/1999/xlink" x="0px" y="0px"
	 viewBox="0 0 86.996 90.226" enable-background="new 0 0 86.996 90.226" xml:space="preserve">
<image overflow="visible" width="1920" height="1080" xlink:href="ABADD6D9.jpg"  transform="matrix(1 0 0 1 -654.6378 -763.9277)">
</image>
<g>
	<g>
		<path fill="#0077C6" d="M43.498,70.933c14.261,0,25.822-11.561,25.822-25.821c0-14.26-11.561-25.819-25.822-25.819
			c-14.261,0-25.821,11.559-25.821,25.819C17.676,59.373,29.237,70.933,43.498,70.933"/>
	</g>
</g>
<g id="Outline_Icons_7_">
	<g>
		<path fill="none" stroke="#FFFFFF" stroke-linecap="round" stroke-linejoin="round" d="M44.498,49.37
			c1.699,0,5.662-2.265,5.662-5.662c1.699,0,1.699-3.397,0-3.397l-0.566-2.831c-4.529,0-4.529-1.699-5.096-2.265
			c-0.566,0.566-0.566,2.265-5.096,2.265l-0.566,2.831c-1.699,0-1.699,3.397,0,3.397C38.836,47.105,42.799,49.37,44.498,49.37z"/>
		<path fill="none" stroke="#FFFFFF" stroke-linecap="round" stroke-linejoin="round" d="M51.265,41.125l0.593-4.211
			c0,0,0.566-5.662-7.36-5.662s-7.36,5.662-7.36,5.662l0.604,4.184"/>
		<path fill="none" stroke="#FFFFFF" stroke-linecap="round" stroke-linejoin="round" d="M41.406,48.103l-6.991,2.121
			c-1.768,0.662-2.94,2.352-2.94,4.241v2.831H57.52v-2.831c0-1.889-1.171-3.578-2.939-4.241l-6.991-2.121"/>
	</g>
</g>
</svg>
