<?xml version="1.0" encoding="utf-8"?>
<!-- Generator: Adobe Illustrator 18.1.1, SVG Export Plug-In . SVG Version: 6.00 Build 0)  -->
<svg version="1.1" id="Layer_1" xmlns="http://www.w3.org/2000/svg" xmlns:xlink="http://www.w3.org/1999/xlink" x="0px" y="0px"
	 viewBox="0 0 86.996 90.226" enable-background="new 0 0 86.996 90.226" xml:space="preserve">
<image overflow="visible" width="1920" height="1080" xlink:href="5B44F292.jpg"  transform="matrix(1 0 0 1 -654.6378 -763.9277)">
</image>
<g>
	<g>
		<path fill="#0077C6" d="M43.498,70.933c14.261,0,25.822-11.561,25.822-25.821c0-14.26-11.561-25.819-25.822-25.819
			c-14.261,0-25.821,11.559-25.821,25.819C17.676,59.373,29.237,70.933,43.498,70.933"/>
	</g>
</g>
<circle fill="none" stroke="#FFFFFF" stroke-linecap="round" stroke-linejoin="round" cx="43.162" cy="40.992" r="8.176"/>
<path fill="none" stroke="#FFFFFF" stroke-linecap="round" stroke-linejoin="round" d="M34.545,49.369
	c2.184,2.244,5.237,3.641,8.617,3.641c6.637,0,12.019-5.382,12.019-12.02c0-2.846-0.99-5.459-2.641-7.517"/>
<line fill="none" stroke="#FFFFFF" stroke-linecap="round" stroke-linejoin="round" x1="43.214" y1="53.206" x2="43.214" y2="57.32"/>
<line fill="none" stroke="#FFFFFF" stroke-linecap="round" stroke-linejoin="round" x1="35.075" y1="57.411" x2="52.172" y2="57.411"/>
</svg>
