<?xml version="1.0" encoding="utf-8"?>
<!-- Generator: Adobe Illustrator 18.1.1, SVG Export Plug-In . SVG Version: 6.00 Build 0)  -->
<svg version="1.1" id="Layer_1" xmlns="http://www.w3.org/2000/svg" xmlns:xlink="http://www.w3.org/1999/xlink" x="0px" y="0px"
	 viewBox="0 0 612 272.5" enable-background="new 0 0 612 272.5" xml:space="preserve">
<g>
	<path fill="#F7A721" d="M212.08,81.769h-15.668V35.493h12.124c3.82,0,6.801,0.513,8.944,1.54c2.142,1.027,3.776,2.441,4.902,4.24
		c1.126,1.8,1.69,3.881,1.69,6.244c0,4.55-2.352,7.807-7.056,9.772c3.379,0.641,6.067,2.032,8.066,4.174
		c1.998,2.142,2.998,4.704,2.998,7.685c0,2.363-0.608,4.472-1.822,6.327c-1.215,1.855-2.998,3.368-5.35,4.538
		C218.557,81.184,215.614,81.769,212.08,81.769z M208.735,41.389h-5.698v13.912h4.406c3.533,0,6.045-0.673,7.536-2.02
		c1.491-1.347,2.236-3.092,2.236-5.234C217.215,43.608,214.388,41.389,208.735,41.389z M209.232,61.198h-6.194v14.675h6.525
		c3.622,0,6.079-0.281,7.37-0.845c1.292-0.563,2.33-1.441,3.114-2.634s1.176-2.473,1.176-3.842c0-1.413-0.414-2.705-1.242-3.876
		c-0.828-1.17-2.004-2.042-3.528-2.617C214.929,61.485,212.522,61.198,209.232,61.198z"/>
	<path fill="#F7A721" d="M248.037,35.493h6.625v46.276h-6.625L248.037,35.493L248.037,35.493z"/>
	<path fill="#F7A721" d="M278.295,35.493h6.625v40.248h20.836v6.029h-27.461V35.493z"/>
	<path fill="#F7A721" d="M324.918,35.493h6.625v40.248h20.836v6.029h-27.461V35.493z"/>
	<path fill="#F7A721" d="M371.607,35.493h6.625v46.276h-6.625V35.493z"/>
	<path fill="#F7A721" d="M424.572,34.83c7.15,0,13.103,2.264,17.86,6.791c4.755,4.527,7.134,10.202,7.134,17.026
		s-2.4,12.472-7.2,16.944c-4.8,4.472-10.852,6.708-18.157,6.708c-6.974,0-12.784-2.236-17.429-6.708
		c-4.646-4.472-6.968-10.075-6.968-16.811c0-6.912,2.339-12.631,7.018-17.159C411.508,37.094,417.422,34.83,424.572,34.83z
		 M424.838,41.124c-5.295,0-9.647,1.656-13.056,4.969c-3.409,3.312-5.113,7.542-5.113,12.687c0,4.991,1.709,9.143,5.13,12.455
		c3.42,3.313,7.7,4.969,12.841,4.969c5.162,0,9.47-1.689,12.923-5.068c3.453-3.379,5.179-7.586,5.179-12.621
		c0-4.903-1.727-9.027-5.179-12.373C434.109,42.797,429.868,41.124,424.838,41.124z"/>
	<path fill="#F7A721" d="M507.848,35.493h6.294v46.276h-5.698l-30.939-35.64v35.64h-6.228V35.493h5.366l31.204,35.943V35.493
		H507.848z"/>
</g>
<g>
	<path fill="#F7A721" d="M196.048,143.382V97.04h14.675c4.417,0,7.939,1.193,10.567,3.577c2.628,2.385,3.942,5.588,3.942,9.606
		c0,2.695-0.674,5.079-2.021,7.155c-1.347,2.076-3.191,3.583-5.532,4.522c-2.341,0.939-5.698,1.408-10.07,1.408h-4.903v20.074
		L196.048,143.382L196.048,143.382z M209.563,102.936h-6.857v14.476h7.255c2.694,0,4.77-0.635,6.228-1.905
		c1.457-1.269,2.186-3.086,2.186-5.449C218.374,105.31,215.437,102.936,209.563,102.936z"/>
	<path fill="#F7A721" d="M244.36,97.105h26.235v5.896h-19.61v14.111h18.948v5.929h-18.948v14.376h20.239v5.896H244.36V97.105z"/>
	<path fill="#F7A721" d="M314.353,96.443c7.15,0,13.103,2.264,17.86,6.791c4.755,4.527,7.134,10.202,7.134,17.026
		s-2.4,12.472-7.2,16.944c-4.8,4.472-10.852,6.708-18.157,6.708c-6.974,0-12.784-2.236-17.429-6.708
		c-4.646-4.472-6.968-10.075-6.968-16.811c0-6.912,2.339-12.631,7.018-17.159C301.288,98.707,307.202,96.443,314.353,96.443z
		 M314.618,102.737c-5.295,0-9.647,1.656-13.056,4.969c-3.409,3.312-5.113,7.542-5.113,12.687c0,4.991,1.709,9.143,5.13,12.455
		c3.42,3.313,7.7,4.969,12.841,4.969c5.162,0,9.47-1.689,12.923-5.068c3.453-3.379,5.179-7.586,5.179-12.621
		c0-4.903-1.727-9.027-5.179-12.373C323.889,104.41,319.648,102.737,314.618,102.737z"/>
	<path fill="#F7A721" d="M360.495,143.382V97.04h14.675c4.417,0,7.939,1.193,10.567,3.577c2.628,2.385,3.942,5.588,3.942,9.606
		c0,2.695-0.674,5.079-2.021,7.155c-1.347,2.076-3.191,3.583-5.532,4.522c-2.341,0.939-5.698,1.408-10.07,1.408h-4.903v20.074
		L360.495,143.382L360.495,143.382z M374.01,102.936h-6.857v14.476h7.255c2.694,0,4.77-0.635,6.228-1.905
		c1.457-1.269,2.186-3.086,2.186-5.449C382.822,105.31,379.885,102.936,374.01,102.936z"/>
	<path fill="#F7A721" d="M408.807,97.105h6.625v40.247h20.836v6.029h-27.461V97.105z"/>
	<path fill="#F7A721" d="M455.43,97.105h26.235v5.896h-19.61v14.111h18.948v5.929h-18.948v14.376h20.239v5.896H455.43V97.105z"/>
</g>
<g>
	<path fill="#F7A721" d="M118.916,126.683h41.713v15.138h-69.34v-1.098l6.589-7.765c10.301-12.759,18.498-23.583,24.59-32.474
		c6.091-8.89,10.065-15.609,11.922-20.159c1.856-4.549,2.784-9.046,2.784-13.491c0-6.17-1.752-11.125-5.255-14.864
		c-3.504-3.738-8.158-5.609-13.962-5.609c-4.393,0-8.72,1.294-12.981,3.883c-4.263,2.588-8.093,6.236-11.491,10.942V41.262
		c8.523-6.954,17.308-10.432,26.355-10.432c9.569,0,17.452,3.19,23.649,9.571c6.197,6.38,9.295,14.486,9.295,24.319
		c0,4.394-0.771,9.088-2.312,14.082c-1.542,4.994-4.274,10.747-8.194,17.258c-3.921,6.511-10.585,15.389-19.993,26.632
		L118.916,126.683z"/>
</g>
<g>
	<path fill="#010101" d="M101.791,161.393l-5.869,41.627h-5.717l5.841-41.627H101.791z"/>
	<path fill="#010101" d="M115.851,175.606l-0.696,4.85l0.138,0.096c2.92-3.576,5.949-5.363,9.087-5.363
		c2.126,0,3.774,0.78,4.946,2.339c1.172,1.56,1.758,3.571,1.758,6.034c0,0.696-0.059,1.421-0.179,2.175l-2.628,17.283h-5.118
		l2.503-17.462c0.1-0.615,0.149-1.182,0.149-1.698c0-1.43-0.299-2.523-0.896-3.278c-0.598-0.755-1.344-1.132-2.241-1.132
		c-0.518,0-1.101,0.129-1.748,0.387s-1.34,0.655-2.076,1.191c-0.737,0.536-1.648,1.35-2.734,2.441
		c-1.086,1.092-1.65,1.788-1.693,2.088l-2.506,17.462h-5.115l3.844-27.414h5.205V175.606z"/>
	<path fill="#010101" d="M153.641,175.606l-0.685,4.589h-5.544l-4.402,34.356h-5.072l4.417-34.356h-4.417l0.684-4.589h4.313
		c0.344-4.708,1.663-8.343,3.957-10.906s5.378-3.844,9.252-3.844c2.026,0,4.241,0.427,6.645,1.281l-0.744,5.125
		c-1.866-1.013-3.651-1.52-5.358-1.52c-5.119,0-7.993,3.288-8.621,9.863h5.575V175.606z"/>
	<path fill="#010101" d="M177.925,195.868l-0.745,4.946c-2.782,2.046-5.831,3.069-9.148,3.069c-3.457,0-6.233-1.207-8.329-3.62
		s-3.143-5.627-3.143-9.64c0-4.47,1.256-8.229,3.769-11.278s5.587-4.574,9.222-4.574c2.781,0,5.095,1.068,6.943,3.203
		c1.847,2.135,2.771,4.892,2.771,8.269c0,0.834-0.059,1.689-0.178,2.563h-17.104c-0.159,0.914-0.239,1.788-0.239,2.622
		c0,2.523,0.691,4.514,2.071,5.974s3.114,2.19,5.2,2.19C171.558,199.593,174.528,198.352,177.925,195.868z M162.781,185.201h11.479
		c0-1.907-0.433-3.412-1.298-4.514c-0.864-1.103-2.082-1.654-3.652-1.654C166.329,179.033,164.153,181.089,162.781,185.201z"/>
	<path fill="#010101" d="M205.248,196.911l-0.596,5.006c-2.384,1.311-4.927,1.967-7.628,1.967c-3.675,0-6.611-1.147-8.805-3.441
		c-2.195-2.295-3.293-5.359-3.293-9.193c0-4.628,1.664-8.532,4.992-11.711c3.327-3.178,7.583-4.768,12.768-4.768
		c1.311,0,2.88,0.159,4.707,0.477l-0.685,4.589c-1.292-0.298-2.612-0.447-3.963-0.447c-3.596,0-6.581,1.152-8.954,3.456
		c-2.374,2.305-3.56,4.996-3.56,8.075c0,2.583,0.67,4.614,2.011,6.094s3.174,2.22,5.498,2.22
		C200.202,199.236,202.705,198.461,205.248,196.911z"/>
	<path fill="#010101" d="M226.85,175.606l-0.564,4.052h-5.453l-2.665,14.986c-0.139,0.755-0.209,1.391-0.209,1.908
		c0,1.789,0.965,2.683,2.894,2.683c1.432,0,3.102-0.546,5.012-1.639l-0.298,5.065c-1.907,0.814-3.804,1.222-5.691,1.222
		c-2.245,0-4.018-0.571-5.319-1.713s-1.951-2.647-1.951-4.514c0-0.457,0.043-0.925,0.129-1.404l2.879-16.593h-4.826l0.63-4.052
		h5.011l1.003-5.602h5.115l-0.995,5.602h5.298V175.606z"/>
	<path fill="#010101" d="M252.772,195.868l-0.745,4.946c-2.782,2.046-5.831,3.069-9.148,3.069c-3.457,0-6.233-1.207-8.329-3.62
		s-3.143-5.627-3.143-9.64c0-4.47,1.256-8.229,3.769-11.278s5.587-4.574,9.222-4.574c2.781,0,5.095,1.068,6.943,3.203
		c1.847,2.135,2.771,4.892,2.771,8.269c0,0.834-0.06,1.689-0.178,2.563H236.83c-0.159,0.914-0.239,1.788-0.239,2.622
		c0,2.523,0.691,4.514,2.071,5.974s3.114,2.19,5.2,2.19C246.406,199.593,249.376,198.352,252.772,195.868z M237.629,185.201h11.479
		c0-1.907-0.433-3.412-1.298-4.514c-0.864-1.103-2.082-1.654-3.652-1.654C241.177,179.033,239,181.089,237.629,185.201z"/>
	<path fill="#010101" d="M287.475,161.393l-5.858,41.626c-2.007,0.577-4.341,0.865-7.004,0.865c-4.629,0-8.19-1.102-10.683-3.307
		s-3.74-5.334-3.74-9.386c0-3.973,1.622-7.703,4.867-11.189c3.246-3.486,7.645-5.23,13.199-5.23h2.18l1.863-13.379L287.475,161.393
		L287.475,161.393z M276.996,199.474l2.839-20.381h-1.345c-3.884,0-7.016,1.177-9.396,3.531s-3.57,5.17-3.57,8.448
		c0,2.722,0.785,4.822,2.354,6.302s3.814,2.22,6.734,2.22C275.665,199.593,276.46,199.553,276.996,199.474z"/>
	<path fill="#010101" d="M348.419,175.606l-14.108,27.95h-2.429l-3.68-17.938l-9.272,17.938h-2.39l-5.665-27.95h5.078l3.399,18.445
		l8.93-18.445h2.528l3.441,18.445l9.077-18.445H348.419z"/>
	<path fill="#010101" d="M359.374,175.606l-3.844,27.414h-5.175l3.844-27.414H359.374z M354.765,167.025
		c0-0.835,0.293-1.544,0.879-2.131c0.586-0.586,1.285-0.879,2.1-0.879c0.814,0,1.515,0.293,2.101,0.879s0.879,1.296,0.879,2.131
		c0,0.815-0.293,1.515-0.879,2.101s-1.287,0.879-2.101,0.879c-0.815,0-1.515-0.293-2.1-0.879
		C355.057,168.539,354.765,167.839,354.765,167.025z"/>
	<path fill="#010101" d="M380.329,175.606l-0.564,4.052h-5.453l-2.665,14.986c-0.139,0.755-0.209,1.391-0.209,1.908
		c0,1.789,0.965,2.683,2.894,2.683c1.432,0,3.102-0.546,5.012-1.639l-0.298,5.065c-1.907,0.814-3.804,1.222-5.691,1.222
		c-2.245,0-4.018-0.571-5.319-1.713s-1.951-2.647-1.951-4.514c0-0.457,0.043-0.925,0.129-1.404l2.879-16.593h-4.826l0.63-4.052
		h5.011l1.003-5.602h5.115l-0.995,5.602h5.298V175.606z"/>
	<path fill="#010101" d="M394.891,161.393l-2.622,18.624l0.119,0.119c3.076-3.576,6.242-5.364,9.497-5.364
		c2.005,0,3.568,0.68,4.689,2.041c1.121,1.36,1.682,3.192,1.682,5.496c0,0.656-0.049,1.331-0.149,2.026l-2.611,18.686h-5.174
		l2.622-18.981c0.06-0.477,0.09-0.924,0.09-1.341c0-2.682-1.064-4.023-3.191-4.023c-1.551,0-3.31,0.998-5.278,2.995
		c-1.968,1.996-2.981,3.173-3.041,3.531l-2.503,17.819h-5.176l5.87-41.627L394.891,161.393L394.891,161.393z"/>
	<path fill="#010101" d="M475.379,161.393v7.628h-15.077v33.999h-10.37v-33.999h-15.078v-7.628H475.379z"/>
	<path fill="#010101" d="M487.494,161.393h17.997c4.291,0,7.663,1.032,10.116,3.097c2.453,2.064,3.68,4.506,3.68,7.324
		c0,3.613-1.897,6.382-5.691,8.307c2.86,0.756,5.05,2.088,6.57,3.996c1.519,1.909,2.279,4.135,2.279,6.679
		c0,3.617-1.241,6.56-3.725,8.826c-2.483,2.266-6.138,3.399-10.965,3.399h-20.262L487.494,161.393L487.494,161.393z
		 M497.863,169.021v8.909h5.423c1.669,0,2.969-0.427,3.903-1.281s1.4-1.927,1.4-3.218c0-1.271-0.467-2.324-1.4-3.159
		c-0.934-0.834-2.235-1.251-3.903-1.251H497.863z M497.863,185.558v9.833h5.841c2.761,0,4.748-0.382,5.96-1.147
		c1.211-0.765,1.818-2.091,1.818-3.978c0-1.45-0.576-2.597-1.728-3.442c-1.152-0.844-2.692-1.266-4.619-1.266H497.863z"/>
</g>
<g>
	<path fill="#010101" d="M97.452,220.401h1.611c-1.03,1.238-2.189,3.172-3.477,5.802c-1.288,2.63-2.153,5.364-2.596,8.202
		c-0.444,2.838-0.666,5.024-0.666,6.558c0,3.89,0.696,7.369,2.088,10.437h-1.414c-1.019-1.929-1.838-4.063-2.457-6.402
		s-0.929-4.49-0.929-6.451c0-2.98,0.6-5.884,1.8-8.711C92.612,227.009,94.625,223.864,97.452,220.401z"/>
	<path fill="#010101" d="M111.624,220.401l-3.633,23.257h-3.045l3.681-23.257H111.624z"/>
	<path fill="#010101" d="M118.884,243.954l6.607-23.553h2.355l-6.59,23.553H118.884z"/>
	<path fill="#010101" d="M133.117,224.576l0.444-3.172c1.556-0.668,3.139-1.003,4.75-1.003c1.851,0,3.338,0.542,4.462,1.626
		c1.123,1.084,1.685,2.524,1.685,4.319c0,2.551-1.49,4.38-4.471,5.486c2.06,0.877,3.09,2.61,3.09,5.198
		c0,1.788-0.699,3.388-2.096,4.803c-1.397,1.414-3.356,2.121-5.876,2.121c-1.797,0-3.638-0.422-5.522-1.266l0.411-2.728
		c1.687,0.855,3.347,1.282,4.98,1.282c1.479,0,2.674-0.389,3.583-1.167c0.91-0.778,1.364-1.792,1.364-3.041
		c0-1.238-0.416-2.211-1.249-2.917c-0.832-0.707-1.808-1.016-2.925-0.929l0.362-2.728c1.655-0.12,2.934-0.581,3.838-1.38
		c0.904-0.8,1.356-1.698,1.356-2.696c0-0.975-0.328-1.761-0.986-2.358c-0.657-0.597-1.528-0.896-2.613-0.896
		C136.136,223.13,134.607,223.612,133.117,224.576z"/>
	<path fill="#010101" d="M171.28,220.401c2.421,0,4.38,0.885,5.876,2.655c1.495,1.769,2.243,4.095,2.243,6.977
		c0,3.989-1.09,7.306-3.271,9.952s-4.783,3.969-7.807,3.969c-2.389,0-4.35-0.904-5.884-2.712s-2.301-4.131-2.301-6.969
		c0-3.539,1.044-6.736,3.131-9.59C165.355,221.829,168.026,220.401,171.28,220.401z M168.387,241.193
		c2.126,0,3.975-1.142,5.547-3.427c1.572-2.285,2.358-5.043,2.358-8.276c0-1.972-0.455-3.52-1.364-4.643s-2.136-1.685-3.681-1.685
		c-2.367,0-4.292,1.181-5.777,3.542c-1.485,2.361-2.227,5.027-2.227,7.996c0,2.005,0.466,3.589,1.397,4.75
		C165.571,240.612,166.821,241.193,168.387,241.193z"/>
	<path fill="#010101" d="M197.199,220.697l-0.378,2.728h-7.975l-1.017,7.199h7.348l-0.41,2.728h-7.323l-1.455,10.305h-3.072
		l3.336-22.961L197.199,220.697L197.199,220.697z"/>
	<path fill="#010101" d="M236.184,220.697l-11.131,23.158h-1.142l-4.467-16.288l-7.807,16.288h-1.185l-5.447-23.158h2.887
		l3.811,16.255l7.754-16.255h1.158l4.5,16.535l7.893-16.535H236.184z"/>
	<path fill="#010101" d="M247.738,220.401c2.421,0,4.38,0.885,5.875,2.655c1.496,1.769,2.243,4.095,2.243,6.977
		c0,3.989-1.09,7.306-3.27,9.952c-2.181,2.646-4.783,3.969-7.807,3.969c-2.389,0-4.35-0.904-5.884-2.712s-2.301-4.131-2.301-6.969
		c0-3.539,1.044-6.736,3.131-9.59C241.813,221.829,244.483,220.401,247.738,220.401z M244.845,241.193
		c2.126,0,3.975-1.142,5.547-3.427c1.572-2.285,2.358-5.043,2.358-8.276c0-1.972-0.455-3.52-1.364-4.643
		c-0.91-1.123-2.136-1.685-3.682-1.685c-2.366,0-4.292,1.181-5.777,3.542c-1.485,2.361-2.227,5.027-2.227,7.996
		c0,2.005,0.465,3.589,1.397,4.75C242.029,240.612,243.278,241.193,244.845,241.193z"/>
	<path fill="#010101" d="M262.776,220.697h4.141c3.036,0,5.095,0.602,6.18,1.807s1.627,2.677,1.627,4.418
		c0,1.347-0.411,2.522-1.233,3.523c-0.822,1.002-1.978,1.7-3.468,2.094c0.679,0.44,1.315,1.286,1.907,2.539l4.109,8.58h-3.28
		l-2.633-5.459c-0.834-1.72-1.542-2.927-2.123-3.622s-1.47-1.043-2.666-1.043h-1.218l-1.412,10.125h-3.153L262.776,220.697z
		 M265.53,223.426l-0.996,7.38h1.611c1.742,0,3.066-0.364,3.969-1.093c0.904-0.729,1.356-1.712,1.356-2.95
		c0-2.224-1.382-3.336-4.147-3.336L265.53,223.426L265.53,223.426z"/>
	<path fill="#010101" d="M285.025,220.697l-3.01,20.397h9.44l-0.378,2.564h-12.311l3.221-22.961H285.025z"/>
	<path fill="#010101" d="M294.315,243.658l3.27-22.961h2.712c4.252,0,7.561,1.022,9.928,3.065c2.366,2.044,3.55,4.863,3.55,8.456
		c0,3.463-1.041,6.235-3.122,8.317c-2.082,2.082-5.035,3.123-8.859,3.123H294.315z M300.281,223.458l-2.456,17.472h2.76
		c2.616,0,4.555-0.315,5.814-0.945s2.258-1.624,2.997-2.983c0.739-1.359,1.109-2.986,1.109-4.882c0-2.717-0.919-4.84-2.757-6.369
		c-1.838-1.529-3.977-2.293-6.416-2.293L300.281,223.458L300.281,223.458z"/>
	<path fill="#010101" d="M331.328,220.697h3.944c2.367,0,4.197,0.548,5.49,1.644s1.94,2.717,1.94,4.865
		c0,1.764-0.641,3.331-1.923,4.701c-1.281,1.37-3.084,2.054-5.406,2.054h-2.761l-1.351,9.697h-3.171L331.328,220.697z
		 M334.08,223.426l-1.088,7.807h2.223c1.383,0,2.461-0.397,3.235-1.192c0.773-0.794,1.16-1.778,1.16-2.95
		c0-1.107-0.362-1.994-1.086-2.663s-1.756-1.003-3.094-1.003h-1.35V223.426z"/>
	<path fill="#010101" d="M356.507,220.401c2.421,0,4.38,0.885,5.875,2.655c1.496,1.769,2.243,4.095,2.243,6.977
		c0,3.989-1.09,7.306-3.27,9.952c-2.181,2.646-4.783,3.969-7.807,3.969c-2.389,0-4.35-0.904-5.884-2.712s-2.301-4.131-2.301-6.969
		c0-3.539,1.044-6.736,3.131-9.59C350.582,221.829,353.252,220.401,356.507,220.401z M353.614,241.193
		c2.126,0,3.975-1.142,5.547-3.427s2.358-5.043,2.358-8.276c0-1.972-0.455-3.52-1.364-4.643c-0.91-1.123-2.136-1.685-3.682-1.685
		c-2.366,0-4.292,1.181-5.777,3.542c-1.485,2.361-2.227,5.027-2.227,7.996c0,2.005,0.465,3.589,1.397,4.75
		C350.798,240.612,352.047,241.193,353.614,241.193z"/>
	<path fill="#010101" d="M371.249,220.697h3.945c2.366,0,4.197,0.548,5.49,1.644s1.939,2.717,1.939,4.865
		c0,1.764-0.641,3.331-1.923,4.701s-3.084,2.054-5.406,2.054h-2.761l-1.352,9.697h-3.17L371.249,220.697z M374.002,223.426
		l-1.088,7.807h2.223c1.383,0,2.461-0.397,3.235-1.192c0.774-0.794,1.161-1.778,1.161-2.95c0-1.107-0.362-1.994-1.087-2.663
		c-0.724-0.668-1.755-1.003-3.094-1.003h-1.35V223.426z"/>
	<path fill="#010101" d="M405.121,220.697l-1.986,14.168c-0.416,2.98-1.441,5.241-3.074,6.78c-1.632,1.54-3.797,2.309-6.492,2.309
		c-2.389,0-4.298-0.646-5.728-1.939s-2.145-3.018-2.145-5.177c0-0.449,0.033-0.904,0.098-1.364l2.088-14.776h3.021l-2.123,15.022
		c-0.044,0.318-0.066,0.625-0.066,0.921c0,1.414,0.466,2.526,1.398,3.337c0.931,0.811,2.137,1.216,3.618,1.216
		c1.282,0,2.415-0.304,3.396-0.912s1.658-1.367,2.031-2.277c0.372-0.909,0.685-2.279,0.937-4.109l1.857-13.198h3.17V220.697z"/>
	<path fill="#010101" d="M413.764,220.697l-3.01,20.397h9.44l-0.378,2.564h-12.311l3.221-22.961H413.764z"/>
	<path fill="#010101" d="M433.608,220.566l4.451,23.092h-2.829l-1.356-7.199h-7.22l-3.029,7.199h-3.07l10.164-23.092H433.608z
		 M427.678,234.027h5.738l-1.775-9.418L427.678,234.027z"/>
	<path fill="#010101" d="M456.039,220.697l-0.411,2.86h-6.46l-2.828,20.101h-3.17l2.827-20.101h-6.46l0.411-2.86H456.039z"/>
	<path fill="#010101" d="M463.531,220.697l-3.237,22.961h-3.153l3.221-22.961H463.531z"/>
	<path fill="#010101" d="M478.145,220.401c2.421,0,4.38,0.885,5.875,2.655c1.496,1.769,2.243,4.095,2.243,6.977
		c0,3.989-1.09,7.306-3.27,9.952c-2.181,2.646-4.783,3.969-7.807,3.969c-2.389,0-4.35-0.904-5.884-2.712s-2.301-4.131-2.301-6.969
		c0-3.539,1.044-6.736,3.131-9.59C472.219,221.829,474.89,220.401,478.145,220.401z M475.252,241.193
		c2.126,0,3.975-1.142,5.547-3.427s2.358-5.043,2.358-8.276c0-1.972-0.455-3.52-1.364-4.643c-0.91-1.123-2.136-1.685-3.682-1.685
		c-2.366,0-4.292,1.181-5.777,3.542c-1.485,2.361-2.227,5.027-2.227,7.996c0,2.005,0.465,3.589,1.397,4.75
		C472.436,240.612,473.685,241.193,475.252,241.193z"/>
	<path fill="#010101" d="M511.575,220.697l-3.238,22.961h-1.643l-11.426-16.776l-2.353,16.776h-2.854l3.221-22.961h1.562
		l11.462,16.888l2.382-16.888H511.575z"/>
	<path fill="#010101" d="M513.053,251.4h-1.627c1.041-1.238,2.202-3.172,3.484-5.802s2.145-5.364,2.588-8.202
		c0.444-2.838,0.666-5.024,0.666-6.558c0-3.89-0.696-7.369-2.087-10.437h1.413c1.019,1.929,1.841,4.062,2.465,6.402
		c0.624,2.34,0.937,4.49,0.937,6.451c0,2.98-0.603,5.884-1.808,8.711C517.88,244.792,515.869,247.937,513.053,251.4z"/>
</g>
</svg>
