<?xml version="1.0" encoding="utf-8"?>
<!-- Generator: Adobe Illustrator 18.1.1, SVG Export Plug-In . SVG Version: 6.00 Build 0)  -->
<svg version="1.1" id="Layer_1" xmlns="http://www.w3.org/2000/svg" xmlns:xlink="http://www.w3.org/1999/xlink" x="0px" y="0px"
	 viewBox="0 0 612 272.5" enable-background="new 0 0 612 272.5" xml:space="preserve">
<g>
	<path fill="#5AA144" d="M265.409,67.632h5.412v40.436h-5.818V76.605l-12.432,15.63H251.5l-12.576-15.63v31.463h-5.789V67.632h5.481
		l13.436,16.607L265.409,67.632z"/>
	<path fill="#5AA144" d="M291.269,67.632h5.789v40.436h-5.789V67.632z"/>
	<path fill="#5AA144" d="M317.709,67.632h5.789V102.8h18.206v5.268h-23.995V67.632z"/>
	<path fill="#5AA144" d="M358.448,67.632h5.789V102.8h18.206v5.268h-23.995V67.632z"/>
	<path fill="#5AA144" d="M399.244,67.632h5.789v40.436h-5.789V67.632z"/>
	<path fill="#5AA144" d="M445.525,67.053c6.248,0,11.45,1.978,15.606,5.933c4.155,3.956,6.233,8.915,6.233,14.878
		s-2.097,10.898-6.291,14.805c-4.194,3.908-9.482,5.862-15.865,5.862c-6.094,0-11.17-1.954-15.229-5.862
		c-4.06-3.907-6.089-8.803-6.089-14.689c0-6.039,2.044-11.037,6.133-14.993C434.109,69.031,439.277,67.053,445.525,67.053z
		 M445.757,72.552c-4.627,0-8.43,1.447-11.408,4.342c-2.979,2.895-4.468,6.59-4.468,11.085c0,4.361,1.494,7.989,4.482,10.884
		c2.988,2.895,6.728,4.342,11.221,4.342c4.511,0,8.275-1.477,11.293-4.429c3.017-2.953,4.526-6.629,4.526-11.028
		c0-4.284-1.509-7.887-4.526-10.811C453.858,74.014,450.152,72.552,445.757,72.552z"/>
	<path fill="#5AA144" d="M518.291,67.632h5.5v40.436h-4.979l-27.034-31.142v31.142h-5.441V67.632h4.689l27.266,31.406
		L518.291,67.632L518.291,67.632z"/>
</g>
<g>
	<path fill="#5AA144" d="M232.933,161.904v-40.493h12.822c3.859,0,6.937,1.042,9.234,3.126c2.296,2.084,3.444,4.882,3.444,8.394
		c0,2.355-0.588,4.439-1.765,6.252c-1.177,1.814-2.788,3.131-4.834,3.951c-2.046,0.821-4.978,1.23-8.799,1.23h-4.284v17.54
		L232.933,161.904L232.933,161.904z M244.742,126.563h-5.992v12.649h6.339c2.354,0,4.168-0.555,5.441-1.664s1.911-2.696,1.911-4.762
		C252.442,128.637,249.875,126.563,244.742,126.563z"/>
	<path fill="#5AA144" d="M275.148,121.468h22.924v5.152h-17.135v12.331h16.556v5.181h-16.556v12.562h17.685v5.152h-23.474V121.468z"
		/>
	<path fill="#5AA144" d="M336.306,120.89c6.248,0,11.45,1.978,15.606,5.933c4.155,3.956,6.233,8.915,6.233,14.878
		c0,5.963-2.097,10.898-6.291,14.805c-4.194,3.908-9.482,5.862-15.865,5.862c-6.094,0-11.17-1.954-15.229-5.862
		c-4.06-3.907-6.089-8.804-6.089-14.689c0-6.039,2.044-11.037,6.133-14.993C324.89,122.868,330.058,120.89,336.306,120.89z
		 M336.538,126.389c-4.627,0-8.43,1.447-11.408,4.342c-2.979,2.895-4.468,6.59-4.468,11.086c0,4.361,1.494,7.989,4.482,10.883
		c2.988,2.895,6.728,4.342,11.221,4.342c4.511,0,8.275-1.476,11.293-4.429c3.017-2.952,4.526-6.628,4.526-11.028
		c0-4.284-1.509-7.887-4.526-10.811C344.639,127.851,340.933,126.389,336.538,126.389z"/>
	<path fill="#5AA144" d="M376.625,161.904v-40.493h12.822c3.859,0,6.937,1.042,9.234,3.126c2.296,2.084,3.444,4.882,3.444,8.394
		c0,2.355-0.588,4.439-1.765,6.252c-1.177,1.814-2.788,3.131-4.834,3.951c-2.046,0.821-4.978,1.23-8.799,1.23h-4.284v17.54
		L376.625,161.904L376.625,161.904z M388.434,126.563h-5.992v12.649h6.339c2.354,0,4.168-0.555,5.441-1.664s1.911-2.696,1.911-4.762
		C396.134,128.637,393.567,126.563,388.434,126.563z"/>
	<path fill="#5AA144" d="M418.839,121.468h5.789v35.168h18.206v5.268h-23.995V121.468z"/>
	<path fill="#5AA144" d="M459.578,121.468h22.924v5.152h-17.135v12.331h16.556v5.181h-16.556v12.562h17.685v5.152h-23.474V121.468z"
		/>
</g>
<g>
	<path fill="#5AA144" d="M105.11,107.967h0.822c5.986,0,10.543-1.234,13.674-3.701c3.129-2.468,4.695-6.054,4.695-10.761
		c0-4.249-1.519-7.699-4.558-10.349c-3.039-2.65-7.025-3.975-11.96-3.975c-4.981,0-10.51,1.554-16.586,4.661V70.75
		c5.574-2.787,11.652-4.181,18.231-4.181c8.818,0,15.775,2.306,20.87,6.917c5.094,4.612,7.642,10.913,7.642,18.903
		c0,4.841-0.983,8.915-2.947,12.226c-1.965,3.31-5.095,6.152-9.39,8.527c3.746,1.463,6.488,3.258,8.225,5.383
		c1.736,2.127,3.084,4.698,4.044,7.716c0.96,3.018,1.44,6.219,1.44,9.602c0,8.368-2.788,15.283-8.362,20.747
		c-5.575,5.464-12.611,8.196-21.11,8.196c-7.265,0-14.28-1.758-21.042-5.278v-14.941c7.219,4.524,14.233,6.785,21.042,6.785
		c4.615,0,8.327-1.371,11.137-4.113c2.81-2.741,4.215-6.374,4.215-10.898c0-3.792-1.165-7.105-3.496-9.938
		c-1.371-1.599-2.89-2.776-4.558-3.53c-1.669-0.754-5.267-1.474-10.795-2.159l-1.234-0.137L105.11,107.967L105.11,107.967z"/>
	<path fill="#5AA144" d="M151.944,67.94h61.959l-43.329,96.871l-12.255-5.165l35.015-78.615h-41.389V67.94H151.944z"/>
</g>
<g>
	<path fill="#010101" d="M105.248,174.614l-5.707,38.666h17.897l-0.717,4.861H93.385l6.107-43.526L105.248,174.614L105.248,174.614z
		"/>
	<path fill="#010101" d="M131.26,189.476l-4.019,28.664h-5.412l4.019-28.664H131.26z M126.441,180.503
		c0-0.872,0.306-1.615,0.919-2.228c0.612-0.612,1.345-0.919,2.197-0.919c0.851,0,1.584,0.307,2.196,0.919
		c0.613,0.613,0.919,1.355,0.919,2.228c0,0.852-0.307,1.584-0.919,2.197c-0.613,0.613-1.345,0.919-2.196,0.919
		c-0.852,0-1.584-0.306-2.197-0.919C126.747,182.087,126.441,181.355,126.441,180.503z"/>
	<path fill="#010101" d="M161.211,189.476L146.5,218.701h-2.688l-6.529-29.225h5.363l3.906,18.195l9.159-18.195L161.211,189.476
		L161.211,189.476z"/>
	<path fill="#010101" d="M172.416,189.476l-4.019,28.664h-5.412l4.019-28.664H172.416z M167.597,180.503
		c0-0.872,0.306-1.615,0.919-2.228c0.612-0.612,1.345-0.919,2.197-0.919c0.851,0,1.584,0.307,2.196,0.919
		c0.613,0.613,0.919,1.355,0.919,2.228c0,0.852-0.306,1.584-0.919,2.197s-1.345,0.919-2.196,0.919c-0.852,0-1.584-0.306-2.197-0.919
		S167.597,181.355,167.597,180.503z"/>
	<path fill="#010101" d="M187.496,189.476l-0.728,5.071l0.145,0.101c3.053-3.739,6.22-5.608,9.502-5.608
		c2.222,0,3.946,0.815,5.171,2.446s1.838,3.734,1.838,6.309c0,0.727-0.063,1.485-0.187,2.275l-2.748,18.071h-5.351l2.617-18.258
		c0.104-0.644,0.156-1.236,0.156-1.776c0-1.496-0.313-2.638-0.937-3.427c-0.625-0.789-1.406-1.184-2.343-1.184
		c-0.542,0-1.151,0.135-1.828,0.405s-1.4,0.685-2.171,1.245c-0.771,0.561-1.723,1.412-2.859,2.553
		c-1.135,1.141-1.726,1.869-1.77,2.183l-2.62,18.259h-5.349l4.019-28.664L187.496,189.476L187.496,189.476z"/>
	<path fill="#010101" d="M237.074,189.476l-0.561,4.237h-5.546c1.267,1.787,1.901,3.677,1.901,5.67c0,2.285-0.514,4.3-1.543,6.045
		c-1.028,1.745-2.285,2.975-3.77,3.692s-3.401,1.288-5.748,1.714c-2.347,0.426-3.832,0.852-4.455,1.277
		c-0.623,0.426-0.935,0.93-0.935,1.511c0,0.436,0.269,0.836,0.81,1.199c0.54,0.364,2.487,0.95,5.843,1.759
		c3.354,0.809,5.702,1.894,7.041,3.255c1.339,1.361,2.009,2.966,2.009,4.815c0,2.327-1.101,4.269-3.303,5.827
		s-4.996,2.337-8.381,2.337c-3.635,0-6.621-0.706-8.957-2.119s-3.505-3.178-3.505-5.296c0-2.763,2.752-4.736,8.256-5.92
		c-3.323-1.226-4.985-2.908-4.985-5.047c0-1.101,0.509-2.134,1.526-3.1s2.399-1.698,4.144-2.197
		c-3.448-1.64-5.172-4.382-5.172-8.225c0-3.219,1.044-5.93,3.131-8.132c2.088-2.202,4.596-3.303,7.524-3.303h14.676V189.476z
		 M220.873,228.734c1.849,0,3.323-0.333,4.424-0.997c1.101-0.665,1.651-1.527,1.651-2.586c0-1.039-0.904-1.978-2.711-2.82
		c-1.807-0.841-3.033-1.262-3.677-1.262c-0.81,0-2.248,0.431-4.315,1.293s-3.1,1.833-3.1,2.913c0,1.059,0.69,1.9,2.072,2.524
		C216.599,228.422,218.484,228.734,220.873,228.734z M222.088,206.332c1.64,0,2.986-0.67,4.035-2.01s1.574-2.902,1.574-4.689
		c0-1.682-0.483-3.058-1.449-4.128s-2.186-1.605-3.661-1.605c-1.454,0-2.763,0.676-3.926,2.025
		c-1.163,1.351-1.745,2.888-1.745,4.611c0,1.683,0.488,3.069,1.464,4.16C219.356,205.787,220.592,206.332,222.088,206.332z"/>
	<path fill="#010101" d="M300.196,189.476l-14.752,29.225h-2.54l-3.848-18.757l-9.694,18.757h-2.499l-5.924-29.225h5.31
		l3.554,19.286l9.337-19.286h2.643l3.598,19.286l9.491-19.286H300.196z"/>
	<path fill="#010101" d="M311.651,189.476l-4.019,28.664h-5.412l4.019-28.664H311.651z M306.831,180.503
		c0-0.872,0.306-1.615,0.919-2.228c0.612-0.612,1.345-0.919,2.197-0.919c0.851,0,1.584,0.307,2.196,0.919
		c0.613,0.613,0.919,1.355,0.919,2.228c0,0.852-0.307,1.584-0.919,2.197c-0.613,0.613-1.345,0.919-2.196,0.919
		c-0.852,0-1.584-0.306-2.197-0.919C307.137,182.087,306.831,181.355,306.831,180.503z"/>
	<path fill="#010101" d="M333.562,189.476l-0.589,4.237h-5.702l-2.786,15.67c-0.146,0.79-0.218,1.455-0.218,1.995
		c0,1.87,1.008,2.805,3.026,2.805c1.497,0,3.244-0.571,5.241-1.713l-0.311,5.296c-1.994,0.852-3.978,1.277-5.951,1.277
		c-2.348,0-4.201-0.597-5.561-1.792c-1.361-1.194-2.041-2.768-2.041-4.72c0-0.478,0.045-0.967,0.135-1.468l3.011-17.351h-5.046
		l0.659-4.237h5.24l1.049-5.858h5.349l-1.042,5.858h5.537V189.476z"/>
	<path fill="#010101" d="M348.789,174.614l-2.742,19.473l0.125,0.124c3.216-3.739,6.526-5.608,9.93-5.608
		c2.096,0,3.73,0.711,4.903,2.134c1.172,1.423,1.759,3.338,1.759,5.747c0,0.686-0.052,1.392-0.156,2.118l-2.73,19.538h-5.41
		l2.742-19.847c0.062-0.499,0.093-0.966,0.093-1.402c0-2.804-1.112-4.206-3.336-4.206c-1.622,0-3.461,1.044-5.519,3.131
		c-2.058,2.088-3.118,3.318-3.18,3.692l-2.618,18.632h-5.412l6.138-43.526H348.789z"/>
	<path fill="#010101" d="M437.093,174.614v43.526H426.25v-17.604h-21.685v17.604h-10.842v-43.526h10.842v17.479h21.685v-17.479
		H437.093z"/>
	<path fill="#010101" d="M464.092,174.614v43.526H453.25v-43.526H464.092z"/>
	<path fill="#010101" d="M521.228,174.614l-20.117,44.087h-4.704l-21.088-44.087h11.811l11.517,24.871l10.902-24.871H521.228z"/>
</g>
</svg>
