<?xml version="1.0" encoding="utf-8"?>
<!-- Generator: Adobe Illustrator 17.0.2, SVG Export Plug-In . SVG Version: 6.00 Build 0)  -->
<!DOCTYPE svg PUBLIC "-//W3C//DTD SVG 1.1//EN" "http://www.w3.org/Graphics/SVG/1.1/DTD/svg11.dtd">
<svg version="1.1" id="Layer_1" xmlns="http://www.w3.org/2000/svg" xmlns:xlink="http://www.w3.org/1999/xlink" x="0px" y="0px"
	 width="72px" height="72px" viewBox="0 0 72 72" enable-background="new 0 0 72 72" xml:space="preserve">
<path fill="none" stroke="#000000" stroke-width="2" stroke-linecap="round" stroke-miterlimit="10" d="M52.167,46.5L38.834,58.333
	l0,0h-15.4c-1.988,0-3.6-1.612-3.6-3.6V17.267c0-1.988,1.612-3.6,3.6-3.6h25.133c1.988,0,3.6,1.612,3.6,3.6V46.5L52.167,46.5z"/>
<polyline fill="none" stroke="#000000" stroke-width="2" stroke-linecap="round" stroke-linejoin="round" stroke-miterlimit="10" points="
	38.834,58.333 38.834,45.333 52.167,45.333 "/>
<path fill="none" stroke="#000000" stroke-width="2" stroke-linecap="round" stroke-linejoin="round" stroke-miterlimit="10" d="
	M41.438,38.195c-1.659,1.759-4.01,2.856-6.618,2.856c-5.023,0-9.096-4.072-9.096-9.096s4.072-9.096,9.096-9.096"/>
<path fill="none" stroke="#000000" stroke-width="2" stroke-linecap="round" stroke-linejoin="round" stroke-miterlimit="10" d="
	M42.78,39.068c2.147-1.947,3.496-4.76,3.496-7.887c0-5.879-4.766-10.644-10.644-10.644v11.418L42.78,39.068z"/>
<line fill="none" stroke="#000000" stroke-width="2" stroke-linecap="round" stroke-linejoin="round" stroke-miterlimit="10" x1="25.724" y1="31.955" x2="35.632" y2="31.955"/>
</svg>
