<?xml version="1.0" encoding="utf-8"?>
<!-- Generator: Adobe Illustrator 17.0.2, SVG Export Plug-In . SVG Version: 6.00 Build 0)  -->
<!DOCTYPE svg PUBLIC "-//W3C//DTD SVG 1.1//EN" "http://www.w3.org/Graphics/SVG/1.1/DTD/svg11.dtd">
<svg version="1.1" id="Layer_1" xmlns="http://www.w3.org/2000/svg" xmlns:xlink="http://www.w3.org/1999/xlink" x="0px" y="0px"
	 width="72px" height="72px" viewBox="0 0 72 72" enable-background="new 0 0 72 72" xml:space="preserve">
<path fill="none" stroke="#000000" stroke-width="2" stroke-linecap="round" stroke-linejoin="round" stroke-miterlimit="10" d="
	M57.236,52.571c0,0.912-0.691,1.651-1.544,1.651H15.628c-0.853,0-1.544-0.739-1.544-1.651V21.256c0-0.912,0.691-1.651,1.544-1.651
	h40.064c0.853,0,1.544,0.739,1.544,1.651V52.571z"/>
<line fill="none" stroke="#000000" stroke-width="2" stroke-linecap="round" stroke-linejoin="round" stroke-miterlimit="10" x1="14.083" y1="26.333" x2="57.236" y2="26.333"/>
<circle cx="17.715" cy="22.667" r="1"/>
<circle cx="20.465" cy="22.667" r="1"/>
<circle cx="23.215" cy="22.667" r="1"/>
<rect x="19.465" y="32.164" fill="none" stroke="#000000" stroke-width="2" stroke-linecap="round" stroke-linejoin="round" stroke-miterlimit="10" width="16.195" height="16.503"/>
<line fill="none" stroke="#000000" stroke-width="2" stroke-linecap="round" stroke-miterlimit="10" x1="39.132" y1="35.082" x2="53.132" y2="35.082"/>
<line fill="none" stroke="#000000" stroke-width="2" stroke-linecap="round" stroke-miterlimit="10" x1="39.132" y1="40.415" x2="53.132" y2="40.415"/>
<line fill="none" stroke="#000000" stroke-width="2" stroke-linecap="round" stroke-miterlimit="10" x1="39.132" y1="45.749" x2="45.043" y2="45.749"/>
</svg>
